<svg width="96" height="96" viewBox="0 0 96 96" fill="none" xmlns="http://www.w3.org/2000/svg">
<path d="M93.6981 44.0149C95.1212 46.4795 95.1213 49.5161 93.6984 51.9809L74.3003 85.5831C72.8774 88.0478 70.2477 89.5663 67.4017 89.5664L28.6023 89.5682C25.7563 89.5683 23.1264 88.0501 21.7033 85.5855L2.30205 51.9851C0.87895 49.5205 0.878809 46.4839 2.30168 44.0191L21.6998 10.417C23.1227 7.95219 25.7524 6.43375 28.5984 6.43362L67.3978 6.43181C70.2438 6.43168 72.8737 7.94988 74.2968 10.4145L93.6981 44.0149Z" fill="white"/>
<g clip-path="url(#clip0_251_5761)">
<path d="M64.8316 41.8169C63.5106 41.8169 61.74 39.8246 61.74 37.7874C61.74 35.7435 63.0402 34.2598 64.8316 34.2598C66.6229 34.2598 67.9231 35.7435 67.9231 37.7874C67.9231 39.8247 66.1525 41.8169 64.8316 41.8169ZM64.8316 34.9468C63.4381 34.9468 62.4271 36.1413 62.4271 37.7874C62.4271 39.5828 64.0399 41.1299 64.8316 41.1299C65.6232 41.1299 67.236 39.5828 67.236 37.7874C67.2361 36.1414 66.2251 34.9468 64.8316 34.9468Z" fill="#6C63FF"/>
<path d="M69.6409 45.939H60.0227C59.9776 45.939 59.9329 45.9301 59.8912 45.9129C59.8495 45.8956 59.8117 45.8703 59.7798 45.8384C59.7479 45.8065 59.7226 45.7686 59.7053 45.7269C59.688 45.6853 59.6792 45.6406 59.6792 45.5955V44.1819C59.6792 43.1869 60.3126 42.8665 60.962 42.6237C61.7504 42.3298 62.6286 41.8592 62.7748 41.6546C62.7879 41.574 62.8292 41.5006 62.8914 41.4476C62.9536 41.3946 63.0326 41.3655 63.1143 41.3654C63.1594 41.3654 63.2041 41.3743 63.2458 41.3915C63.2875 41.4088 63.3253 41.4341 63.3572 41.466C63.3891 41.4979 63.4144 41.5358 63.4317 41.5775C63.4489 41.6191 63.4578 41.6638 63.4578 41.7089C63.4578 42.3571 61.8805 43.0145 61.2022 43.2674C60.5307 43.5187 60.3663 43.6981 60.3663 44.1819V45.252H69.2974V44.1819C69.2974 43.6985 69.133 43.519 68.4608 43.2671C67.7831 43.0145 66.2059 42.3563 66.2059 41.7089C66.2059 41.6638 66.2147 41.6191 66.232 41.5775C66.2492 41.5358 66.2745 41.4979 66.3064 41.466C66.3383 41.4341 66.3762 41.4088 66.4179 41.3915C66.4596 41.3743 66.5043 41.3654 66.5494 41.3654C66.6311 41.3655 66.7101 41.3946 66.7723 41.4475C66.8346 41.5005 66.8758 41.574 66.8888 41.6546C67.0351 41.8586 67.9133 42.3296 68.7016 42.6237C69.3511 42.8669 69.9845 43.1877 69.9845 44.1819V45.5955C69.9845 45.6406 69.9756 45.6853 69.9583 45.7269C69.9411 45.7686 69.9157 45.8065 69.8838 45.8384C69.8519 45.8703 69.8141 45.8956 69.7724 45.9128C69.7307 45.9301 69.686 45.939 69.6409 45.939Z" fill="#6C63FF"/>
<path d="M63.1141 42.0524C63.069 42.0525 63.0244 42.0436 62.9827 42.0263C62.941 42.0091 62.9031 41.9838 62.8712 41.9519C62.8393 41.92 62.814 41.8821 62.7968 41.8404C62.7795 41.7987 62.7706 41.7541 62.7707 41.7089V40.6201C62.7707 40.4302 62.9243 40.2766 63.1141 40.2766C63.304 40.2766 63.4576 40.4302 63.4576 40.6201V41.7089C63.4577 41.7541 63.4488 41.7987 63.4315 41.8404C63.4143 41.8821 63.389 41.92 63.3571 41.9519C63.3252 41.9838 63.2873 42.0091 63.2456 42.0263C63.2039 42.0436 63.1593 42.0525 63.1141 42.0524ZM66.5492 42.0524C66.5041 42.0525 66.4594 42.0436 66.4178 42.0264C66.3761 42.0091 66.3382 41.9838 66.3063 41.9519C66.2744 41.92 66.2491 41.8821 66.2318 41.8404C66.2146 41.7987 66.2057 41.7541 66.2057 41.7089V40.6201C66.2057 40.575 66.2146 40.5303 66.2318 40.4886C66.2491 40.4469 66.2744 40.4091 66.3063 40.3772C66.3382 40.3453 66.3761 40.32 66.4178 40.3027C66.4594 40.2855 66.5041 40.2766 66.5492 40.2766C66.5944 40.2766 66.639 40.2855 66.6807 40.3027C66.7224 40.32 66.7603 40.3453 66.7922 40.3772C66.8241 40.4091 66.8494 40.4469 66.8667 40.4886C66.8839 40.5303 66.8928 40.575 66.8927 40.6201V41.7089C66.8928 41.7541 66.8839 41.7987 66.8666 41.8404C66.8494 41.8821 66.8241 41.92 66.7922 41.9519C66.7603 41.9838 66.7224 42.0091 66.6807 42.0263C66.639 42.0436 66.5944 42.0525 66.5492 42.0524ZM31.1683 41.8169C29.8469 41.8169 28.0767 39.8246 28.0767 37.7874C28.0767 35.7435 29.3769 34.2598 31.1683 34.2598C32.9595 34.2598 34.2598 35.7435 34.2598 37.7874C34.2598 39.8247 32.4896 41.8169 31.1683 41.8169ZM31.1683 34.9468C29.7751 34.9468 28.7637 36.1413 28.7637 37.7874C28.7637 39.5828 30.3766 41.1299 31.1683 41.1299C31.9599 41.1299 33.5728 39.5828 33.5728 37.7874C33.5728 36.1414 32.5614 34.9468 31.1683 34.9468Z" fill="#6C63FF"/>
<path d="M35.9772 45.939H26.3591C26.314 45.939 26.2693 45.9301 26.2276 45.9129C26.1859 45.8956 26.1481 45.8703 26.1162 45.8384C26.0843 45.8065 26.059 45.7687 26.0417 45.727C26.0245 45.6853 26.0156 45.6406 26.0156 45.5955V44.1819C26.0156 43.1869 26.6492 42.8665 27.2981 42.6238C28.0867 42.3298 28.9649 41.8593 29.1115 41.6546C29.1245 41.574 29.1657 41.5006 29.2279 41.4476C29.29 41.3946 29.369 41.3655 29.4507 41.3655C29.4958 41.3654 29.5405 41.3743 29.5822 41.3916C29.6239 41.4088 29.6618 41.4341 29.6937 41.466C29.7256 41.4979 29.7509 41.5358 29.7681 41.5775C29.7854 41.6192 29.7942 41.6638 29.7942 41.7089C29.7942 42.3571 28.2166 43.0145 27.5384 43.2674C26.8668 43.5187 26.7027 43.6981 26.7027 44.1819V45.252H35.6338V44.1819C35.6338 43.6985 35.4698 43.519 34.7976 43.2671C34.1196 43.0145 32.5423 42.3563 32.5423 41.7089C32.5348 41.6621 32.537 41.6142 32.5489 41.5683C32.5607 41.5224 32.582 41.4794 32.6113 41.4421C32.6406 41.4048 32.6773 41.374 32.7191 41.3515C32.7609 41.3291 32.8069 41.3156 32.8542 41.3118C32.9015 41.3081 32.949 41.3142 32.9938 41.3297C33.0387 41.3452 33.0798 41.3698 33.1146 41.402C33.1495 41.4343 33.1772 41.4733 33.1962 41.5168C33.2152 41.5603 33.225 41.6072 33.2249 41.6546C33.3715 41.8586 34.2495 42.3296 35.0381 42.6238C35.6875 42.867 36.3209 43.1877 36.3209 44.1819V45.5955C36.3209 45.6406 36.312 45.6853 36.2947 45.7269C36.2774 45.7686 36.2521 45.8065 36.2202 45.8384C36.1883 45.8703 36.1504 45.8956 36.1087 45.9128C36.067 45.9301 36.0224 45.939 35.9772 45.939Z" fill="#6C63FF"/>
<path d="M29.4507 42.0525C29.4056 42.0525 29.3609 42.0436 29.3192 42.0264C29.2775 42.0091 29.2396 41.9838 29.2077 41.9519C29.1758 41.92 29.1505 41.8821 29.1333 41.8404C29.116 41.7987 29.1072 41.7541 29.1072 41.709V40.6201C29.1072 40.4302 29.2608 40.2766 29.4507 40.2766C29.6405 40.2766 29.7942 40.4302 29.7942 40.6201V41.709C29.7942 41.7541 29.7853 41.7987 29.7681 41.8404C29.7508 41.8821 29.7255 41.92 29.6936 41.9519C29.6617 41.9838 29.6238 42.0091 29.5821 42.0264C29.5405 42.0436 29.4958 42.0525 29.4507 42.0525ZM32.8857 42.0525C32.8406 42.0525 32.7959 42.0436 32.7542 42.0264C32.7125 42.0091 32.6746 41.9838 32.6427 41.9519C32.6108 41.92 32.5855 41.8821 32.5683 41.8404C32.551 41.7987 32.5422 41.7541 32.5422 41.709V40.6201C32.5422 40.575 32.551 40.5303 32.5683 40.4886C32.5855 40.447 32.6108 40.4091 32.6427 40.3772C32.6746 40.3453 32.7125 40.32 32.7542 40.3027C32.7959 40.2855 32.8406 40.2766 32.8857 40.2766C32.9308 40.2766 32.9755 40.2855 33.0172 40.3027C33.0589 40.32 33.0967 40.3453 33.1286 40.3772C33.1605 40.4091 33.1858 40.447 33.2031 40.4886C33.2203 40.5303 33.2292 40.575 33.2292 40.6201V41.709C33.2292 41.7541 33.2203 41.7988 33.2031 41.8404C33.1858 41.8821 33.1605 41.92 33.1286 41.9519C33.0967 41.9838 33.0589 42.0091 33.0172 42.0264C32.9755 42.0436 32.9308 42.0525 32.8857 42.0525ZM47.9999 33.5728C46.6786 33.5728 44.9083 31.5805 44.9083 29.5433C44.9083 27.4994 46.2086 26.0157 47.9999 26.0157C49.7913 26.0157 51.0914 27.4994 51.0914 29.5433C51.0914 31.5805 49.321 33.5728 47.9999 33.5728ZM47.9999 26.7027C46.6068 26.7027 45.5954 27.8973 45.5954 29.5434C45.5954 31.3388 47.2083 32.8858 47.9999 32.8858C48.7916 32.8858 50.4044 31.3388 50.4044 29.5434C50.4044 27.8973 49.3934 26.7027 47.9999 26.7027Z" fill="#6C63FF"/>
<path d="M52.809 37.6948H43.1909C43.1458 37.6948 43.1011 37.686 43.0594 37.6687C43.0177 37.6515 42.9799 37.6262 42.948 37.5943C42.9161 37.5624 42.8908 37.5245 42.8735 37.4828C42.8563 37.4411 42.8474 37.3964 42.8474 37.3513V35.9377C42.8474 34.9428 43.4811 34.6225 44.1299 34.3796C44.9185 34.0857 45.7967 33.6151 45.9433 33.4105C45.9572 33.3254 46.0025 33.2486 46.0704 33.1953C46.1383 33.1421 46.2237 33.1164 46.3097 33.1232C46.3956 33.1301 46.4759 33.169 46.5345 33.2323C46.5931 33.2955 46.6258 33.3786 46.626 33.4648C46.626 34.1129 45.0484 34.7704 44.3701 35.0233C43.6985 35.2746 43.5345 35.4541 43.5345 35.9377V37.0078H52.4656V35.9377C52.4656 35.4543 52.3012 35.2749 51.629 35.0229C50.9514 34.7704 49.3741 34.1122 49.3741 33.4648C49.3741 33.4197 49.383 33.375 49.4002 33.3333C49.4175 33.2916 49.4428 33.2538 49.4747 33.2219C49.5066 33.19 49.5444 33.1647 49.5861 33.1474C49.6278 33.1302 49.6725 33.1213 49.7176 33.1213C49.7993 33.1213 49.8784 33.1504 49.9406 33.2034C50.0028 33.2564 50.0441 33.3298 50.0571 33.4105C50.2033 33.6144 51.0815 34.0854 51.8699 34.3796C52.5193 34.6228 53.1527 34.9435 53.1527 35.9377V37.3513C53.1527 37.3964 53.1438 37.4411 53.1265 37.4828C53.1093 37.5245 53.0839 37.5624 53.052 37.5943C53.0201 37.6262 52.9822 37.6515 52.9405 37.6687C52.8988 37.686 52.8542 37.6948 52.809 37.6948Z" fill="#6C63FF"/>
<path d="M46.2825 33.8083C46.2373 33.8083 46.1927 33.7994 46.151 33.7822C46.1093 33.7649 46.0714 33.7396 46.0395 33.7077C46.0076 33.6758 45.9823 33.6379 45.965 33.5962C45.9478 33.5545 45.9389 33.5098 45.939 33.4647V32.3759C45.9389 32.3308 45.9478 32.2861 45.9651 32.2444C45.9823 32.2027 46.0076 32.1648 46.0395 32.1329C46.0714 32.101 46.1093 32.0757 46.151 32.0585C46.1927 32.0412 46.2373 32.0324 46.2825 32.0324C46.3276 32.0323 46.3723 32.0412 46.414 32.0585C46.4557 32.0757 46.4935 32.101 46.5254 32.1329C46.5574 32.1648 46.5827 32.2027 46.5999 32.2444C46.6172 32.2861 46.6261 32.3307 46.626 32.3759V33.4647C46.6261 33.5098 46.6172 33.5545 46.5999 33.5962C46.5827 33.6379 46.5574 33.6758 46.5255 33.7077C46.4935 33.7396 46.4557 33.7649 46.414 33.7822C46.3723 33.7994 46.3276 33.8083 46.2825 33.8083ZM49.7175 33.8083C49.6723 33.8083 49.6277 33.7994 49.586 33.7822C49.5443 33.7649 49.5064 33.7396 49.4745 33.7077C49.4426 33.6758 49.4173 33.6379 49.4 33.5962C49.3828 33.5545 49.3739 33.5098 49.374 33.4647V32.3759C49.374 32.186 49.5276 32.0324 49.7175 32.0324C49.9073 32.0324 50.061 32.186 50.061 32.3759V33.4647C50.061 33.5098 50.0521 33.5545 50.0349 33.5962C50.0176 33.6379 49.9923 33.6758 49.9604 33.7077C49.9285 33.7396 49.8907 33.7649 49.849 33.7822C49.8073 33.7994 49.7626 33.8083 49.7175 33.8083Z" fill="#6C63FF"/>
<path d="M42.8457 61.7919C42.7878 61.7917 42.7308 61.7769 42.68 61.7489C39.1813 59.8161 37.0078 56.1274 37.0078 52.1221C37.0078 46.0611 41.939 41.1299 48 41.1299C48.1898 41.1299 48.3435 41.2836 48.3435 41.4734C48.3435 41.6632 48.1898 41.8169 48 41.8169C42.3177 41.8169 37.6948 46.4397 37.6948 52.1221C37.6948 55.8771 39.7324 59.3357 43.0121 61.1478C43.0516 61.1695 43.0864 61.1988 43.1145 61.2341C43.1427 61.2693 43.1636 61.3097 43.1761 61.353C43.1885 61.3963 43.1924 61.4417 43.1873 61.4865C43.1823 61.5313 43.1684 61.5746 43.1466 61.6141C43.1171 61.668 43.0735 61.713 43.0206 61.7443C42.9676 61.7756 42.9072 61.792 42.8457 61.7919Z" fill="#6C63FF"/>
<path d="M53.154 61.7919C53.0925 61.792 53.0322 61.7755 52.9793 61.7442C52.9264 61.7129 52.8829 61.668 52.8534 61.6141C52.8316 61.5746 52.8178 61.5313 52.8127 61.4865C52.8077 61.4418 52.8115 61.3964 52.8239 61.3531C52.8364 61.3098 52.8573 61.2694 52.8853 61.2342C52.9134 61.1989 52.9482 61.1696 52.9876 61.1478C56.2677 59.3357 58.3052 55.8778 58.3052 52.1221C58.3052 46.4398 53.6827 41.8169 48.0001 41.8169C47.8102 41.8169 47.6565 41.6632 47.6565 41.4734C47.6565 41.2836 47.8102 41.1299 48.0001 41.1299C54.061 41.1299 58.9922 46.0611 58.9922 52.1221C58.9922 56.1274 56.8185 59.8161 53.3204 61.7489C53.2673 61.7778 53.2103 61.7919 53.154 61.7919ZM42.8474 67.2363C42.8023 67.2363 42.7576 67.2274 42.7159 67.2102C42.6742 67.1929 42.6363 67.1676 42.6044 67.1357C42.5725 67.1038 42.5472 67.066 42.53 67.0243C42.5127 66.9826 42.5039 66.9379 42.5039 66.8928V61.4484C42.5039 61.2585 42.6576 61.1048 42.8474 61.1048C43.0372 61.1048 43.1909 61.2585 43.1909 61.4484V66.8928C43.1909 66.9379 43.1821 66.9826 43.1648 67.0243C43.1476 67.066 43.1223 67.1039 43.0904 67.1358C43.0585 67.1677 43.0206 67.193 42.9789 67.2102C42.9372 67.2275 42.8925 67.2363 42.8474 67.2363Z" fill="#6C63FF"/>
<path d="M53.1526 67.2362C53.1075 67.2363 53.0628 67.2274 53.0211 67.2102C52.9794 67.1929 52.9415 67.1676 52.9096 67.1357C52.8777 67.1038 52.8524 67.0659 52.8352 67.0242C52.8179 66.9826 52.809 66.9379 52.8091 66.8928V61.4564C52.809 61.4113 52.8179 61.3666 52.8352 61.3249C52.8524 61.2832 52.8777 61.2454 52.9096 61.2134C52.9415 61.1815 52.9794 61.1562 53.0211 61.139C53.0628 61.1217 53.1075 61.1128 53.1526 61.1129C53.1977 61.1128 53.2424 61.1217 53.2841 61.139C53.3258 61.1562 53.3636 61.1815 53.3955 61.2134C53.4274 61.2454 53.4527 61.2832 53.47 61.3249C53.4872 61.3666 53.4961 61.4113 53.4961 61.4564V66.8928C53.4961 66.9379 53.4872 66.9826 53.47 67.0242C53.4527 67.0659 53.4274 67.1038 53.3955 67.1357C53.3636 67.1676 53.3258 67.1929 53.2841 67.2102C53.2424 67.2274 53.1977 67.2363 53.1526 67.2362Z" fill="#6C63FF"/>
<path d="M53.1525 63.1143H42.8473C42.8022 63.1143 42.7575 63.1054 42.7158 63.0881C42.6741 63.0709 42.6362 63.0456 42.6043 63.0137C42.5724 62.9818 42.5471 62.9439 42.5299 62.9022C42.5126 62.8605 42.5038 62.8158 42.5038 62.7707C42.5038 62.7256 42.5126 62.6809 42.5299 62.6392C42.5471 62.5975 42.5724 62.5596 42.6043 62.5277C42.6362 62.4958 42.6741 62.4705 42.7158 62.4533C42.7575 62.436 42.8022 62.4272 42.8473 62.4272H53.1525C53.1976 62.4272 53.2423 62.436 53.284 62.4533C53.3256 62.4705 53.3635 62.4958 53.3954 62.5277C53.4273 62.5596 53.4526 62.5975 53.4699 62.6392C53.4871 62.6809 53.496 62.7256 53.496 62.7707C53.496 62.8158 53.4871 62.8605 53.4699 62.9022C53.4526 62.9439 53.4273 62.9818 53.3954 63.0137C53.3635 63.0456 53.3257 63.0709 53.284 63.0881C53.2423 63.1054 53.1976 63.1143 53.1525 63.1143ZM51.7784 68.6103H44.2213C44.1762 68.6103 44.1316 68.6014 44.0899 68.5842C44.0482 68.5669 44.0104 68.5416 43.9785 68.5097L42.6044 67.1356C42.5725 67.1037 42.5472 67.0659 42.53 67.0242C42.5127 66.9825 42.5038 66.9379 42.5038 66.8928C42.5038 66.8477 42.5127 66.803 42.53 66.7613C42.5472 66.7196 42.5725 66.6818 42.6044 66.6499C42.6363 66.618 42.6742 66.5927 42.7158 66.5754C42.7575 66.5582 42.8022 66.5493 42.8473 66.5493C42.8924 66.5493 42.937 66.5582 42.9787 66.5754C43.0204 66.5927 43.0582 66.618 43.0901 66.6499L44.3635 67.9232H51.6361L52.9094 66.6499C53.0437 66.5157 53.261 66.5157 53.3952 66.6499C53.5293 66.7841 53.5294 67.0015 53.3952 67.1356L52.0211 68.5097C51.9893 68.5416 51.9514 68.5669 51.9098 68.5842C51.8681 68.6014 51.8235 68.6103 51.7784 68.6103ZM42.16 65.1752C42.0707 65.1751 41.9849 65.1402 41.9209 65.0779C41.8569 65.0156 41.8197 64.9309 41.8172 64.8416C41.8146 64.7523 41.8469 64.6656 41.9072 64.5997C41.9675 64.5339 42.0511 64.4941 42.1402 64.4888L53.8194 63.8018C54.0033 63.7918 54.1709 63.9353 54.1824 64.1245C54.1876 64.2154 54.1566 64.3047 54.0961 64.3728C54.0356 64.4408 53.9506 64.4821 53.8597 64.4875L42.1805 65.1745C42.1737 65.1752 42.1667 65.1752 42.16 65.1752ZM42.16 66.5493C42.0701 66.55 41.9835 66.5155 41.9188 66.4531C41.8541 66.3908 41.8164 66.3056 41.8139 66.2158C41.8113 66.1259 41.844 66.0387 41.905 65.9727C41.966 65.9067 42.0504 65.8673 42.1402 65.8629L53.8194 65.1759C54.0033 65.1671 54.1709 65.3094 54.1824 65.4986C54.1876 65.5895 54.1566 65.6788 54.0961 65.7469C54.0356 65.8149 53.9506 65.8562 53.8597 65.8616L42.1805 66.5486C42.1737 66.5493 42.1667 66.5493 42.16 66.5493Z" fill="#6C63FF"/>
<path d="M48.0001 69.9843C46.0924 69.9843 45.3202 68.4842 45.2883 68.4204C45.2681 68.38 45.256 68.3361 45.2528 68.2911C45.2496 68.2461 45.2553 68.2009 45.2696 68.1581C45.2838 68.1153 45.3064 68.0757 45.336 68.0416C45.3656 68.0076 45.4016 67.9797 45.4419 67.9595C45.6124 67.8763 45.817 67.9433 45.9021 68.1118C45.9289 68.164 46.529 69.2973 48.0001 69.2973C49.4881 69.2973 50.0913 68.1246 50.0973 68.1132C50.1384 68.032 50.2099 67.9703 50.2962 67.9415C50.3825 67.9127 50.4767 67.9192 50.5582 67.9595C50.6397 68.0003 50.7016 68.0717 50.7304 68.1582C50.7592 68.2446 50.7526 68.3389 50.7119 68.4204C50.6797 68.4842 49.9081 69.9843 48.0001 69.9843ZM46.2826 61.7402C46.2375 61.7402 46.1928 61.7314 46.1511 61.7141C46.1094 61.6969 46.0715 61.6716 46.0396 61.6397C46.0077 61.6078 45.9824 61.5699 45.9652 61.5282C45.9479 61.4865 45.9391 61.4418 45.9391 61.3967V58.6486C45.9391 58.6035 45.9479 58.5588 45.9652 58.5171C45.9824 58.4754 46.0077 58.4376 46.0396 58.4057C46.0715 58.3738 46.1094 58.3485 46.1511 58.3312C46.1928 58.314 46.2375 58.3051 46.2826 58.3051C46.3277 58.3051 46.3724 58.3139 46.4141 58.3312C46.4558 58.3484 46.4937 58.3737 46.5256 58.4056C46.5575 58.4375 46.5828 58.4754 46.6 58.5171C46.6173 58.5588 46.6262 58.6035 46.6262 58.6486V61.3967C46.6262 61.4418 46.6173 61.4865 46.6 61.5282C46.5828 61.5699 46.5575 61.6078 46.5255 61.6397C46.4936 61.6716 46.4558 61.6969 46.4141 61.7141C46.3724 61.7314 46.3277 61.7402 46.2826 61.7402ZM49.7176 61.7402C49.6725 61.7402 49.6278 61.7314 49.5861 61.7141C49.5444 61.6969 49.5066 61.6716 49.4747 61.6397C49.4428 61.6078 49.4175 61.5699 49.4002 61.5282C49.3829 61.4865 49.3741 61.4418 49.3741 61.3967V58.6486C49.3741 58.4588 49.5278 58.3051 49.7176 58.3051C49.9074 58.3051 50.0611 58.4588 50.0611 58.6486V61.3967C50.0611 61.4418 50.0522 61.4865 50.035 61.5282C50.0177 61.5699 49.9924 61.6078 49.9605 61.6397C49.9286 61.6716 49.8907 61.6969 49.8491 61.7141C49.8074 61.7314 49.7627 61.7402 49.7176 61.7402Z" fill="#6C63FF"/>
<path d="M46.2828 58.9921C46.2312 58.9921 46.1803 58.9806 46.1338 58.9583C46.0873 58.936 46.0464 58.9036 46.0141 58.8634C45.9573 58.7921 45.931 58.7013 45.9411 58.6107C45.9511 58.5202 45.9967 58.4373 46.0678 58.3803L47.7854 57.0062C47.8566 56.9494 47.9475 56.9231 48.038 56.9332C48.1286 56.9433 48.2115 56.9889 48.2684 57.06C48.3253 57.1312 48.3516 57.222 48.3416 57.3126C48.3315 57.4032 48.2859 57.486 48.2148 57.543L46.4973 58.917C46.4365 58.9658 46.3608 58.9923 46.2828 58.9921Z" fill="#6C63FF"/>
<path d="M49.7175 58.9921C49.6417 58.9921 49.5665 58.968 49.5028 58.917L47.7852 57.543C47.7142 57.486 47.6686 57.4031 47.6586 57.3126C47.6485 57.222 47.6747 57.1312 47.7315 57.06C47.7886 56.989 47.8715 56.9435 47.962 56.9335C48.0525 56.9234 48.1433 56.9496 48.2146 57.0062L49.9321 58.3803C50.0032 58.4373 50.0487 58.5202 50.0588 58.6107C50.0689 58.7013 50.0426 58.7921 49.9858 58.8634C49.9536 58.9036 49.9127 58.936 49.8663 58.9583C49.8198 58.9806 49.769 58.9921 49.7175 58.9921ZM46.2825 57.6181C46.2373 57.6182 46.1927 57.6093 46.151 57.592C46.1093 57.5748 46.0714 57.5495 46.0395 57.5176C46.0076 57.4857 45.9823 57.4478 45.965 57.4061C45.9478 57.3644 45.9389 57.3197 45.939 57.2746V52.4656C45.9389 52.4204 45.9478 52.3758 45.9651 52.3341C45.9823 52.2924 46.0076 52.2545 46.0395 52.2226C46.0714 52.1907 46.1093 52.1654 46.151 52.1482C46.1927 52.1309 46.2373 52.122 46.2825 52.1221C46.3276 52.122 46.3723 52.1309 46.414 52.1481C46.4557 52.1654 46.4935 52.1907 46.5254 52.2226C46.5574 52.2545 46.5827 52.2924 46.5999 52.3341C46.6172 52.3758 46.6261 52.4204 46.626 52.4656V57.2746C46.6261 57.3197 46.6172 57.3644 46.5999 57.4061C46.5827 57.4478 46.5574 57.4857 46.5254 57.5176C46.4935 57.5495 46.4557 57.5748 46.414 57.592C46.3723 57.6093 46.3276 57.6182 46.2825 57.6181Z" fill="#6C63FF"/>
<path d="M46.2824 52.8091C46.2373 52.8091 46.1926 52.8002 46.151 52.783C46.1093 52.7657 46.0714 52.7404 46.0395 52.7085C46.0076 52.6766 45.9823 52.6387 45.965 52.597C45.9478 52.5554 45.9389 52.5107 45.9389 52.4656C45.9389 51.8973 45.4767 51.4351 44.9085 51.4351C44.3402 51.4351 43.878 51.8973 43.878 52.4656C43.878 52.5107 43.8691 52.5554 43.8519 52.597C43.8346 52.6387 43.8093 52.6766 43.7774 52.7085C43.7455 52.7404 43.7077 52.7657 43.666 52.783C43.6243 52.8002 43.5796 52.8091 43.5345 52.8091C43.4894 52.8091 43.4447 52.8002 43.403 52.783C43.3613 52.7657 43.3234 52.7404 43.2915 52.7085C43.2596 52.6766 43.2343 52.6388 43.217 52.5971C43.1998 52.5554 43.1909 52.5107 43.1909 52.4656C43.1909 51.5183 43.9614 50.748 44.9085 50.748C45.8555 50.748 46.626 51.5183 46.626 52.4656C46.626 52.5107 46.6171 52.5554 46.5999 52.597C46.5826 52.6387 46.5573 52.6766 46.5254 52.7085C46.4935 52.7404 46.4556 52.7657 46.4139 52.783C46.3722 52.8002 46.3276 52.8091 46.2824 52.8091Z" fill="#6C63FF"/>
<path d="M44.9085 54.183C43.9614 54.183 43.1909 53.4129 43.1909 52.4656C43.1909 52.4204 43.1998 52.3758 43.217 52.3341C43.2343 52.2924 43.2596 52.2545 43.2915 52.2226C43.3234 52.1907 43.3613 52.1654 43.403 52.1481C43.4447 52.1309 43.4894 52.122 43.5345 52.1221C43.5796 52.122 43.6243 52.1309 43.666 52.1482C43.7077 52.1654 43.7455 52.1907 43.7774 52.2226C43.8093 52.2545 43.8346 52.2924 43.8519 52.3341C43.8691 52.3758 43.878 52.4204 43.878 52.4656C43.878 53.0338 44.3402 53.496 44.9085 53.496C44.9536 53.496 44.9983 53.5049 45.0399 53.5221C45.0816 53.5394 45.1195 53.5647 45.1514 53.5966C45.1833 53.6285 45.2086 53.6664 45.2259 53.7081C45.2431 53.7497 45.252 53.7944 45.252 53.8395C45.252 53.8846 45.2431 53.9293 45.2259 53.971C45.2086 54.0127 45.1833 54.0506 45.1514 54.0825C45.1195 54.1144 45.0816 54.1397 45.04 54.1569C44.9983 54.1742 44.9536 54.1831 44.9085 54.183ZM49.7175 57.6181C49.6724 57.6182 49.6277 57.6093 49.586 57.592C49.5443 57.5748 49.5065 57.5495 49.4746 57.5176C49.4427 57.4857 49.4174 57.4478 49.4001 57.4061C49.3829 57.3644 49.374 57.3197 49.374 57.2746V52.4656C49.374 52.2757 49.5277 52.1221 49.7175 52.1221C49.9074 52.1221 50.061 52.2757 50.061 52.4656V57.2746C50.0611 57.3197 50.0522 57.3644 50.0349 57.4061C50.0177 57.4478 49.9924 57.4857 49.9605 57.5176C49.9286 57.5495 49.8907 57.5748 49.849 57.592C49.8073 57.6093 49.7626 57.6182 49.7175 57.6181Z" fill="#6C63FF"/>
<path d="M52.4655 52.8091C52.4204 52.8091 52.3757 52.8002 52.334 52.783C52.2924 52.7657 52.2545 52.7404 52.2226 52.7085C52.1907 52.6766 52.1654 52.6387 52.1481 52.5971C52.1309 52.5554 52.122 52.5107 52.122 52.4656C52.122 51.8973 51.6598 51.4351 51.0915 51.4351C50.5233 51.4351 50.061 51.8973 50.061 52.4656C50.061 52.6554 49.9073 52.8091 49.7175 52.8091C49.5277 52.8091 49.374 52.6554 49.374 52.4656C49.374 51.5183 50.1442 50.748 51.0915 50.748C52.0388 50.748 52.809 51.5183 52.809 52.4656C52.8091 52.5107 52.8002 52.5554 52.7829 52.597C52.7657 52.6387 52.7404 52.6766 52.7085 52.7085C52.6766 52.7404 52.6387 52.7657 52.597 52.783C52.5553 52.8002 52.5107 52.8091 52.4655 52.8091Z" fill="#6C63FF"/>
<path d="M51.0915 54.183C51.0464 54.1831 51.0017 54.1742 50.96 54.157C50.9184 54.1397 50.8805 54.1144 50.8486 54.0825C50.8167 54.0506 50.7914 54.0127 50.7741 53.971C50.7569 53.9293 50.748 53.8847 50.748 53.8395C50.748 53.7944 50.7569 53.7498 50.7741 53.7081C50.7914 53.6664 50.8167 53.6285 50.8486 53.5966C50.8805 53.5647 50.9184 53.5394 50.9601 53.5222C51.0017 53.5049 51.0464 53.496 51.0915 53.4961C51.6598 53.4961 52.1221 53.0338 52.1221 52.4656C52.1221 52.4205 52.1309 52.3758 52.1482 52.3341C52.1654 52.2924 52.1907 52.2545 52.2226 52.2226C52.2545 52.1907 52.2924 52.1654 52.3341 52.1482C52.3758 52.1309 52.4205 52.1221 52.4656 52.1221C52.5107 52.1221 52.5554 52.1309 52.5971 52.1482C52.6387 52.1654 52.6766 52.1907 52.7085 52.2226C52.7404 52.2545 52.7657 52.2924 52.783 52.3341C52.8002 52.3758 52.8091 52.4205 52.8091 52.4656C52.8091 53.4129 52.0388 54.183 51.0915 54.183ZM40.0994 52.4656C40.0542 52.4656 40.0096 52.4567 39.9679 52.4395C39.9262 52.4222 39.8883 52.3969 39.8564 52.365C39.8245 52.3331 39.7992 52.2952 39.782 52.2536C39.7647 52.2119 39.7558 52.1672 39.7559 52.1221C39.7559 47.5763 43.4542 43.8779 48 43.8779C48.0451 43.8779 48.0898 43.8868 48.1315 43.904C48.1732 43.9213 48.2111 43.9466 48.243 43.9785C48.2749 44.0104 48.3002 44.0483 48.3174 44.0899C48.3347 44.1316 48.3435 44.1763 48.3435 44.2214C48.3435 44.2665 48.3347 44.3112 48.3174 44.3529C48.3002 44.3946 48.2749 44.4325 48.243 44.4644C48.2111 44.4963 48.1732 44.5216 48.1315 44.5388C48.0898 44.5561 48.0451 44.5649 48 44.5649C43.833 44.5649 40.4428 47.955 40.4428 52.1221C40.4429 52.1672 40.434 52.2119 40.4167 52.2536C40.3995 52.2952 40.3742 52.3331 40.3423 52.365C40.3104 52.3969 40.2725 52.4222 40.2308 52.4395C40.1891 52.4567 40.1445 52.4656 40.0994 52.4656ZM48.3435 54.183H47.6564C47.6113 54.1831 47.5666 54.1742 47.525 54.157C47.4833 54.1397 47.4454 54.1144 47.4135 54.0825C47.3816 54.0506 47.3563 54.0127 47.339 53.971C47.3218 53.9293 47.3129 53.8847 47.3129 53.8395C47.3129 53.7944 47.3218 53.7498 47.339 53.7081C47.3563 53.6664 47.3816 53.6285 47.4135 53.5966C47.4454 53.5647 47.4833 53.5394 47.525 53.5222C47.5666 53.5049 47.6113 53.496 47.6564 53.4961H48.3435C48.3886 53.496 48.4333 53.5049 48.475 53.5222C48.5167 53.5394 48.5545 53.5647 48.5864 53.5966C48.6183 53.6285 48.6436 53.6664 48.6609 53.7081C48.6782 53.7498 48.687 53.7944 48.687 53.8395C48.687 53.8847 48.6782 53.9293 48.6609 53.971C48.6437 54.0127 48.6184 54.0506 48.5865 54.0825C48.5546 54.1144 48.5167 54.1397 48.475 54.157C48.4333 54.1742 48.3886 54.1831 48.3435 54.183Z" fill="#6C63FF"/>
<path d="M48.0001 40.4428C47.955 40.4429 47.9103 40.434 47.8686 40.4167C47.8269 40.3995 47.789 40.3742 47.7571 40.3423C47.7252 40.3104 47.6999 40.2725 47.6826 40.2308C47.6653 40.1891 47.6565 40.1444 47.6565 40.0993V38.7254C47.6565 38.6802 47.6653 38.6356 47.6826 38.5939C47.6999 38.5522 47.7252 38.5143 47.7571 38.4824C47.789 38.4505 47.8269 38.4252 47.8686 38.4079C47.9103 38.3907 47.955 38.3818 48.0001 38.3819C48.0452 38.3818 48.0899 38.3907 48.1315 38.408C48.1732 38.4252 48.2111 38.4505 48.243 38.4824C48.2749 38.5143 48.3002 38.5522 48.3175 38.5939C48.3347 38.6356 48.3436 38.6802 48.3436 38.7254V40.0993C48.3436 40.1444 48.3347 40.1891 48.3175 40.2308C48.3002 40.2725 48.2749 40.3104 48.243 40.3423C48.2111 40.3742 48.1733 40.3995 48.1316 40.4167C48.0899 40.434 48.0452 40.4429 48.0001 40.4428Z" fill="#6C63FF"/>
<path d="M64.8316 52.1221C64.7865 52.1221 64.7418 52.1133 64.7001 52.096C64.6584 52.0788 64.6205 52.0535 64.5886 52.0216C64.5567 51.9897 64.5314 51.9518 64.5141 51.9101C64.4969 51.8684 64.488 51.8237 64.488 51.7786V46.9695C64.488 46.9244 64.4969 46.8797 64.5141 46.838C64.5314 46.7963 64.5567 46.7585 64.5886 46.7266C64.6205 46.6947 64.6584 46.6694 64.7001 46.6521C64.7418 46.6349 64.7865 46.626 64.8316 46.626C64.8767 46.626 64.9214 46.6349 64.9631 46.6521C65.0048 46.6694 65.0426 46.6947 65.0745 46.7266C65.1064 46.7585 65.1317 46.7964 65.149 46.8381C65.1662 46.8797 65.1751 46.9244 65.175 46.9695V51.7786C65.1751 51.8237 65.1662 51.8684 65.149 51.9101C65.1317 51.9517 65.1064 51.9896 65.0745 52.0215C65.0426 52.0534 65.0048 52.0787 64.9631 52.096C64.9214 52.1132 64.8767 52.1221 64.8316 52.1221Z" fill="#6C63FF"/>
<path d="M64.8318 52.1221H60.0227C59.8329 52.1221 59.6792 51.9684 59.6792 51.7786C59.6792 51.5887 59.8329 51.4351 60.0227 51.4351H64.8318C65.0217 51.4351 65.1752 51.5887 65.1752 51.7786C65.1752 51.9684 65.0217 52.1221 64.8318 52.1221Z" fill="#6C63FF"/>
<path d="M31.1682 52.1221C31.1231 52.1221 31.0784 52.1132 31.0367 52.096C30.995 52.0787 30.9572 52.0534 30.9253 52.0215C30.8934 51.9896 30.8681 51.9518 30.8508 51.9101C30.8336 51.8684 30.8247 51.8237 30.8247 51.7786V46.9695C30.8247 46.9244 30.8335 46.8797 30.8508 46.838C30.868 46.7964 30.8933 46.7585 30.9252 46.7266C30.9571 46.6947 30.995 46.6694 31.0367 46.6521C31.0784 46.6349 31.1231 46.626 31.1682 46.626C31.2133 46.626 31.258 46.6349 31.2997 46.6521C31.3414 46.6694 31.3793 46.6947 31.4112 46.7266C31.4431 46.7585 31.4684 46.7964 31.4856 46.838C31.5029 46.8797 31.5117 46.9244 31.5117 46.9695V51.7786C31.5117 51.8237 31.5028 51.8684 31.4856 51.9101C31.4683 51.9518 31.443 51.9896 31.4111 52.0215C31.3792 52.0534 31.3414 52.0787 31.2997 52.096C31.258 52.1132 31.2133 52.1221 31.1682 52.1221Z" fill="#6C63FF"/>
<path d="M35.9773 52.1221H31.1682C30.9784 52.1221 30.8247 51.9684 30.8247 51.7786C30.8247 51.5887 30.9784 51.4351 31.1682 51.4351H35.9773C36.1671 51.4351 36.3208 51.5887 36.3208 51.7786C36.3208 51.9684 36.1671 52.1221 35.9773 52.1221Z" fill="#6C63FF"/>
</g>
<defs>
<clipPath id="clip0_251_5761">
<rect width="44" height="44" fill="white" transform="translate(26 26)"/>
</clipPath>
</defs>
</svg>
