<svg width="118" height="119" viewBox="0 0 118 119" fill="none" xmlns="http://www.w3.org/2000/svg">
<path d="M115.697 55.3745C117.121 57.8391 117.121 60.8757 115.698 63.3405L90.8004 106.469C89.3775 108.934 86.7478 110.452 83.9018 110.452L34.1029 110.454C31.2569 110.455 28.6271 108.936 27.204 106.472L2.30251 63.3457C0.8794 60.8811 0.879267 57.8445 2.30214 55.3797L27.1996 12.2515C28.6225 9.78671 31.2522 8.26827 34.0982 8.26814L83.8971 8.26583C86.743 8.26569 89.3729 9.78389 90.796 12.2485L115.697 55.3745Z" fill="white"/>
<g clip-path="url(#clip0_240_4654)">
<path d="M82.4524 50.9286C80.651 50.9286 78.2366 48.2118 78.2366 45.4339C78.2366 42.6467 80.0096 40.6235 82.4524 40.6235C84.895 40.6235 86.6681 42.6467 86.6681 45.4339C86.6681 48.212 84.2537 50.9286 82.4524 50.9286ZM82.4524 41.5603C80.5522 41.5603 79.1735 43.1892 79.1735 45.4339C79.1735 47.8821 81.3729 49.9918 82.4524 49.9918C83.5319 49.9918 85.7312 47.8821 85.7312 45.4339C85.7313 43.1893 84.3526 41.5603 82.4524 41.5603Z" fill="#6C63FF"/>
<path d="M89.0102 56.5496H75.8944C75.8329 56.5496 75.772 56.5375 75.7151 56.514C75.6583 56.4905 75.6066 56.456 75.5631 56.4125C75.5196 56.369 75.4851 56.3173 75.4616 56.2605C75.4381 56.2036 75.426 56.1427 75.426 56.0812V54.1536C75.426 52.7968 76.2897 52.3599 77.1753 52.0289C78.2504 51.6281 79.4479 50.9864 79.6474 50.7073C79.6651 50.5973 79.7214 50.4973 79.8063 50.425C79.8911 50.3528 79.9988 50.3131 80.1102 50.313C80.1718 50.313 80.2327 50.3251 80.2895 50.3486C80.3464 50.3721 80.398 50.4066 80.4415 50.4501C80.485 50.4936 80.5195 50.5453 80.5431 50.6021C80.5666 50.659 80.5787 50.7199 80.5786 50.7814C80.5786 51.6652 78.4278 52.5617 77.5028 52.9066C76.5871 53.2493 76.3629 53.4939 76.3629 54.1536V55.6128H88.5418V54.1536C88.5418 53.4944 88.3176 53.2497 87.4009 52.9061C86.4768 52.5617 84.3261 51.6642 84.3261 50.7814C84.326 50.7199 84.3381 50.6589 84.3616 50.6021C84.3851 50.5452 84.4196 50.4936 84.4632 50.4501C84.5067 50.4066 84.5583 50.3721 84.6152 50.3486C84.672 50.325 84.7329 50.313 84.7945 50.313C84.9059 50.313 85.0137 50.3527 85.0985 50.425C85.1833 50.4972 85.2396 50.5973 85.2574 50.7073C85.4568 50.9854 86.6543 51.6277 87.7293 52.0289C88.615 52.3605 89.4787 52.7978 89.4787 54.1536V56.0812C89.4787 56.1427 89.4666 56.2036 89.443 56.2605C89.4195 56.3173 89.385 56.369 89.3414 56.4125C89.2979 56.456 89.2463 56.4905 89.1894 56.514C89.1326 56.5375 89.0717 56.5496 89.0102 56.5496Z" fill="#6C63FF"/>
<path d="M80.1102 51.2498C80.0487 51.2498 79.9877 51.2377 79.9309 51.2142C79.8741 51.1907 79.8224 51.1562 79.7789 51.1127C79.7354 51.0692 79.7009 51.0175 79.6774 50.9607C79.6538 50.9038 79.6418 50.8429 79.6418 50.7814V49.2966C79.6418 49.0377 79.8513 48.8282 80.1102 48.8282C80.369 48.8282 80.5786 49.0377 80.5786 49.2966V50.7814C80.5786 50.8429 80.5665 50.9038 80.543 50.9607C80.5195 51.0175 80.485 51.0692 80.4415 51.1127C80.398 51.1562 80.3463 51.1907 80.2895 51.2142C80.2326 51.2377 80.1717 51.2498 80.1102 51.2498ZM84.7944 51.2498C84.7329 51.2498 84.6719 51.2378 84.6151 51.2142C84.5582 51.1907 84.5066 51.1562 84.4631 51.1127C84.4196 51.0692 84.3851 51.0176 84.3616 50.9607C84.338 50.9039 84.326 50.8429 84.326 50.7814V49.2966C84.326 49.2351 84.338 49.1742 84.3616 49.1173C84.3851 49.0605 84.4196 49.0088 84.4631 48.9653C84.5066 48.9218 84.5582 48.8873 84.6151 48.8638C84.6719 48.8403 84.7329 48.8282 84.7944 48.8282C84.8559 48.8282 84.9169 48.8403 84.9737 48.8638C85.0306 48.8873 85.0822 48.9218 85.1257 48.9653C85.1692 49.0088 85.2037 49.0605 85.2272 49.1173C85.2508 49.1742 85.2628 49.2351 85.2628 49.2966V50.7814C85.2628 50.8429 85.2507 50.9038 85.2272 50.9607C85.2037 51.0175 85.1692 51.0692 85.1257 51.1127C85.0822 51.1562 85.0305 51.1907 84.9737 51.2142C84.9168 51.2377 84.8559 51.2498 84.7944 51.2498ZM36.5476 50.9286C34.7457 50.9286 32.3318 48.2118 32.3318 45.4339C32.3318 42.6467 34.1048 40.6235 36.5476 40.6235C38.9903 40.6235 40.7633 42.6467 40.7633 45.4339C40.7633 48.212 38.3494 50.9286 36.5476 50.9286ZM36.5476 41.5603C34.6479 41.5603 33.2687 43.1892 33.2687 45.4339C33.2687 47.8821 35.4681 49.9918 36.5476 49.9918C37.6271 49.9918 39.8265 47.8821 39.8265 45.4339C39.8265 43.1893 38.4473 41.5603 36.5476 41.5603Z" fill="#6C63FF"/>
<path d="M43.1055 56.5496H29.9899C29.9284 56.5497 29.8674 56.5376 29.8106 56.514C29.7537 56.4905 29.7021 56.456 29.6586 56.4125C29.6151 56.369 29.5806 56.3174 29.557 56.2605C29.5335 56.2037 29.5214 56.1427 29.5215 56.0812V54.1536C29.5215 52.7968 30.3855 52.3599 31.2703 52.0289C32.3457 51.6281 33.5432 50.9864 33.7432 50.7073C33.7608 50.5974 33.8171 50.4973 33.9018 50.425C33.9866 50.3528 34.0943 50.313 34.2057 50.313C34.2672 50.313 34.3281 50.3251 34.385 50.3486C34.4418 50.3721 34.4935 50.4066 34.537 50.4501C34.5805 50.4936 34.615 50.5453 34.6385 50.6021C34.662 50.659 34.6741 50.7199 34.6741 50.7814C34.6741 51.6652 32.5228 52.5617 31.5979 52.9066C30.6821 53.2493 30.4584 53.4939 30.4584 54.1536V55.6128H42.6372V54.1536C42.6372 53.4944 42.4135 53.2497 41.4969 52.9061C40.5724 52.5617 38.4215 51.6642 38.4215 50.7814C38.4112 50.7175 38.4143 50.6522 38.4304 50.5896C38.4466 50.527 38.4756 50.4684 38.5156 50.4175C38.5555 50.3666 38.6056 50.3246 38.6626 50.294C38.7196 50.2635 38.7823 50.245 38.8468 50.2399C38.9113 50.2348 38.9761 50.243 39.0372 50.2642C39.0984 50.2854 39.1544 50.319 39.2019 50.3629C39.2494 50.4068 39.2873 50.4601 39.3132 50.5194C39.3391 50.5787 39.3524 50.6427 39.3523 50.7073C39.5523 50.9854 40.7495 51.6277 41.8249 52.0289C42.7105 52.3605 43.5741 52.7978 43.5741 54.1536V56.0812C43.5741 56.1427 43.562 56.2037 43.5384 56.2605C43.5149 56.3173 43.4803 56.369 43.4368 56.4125C43.3933 56.456 43.3417 56.4905 43.2848 56.514C43.228 56.5375 43.167 56.5496 43.1055 56.5496Z" fill="#6C63FF"/>
<path d="M34.2055 51.2498C34.1439 51.2498 34.083 51.2377 34.0262 51.2142C33.9693 51.1907 33.9177 51.1562 33.8742 51.1127C33.8307 51.0692 33.7962 51.0175 33.7727 50.9607C33.7491 50.9038 33.737 50.8429 33.7371 50.7814V49.2966C33.7371 49.0377 33.9466 48.8282 34.2055 48.8282C34.4643 48.8282 34.6739 49.0377 34.6739 49.2966V50.7814C34.6739 50.8429 34.6618 50.9038 34.6383 50.9607C34.6147 51.0175 34.5802 51.0692 34.5367 51.1127C34.4932 51.1562 34.4416 51.1907 34.3847 51.2142C34.3279 51.2377 34.267 51.2498 34.2055 51.2498ZM38.8896 51.2498C38.828 51.2498 38.7671 51.2377 38.7103 51.2142C38.6534 51.1907 38.6018 51.1562 38.5583 51.1127C38.5148 51.0692 38.4803 51.0175 38.4568 50.9607C38.4332 50.9038 38.4211 50.8429 38.4212 50.7814V49.2966C38.4211 49.2351 38.4332 49.1742 38.4567 49.1173C38.4802 49.0605 38.5147 49.0088 38.5582 48.9653C38.6018 48.9218 38.6534 48.8873 38.7103 48.8638C38.7671 48.8403 38.828 48.8282 38.8896 48.8282C38.9511 48.8282 39.012 48.8403 39.0689 48.8638C39.1257 48.8873 39.1774 48.9218 39.2209 48.9653C39.2644 49.0088 39.2989 49.0605 39.3224 49.1173C39.3459 49.1742 39.358 49.2351 39.358 49.2966V50.7814C39.358 50.8429 39.3459 50.9039 39.3224 50.9607C39.2989 51.0176 39.2644 51.0692 39.2209 51.1127C39.1774 51.1562 39.1257 51.1907 39.0689 51.2142C39.012 51.2378 38.9511 51.2498 38.8896 51.2498ZM59.4999 39.6867C57.698 39.6867 55.2841 36.9699 55.2841 34.1919C55.2841 31.4047 57.0571 29.3814 59.4999 29.3814C61.9427 29.3814 63.7156 31.4047 63.7156 34.1919C63.7156 36.9699 61.3013 39.6867 59.4999 39.6867ZM59.4999 30.3184C57.6002 30.3184 56.221 31.9473 56.221 34.192C56.221 36.6403 58.4204 38.7499 59.4999 38.7499C60.5794 38.7499 62.7787 36.6403 62.7787 34.192C62.7787 31.9473 61.4001 30.3184 59.4999 30.3184Z" fill="#6C63FF"/>
<path d="M66.0579 45.3076H52.9423C52.8808 45.3076 52.8198 45.2955 52.763 45.272C52.7061 45.2485 52.6545 45.2139 52.611 45.1704C52.5675 45.1269 52.533 45.0753 52.5095 45.0185C52.4859 44.9616 52.4738 44.9007 52.4739 44.8392V42.9116C52.4739 41.5548 53.338 41.118 54.2227 40.7868C55.2981 40.386 56.4956 39.7443 56.6956 39.4653C56.7145 39.3492 56.7763 39.2445 56.8689 39.1719C56.9614 39.0994 57.0779 39.0642 57.1951 39.0736C57.3124 39.0829 57.4218 39.136 57.5017 39.2223C57.5816 39.3086 57.6262 39.4218 57.6265 39.5394C57.6265 40.4232 55.4752 41.3197 54.5502 41.6646C53.6344 42.0072 53.4108 42.252 53.4108 42.9116V44.3708H65.5896V42.9116C65.5896 42.2524 65.3654 42.0077 64.4488 41.6641C63.5248 41.3197 61.3739 40.4221 61.3739 39.5394C61.3739 39.4778 61.386 39.4169 61.4095 39.3601C61.433 39.3032 61.4675 39.2516 61.511 39.2081C61.5545 39.1646 61.6062 39.1301 61.663 39.1066C61.7199 39.083 61.7808 39.0709 61.8423 39.071C61.9537 39.071 62.0615 39.1107 62.1464 39.1829C62.2312 39.2552 62.2875 39.3553 62.3052 39.4653C62.5047 39.7434 63.7022 40.3857 64.7773 40.7868C65.6629 41.1185 66.5265 41.5558 66.5265 42.9116V44.8392C66.5265 44.9007 66.5144 44.9616 66.4909 45.0185C66.4673 45.0753 66.4328 45.127 66.3893 45.1705C66.3457 45.214 66.2941 45.2485 66.2372 45.272C66.1804 45.2955 66.1194 45.3076 66.0579 45.3076Z" fill="#6C63FF"/>
<path d="M57.1579 40.0078C57.0963 40.0078 57.0354 39.9957 56.9785 39.9722C56.9217 39.9486 56.87 39.9141 56.8265 39.8706C56.783 39.8271 56.7485 39.7754 56.725 39.7186C56.7015 39.6617 56.6894 39.6008 56.6895 39.5393V38.0545C56.6894 37.993 56.7015 37.932 56.725 37.8752C56.7486 37.8184 56.7831 37.7667 56.8266 37.7232C56.8701 37.6797 56.9217 37.6452 56.9786 37.6217C57.0354 37.5982 57.0963 37.5861 57.1579 37.5861C57.2194 37.586 57.2803 37.5981 57.3372 37.6216C57.394 37.6452 57.4457 37.6797 57.4892 37.7232C57.5327 37.7667 57.5672 37.8183 57.5908 37.8752C57.6143 37.932 57.6264 37.993 57.6264 38.0545V39.5393C57.6264 39.6008 57.6143 39.6617 57.5908 39.7186C57.5672 39.7754 57.5327 39.8271 57.4892 39.8706C57.4457 39.9141 57.394 39.9486 57.3372 39.9722C57.2803 39.9957 57.2194 40.0078 57.1579 40.0078ZM61.842 40.0078C61.7804 40.0078 61.7195 39.9957 61.6626 39.9722C61.6058 39.9486 61.5541 39.9141 61.5106 39.8706C61.4671 39.8271 61.4326 39.7754 61.4091 39.7186C61.3856 39.6617 61.3735 39.6008 61.3736 39.5393V38.0545C61.3736 37.7956 61.5831 37.5861 61.842 37.5861C62.1008 37.5861 62.3104 37.7956 62.3104 38.0545V39.5393C62.3104 39.6008 62.2983 39.6617 62.2748 39.7186C62.2513 39.7754 62.2168 39.8271 62.1733 39.8706C62.1298 39.9141 62.0781 39.9486 62.0213 39.9722C61.9644 39.9957 61.9035 40.0078 61.842 40.0078Z" fill="#6C63FF"/>
<path d="M52.4715 78.1672C52.3925 78.167 52.3148 78.1468 52.2456 78.1086C47.4745 75.4729 44.5107 70.4429 44.5107 64.9811C44.5107 56.7161 51.2351 49.9918 59.5001 49.9918C59.7589 49.9918 59.9685 50.2013 59.9685 50.4602C59.9685 50.7191 59.7589 50.9286 59.5001 50.9286C51.7515 50.9286 45.4475 57.2325 45.4475 64.9811C45.4475 70.1016 48.2261 74.8178 52.6984 77.2889C52.7522 77.3185 52.7997 77.3585 52.8381 77.4065C52.8764 77.4546 52.9049 77.5097 52.922 77.5687C52.939 77.6278 52.9442 77.6897 52.9373 77.7507C52.9304 77.8118 52.9116 77.8709 52.8818 77.9247C52.8415 77.9983 52.7822 78.0597 52.71 78.1023C52.6378 78.145 52.5554 78.1674 52.4715 78.1672Z" fill="#6C63FF"/>
<path d="M66.5281 78.1672C66.4443 78.1673 66.362 78.1449 66.2899 78.1022C66.2177 78.0596 66.1585 77.9982 66.1183 77.9247C66.0885 77.871 66.0696 77.8119 66.0627 77.7508C66.0558 77.6898 66.061 77.6279 66.078 77.5689C66.095 77.5098 66.1235 77.4547 66.1617 77.4067C66.2 77.3586 66.2474 77.3186 66.3012 77.2889C70.774 74.8178 73.5525 70.1026 73.5525 64.9811C73.5525 57.2326 67.249 50.9286 59.5001 50.9286C59.2411 50.9286 59.0316 50.7191 59.0316 50.4602C59.0316 50.2013 59.2411 49.9918 59.5001 49.9918C67.765 49.9918 74.4893 56.7161 74.4893 64.9811C74.4893 70.4429 71.5252 75.4729 66.7551 78.1086C66.6826 78.148 66.6048 78.1672 66.5281 78.1672ZM52.4736 85.5914C52.4121 85.5914 52.3512 85.5793 52.2943 85.5558C52.2375 85.5323 52.1858 85.4978 52.1423 85.4543C52.0988 85.4108 52.0643 85.3591 52.0408 85.3023C52.0173 85.2454 52.0052 85.1845 52.0052 85.123V77.6988C52.0052 77.4398 52.2148 77.2303 52.4736 77.2303C52.7325 77.2303 52.942 77.4398 52.942 77.6988V85.123C52.9421 85.1845 52.93 85.2454 52.9065 85.3023C52.883 85.3591 52.8485 85.4108 52.805 85.4543C52.7615 85.4978 52.7098 85.5323 52.653 85.5558C52.5961 85.5793 52.5352 85.5914 52.4736 85.5914Z" fill="#6C63FF"/>
<path d="M66.5263 85.5913C66.4647 85.5914 66.4038 85.5793 66.347 85.5558C66.2901 85.5323 66.2385 85.4978 66.195 85.4543C66.1514 85.4108 66.1169 85.3591 66.0934 85.3023C66.0699 85.2454 66.0578 85.1845 66.0579 85.123V77.7098C66.0578 77.6483 66.0699 77.5873 66.0934 77.5305C66.1169 77.4736 66.1514 77.4219 66.1949 77.3784C66.2384 77.3349 66.2901 77.3004 66.3469 77.2769C66.4038 77.2533 66.4647 77.2412 66.5263 77.2413C66.5878 77.2412 66.6487 77.2533 66.7056 77.2769C66.7624 77.3004 66.8141 77.3349 66.8576 77.3784C66.9011 77.4219 66.9356 77.4736 66.9591 77.5305C66.9826 77.5873 66.9947 77.6483 66.9947 77.7098V85.123C66.9947 85.1845 66.9826 85.2454 66.9591 85.3023C66.9356 85.3591 66.9011 85.4108 66.8576 85.4543C66.8141 85.4978 66.7624 85.5323 66.7056 85.5558C66.6487 85.5793 66.5878 85.5914 66.5263 85.5913Z" fill="#6C63FF"/>
<path d="M66.5261 79.9705H52.4736C52.4121 79.9705 52.3511 79.9584 52.2943 79.9349C52.2374 79.9113 52.1858 79.8768 52.1423 79.8333C52.0988 79.7898 52.0643 79.7381 52.0408 79.6813C52.0172 79.6244 52.0052 79.5635 52.0052 79.5019C52.0052 79.4404 52.0173 79.3795 52.0408 79.3227C52.0643 79.2658 52.0988 79.2142 52.1423 79.1707C52.1858 79.1272 52.2375 79.0927 52.2943 79.0691C52.3512 79.0456 52.4121 79.0335 52.4736 79.0335H66.5261C66.5877 79.0335 66.6486 79.0456 66.7054 79.0691C66.7623 79.0927 66.8139 79.1272 66.8574 79.1707C66.9009 79.2142 66.9354 79.2658 66.959 79.3227C66.9825 79.3795 66.9946 79.4404 66.9945 79.5019C66.9946 79.5635 66.9825 79.6244 66.959 79.6813C66.9355 79.7381 66.901 79.7898 66.8575 79.8333C66.814 79.8768 66.7623 79.9113 66.7055 79.9349C66.6486 79.9584 66.5877 79.9705 66.5261 79.9705ZM64.6524 87.4651H54.3473C54.2858 87.4651 54.2249 87.4529 54.1681 87.4294C54.1113 87.4059 54.0596 87.3713 54.0161 87.3278L52.1424 85.4541C52.0989 85.4106 52.0644 85.359 52.0409 85.3022C52.0174 85.2454 52.0053 85.1845 52.0053 85.123C52.0053 85.0614 52.0174 85.0005 52.0409 84.9437C52.0644 84.8869 52.0989 84.8353 52.1424 84.7918C52.1859 84.7483 52.2376 84.7138 52.2944 84.6903C52.3512 84.6667 52.4121 84.6546 52.4736 84.6546C52.5351 84.6546 52.596 84.6667 52.6528 84.6903C52.7097 84.7138 52.7613 84.7483 52.8048 84.7918L54.5411 86.5281H64.4584L66.1947 84.7918C66.3778 84.6087 66.6742 84.6087 66.8571 84.7918C67.04 84.9748 67.0401 85.2712 66.8571 85.4541L64.9834 87.3278C64.94 87.3714 64.8884 87.4059 64.8316 87.4294C64.7748 87.453 64.7139 87.4651 64.6524 87.4651ZM51.5363 82.7808C51.4146 82.7806 51.2977 82.733 51.2104 82.6481C51.1232 82.5632 51.0724 82.4476 51.0689 82.3259C51.0654 82.2042 51.1094 82.0859 51.1916 81.9961C51.2739 81.9063 51.3878 81.8521 51.5094 81.8449L67.4355 80.9081C67.6863 80.8944 67.9149 81.0901 67.9305 81.3481C67.9377 81.4721 67.8954 81.5938 67.8129 81.6866C67.7304 81.7794 67.6144 81.8357 67.4905 81.8431L51.5644 82.7799C51.5551 82.7808 51.5455 82.7808 51.5363 82.7808ZM51.5363 84.6546C51.4138 84.6556 51.2958 84.6085 51.2076 84.5235C51.1193 84.4385 51.0679 84.3222 51.0644 84.1998C51.0609 84.0773 51.1055 83.9583 51.1887 83.8683C51.2719 83.7784 51.387 83.7246 51.5094 83.7186L67.4355 82.7818C67.6863 82.7698 67.9149 82.9639 67.9305 83.2218C67.9377 83.3458 67.8954 83.4676 67.8129 83.5604C67.7304 83.6532 67.6145 83.7095 67.4905 83.7168L51.5644 84.6536C51.5551 84.6546 51.5455 84.6546 51.5363 84.6546Z" fill="#6C63FF"/>
<path d="M59.5 89.3387C56.8985 89.3387 55.8455 87.293 55.802 87.2061C55.7744 87.1511 55.758 87.0912 55.7536 87.0298C55.7493 86.9684 55.757 86.9068 55.7765 86.8484C55.7959 86.79 55.8267 86.7361 55.867 86.6896C55.9074 86.6432 55.9565 86.6051 56.0115 86.5776C56.2439 86.4642 56.5229 86.5556 56.6391 86.7853C56.6756 86.8565 57.4939 88.4019 59.5 88.4019C61.5291 88.4019 62.3516 86.8027 62.3598 86.7871C62.4158 86.6764 62.5132 86.5923 62.6309 86.5531C62.7486 86.5138 62.877 86.5227 62.9883 86.5776C63.0993 86.6332 63.1838 86.7307 63.2231 86.8485C63.2624 86.9663 63.2533 87.0949 63.1978 87.2061C63.154 87.293 62.1017 89.3387 59.5 89.3387ZM57.1578 78.0968C57.0963 78.0968 57.0354 78.0847 56.9786 78.0612C56.9217 78.0376 56.8701 78.0031 56.8266 77.9596C56.7831 77.9161 56.7486 77.8645 56.725 77.8076C56.7015 77.7508 56.6894 77.6899 56.6894 77.6284V73.8809C56.6894 73.8194 56.7015 73.7585 56.725 73.7017C56.7486 73.6448 56.7831 73.5932 56.8266 73.5497C56.8701 73.5062 56.9217 73.4717 56.9786 73.4481C57.0354 73.4246 57.0963 73.4125 57.1578 73.4125C57.2194 73.4125 57.2803 73.4246 57.3372 73.4481C57.394 73.4716 57.4457 73.5061 57.4892 73.5496C57.5327 73.5931 57.5672 73.6448 57.5908 73.7016C57.6143 73.7585 57.6264 73.8194 57.6264 73.8809V77.6284C57.6264 77.6899 57.6143 77.7508 57.5907 77.8077C57.5672 77.8645 57.5327 77.9161 57.4892 77.9596C57.4456 78.0031 57.394 78.0376 57.3371 78.0612C57.2803 78.0847 57.2194 78.0968 57.1578 78.0968ZM61.8419 78.0968C61.7804 78.0968 61.7195 78.0847 61.6627 78.0612C61.6058 78.0376 61.5542 78.0031 61.5107 77.9596C61.4672 77.9161 61.4327 77.8645 61.4091 77.8076C61.3856 77.7508 61.3735 77.6899 61.3735 77.6284V73.8809C61.3735 73.6221 61.5831 73.4125 61.8419 73.4125C62.1008 73.4125 62.3103 73.6221 62.3103 73.8809V77.6284C62.3104 77.6899 62.2983 77.7508 62.2747 77.8076C62.2512 77.8645 62.2167 77.9161 62.1732 77.9596C62.1297 78.0031 62.0781 78.0376 62.0212 78.0612C61.9644 78.0847 61.9035 78.0968 61.8419 78.0968Z" fill="#6C63FF"/>
<path d="M57.1583 74.3493C57.088 74.3494 57.0185 74.3336 56.9551 74.3033C56.8917 74.2729 56.836 74.2286 56.7919 74.1738C56.7144 74.0767 56.6786 73.9528 56.6923 73.8293C56.7061 73.7058 56.7682 73.5928 56.8652 73.5151L59.2073 71.6414C59.3044 71.5638 59.4283 71.528 59.5518 71.5418C59.6753 71.5555 59.7883 71.6177 59.866 71.7146C59.9436 71.8117 59.9794 71.9356 59.9657 72.0591C59.952 72.1826 59.8899 72.2956 59.7929 72.3733L57.4508 74.2469C57.3679 74.3135 57.2646 74.3497 57.1583 74.3493Z" fill="#6C63FF"/>
<path d="M61.842 74.3493C61.7386 74.3493 61.6361 74.3165 61.5492 74.2469L59.2071 72.3733C59.1102 72.2956 59.0481 72.1826 59.0343 72.0591C59.0206 71.9356 59.0564 71.8117 59.1339 71.7146C59.2117 71.6179 59.3247 71.5558 59.4481 71.5421C59.5715 71.5284 59.6954 71.5641 59.7926 71.6414L62.1346 73.5151C62.2315 73.5928 62.2937 73.7058 62.3074 73.8293C62.3212 73.9528 62.2853 74.0767 62.2078 74.1738C62.1639 74.2286 62.1082 74.2729 62.0449 74.3033C61.9816 74.3337 61.9122 74.3494 61.842 74.3493ZM57.1579 72.4757C57.0963 72.4758 57.0354 72.4637 56.9785 72.4402C56.9217 72.4167 56.87 72.3822 56.8265 72.3386C56.783 72.2951 56.7485 72.2435 56.725 72.1866C56.7015 72.1298 56.6894 72.0689 56.6895 72.0073V65.4495C56.6894 65.388 56.7015 65.3271 56.725 65.2702C56.7486 65.2134 56.7831 65.1617 56.8266 65.1182C56.8701 65.0747 56.9217 65.0402 56.9786 65.0167C57.0354 64.9932 57.0963 64.9811 57.1579 64.9811C57.2194 64.9811 57.2803 64.9932 57.3372 65.0167C57.394 65.0402 57.4457 65.0747 57.4892 65.1182C57.5327 65.1617 57.5672 65.2134 57.5908 65.2702C57.6143 65.3271 57.6264 65.388 57.6264 65.4495V72.0073C57.6264 72.0689 57.6143 72.1298 57.5908 72.1866C57.5672 72.2435 57.5327 72.2952 57.4892 72.3387C57.4457 72.3822 57.394 72.4167 57.3372 72.4402C57.2803 72.4637 57.2194 72.4758 57.1579 72.4757Z" fill="#6C63FF"/>
<path d="M57.1578 65.9179C57.0963 65.9179 57.0354 65.9059 56.9786 65.8823C56.9217 65.8588 56.8701 65.8243 56.8266 65.7808C56.7831 65.7373 56.7486 65.6856 56.725 65.6288C56.7015 65.572 56.6894 65.511 56.6894 65.4495C56.6894 64.6747 56.0591 64.0443 55.2842 64.0443C54.5094 64.0443 53.8791 64.6747 53.8791 65.4495C53.8791 65.511 53.867 65.572 53.8435 65.6288C53.8199 65.6856 53.7854 65.7373 53.7419 65.7808C53.6984 65.8243 53.6468 65.8588 53.5899 65.8823C53.5331 65.9059 53.4722 65.9179 53.4107 65.9179C53.3491 65.918 53.2882 65.9059 53.2313 65.8824C53.1745 65.8588 53.1228 65.8243 53.0793 65.7808C53.0358 65.7373 53.0013 65.6857 52.9777 65.6288C52.9542 65.572 52.9421 65.511 52.9421 65.4495C52.9421 64.1578 53.9928 63.1074 55.2842 63.1074C56.5757 63.1074 57.6264 64.1578 57.6264 65.4495C57.6264 65.511 57.6143 65.572 57.5907 65.6288C57.5672 65.6857 57.5327 65.7373 57.4892 65.7808C57.4457 65.8243 57.394 65.8588 57.3371 65.8823C57.2803 65.9059 57.2194 65.9179 57.1578 65.9179Z" fill="#6C63FF"/>
<path d="M55.2842 67.7915C53.9928 67.7915 52.9421 66.7413 52.9421 65.4495C52.9421 65.388 52.9542 65.3271 52.9777 65.2702C53.0013 65.2134 53.0358 65.1617 53.0793 65.1182C53.1228 65.0747 53.1745 65.0402 53.2313 65.0167C53.2882 64.9932 53.3491 64.9811 53.4107 64.9811C53.4722 64.9811 53.5331 64.9932 53.5899 65.0167C53.6468 65.0402 53.6984 65.0747 53.7419 65.1182C53.7854 65.1617 53.8199 65.2134 53.8435 65.2702C53.867 65.3271 53.8791 65.388 53.8791 65.4495C53.8791 66.2244 54.5094 66.8547 55.2842 66.8547C55.3458 66.8547 55.4067 66.8668 55.4635 66.8903C55.5204 66.9138 55.572 66.9483 55.6155 66.9918C55.659 67.0353 55.6935 67.087 55.7171 67.1438C55.7406 67.2007 55.7527 67.2616 55.7526 67.3231C55.7527 67.3846 55.7406 67.4456 55.7171 67.5024C55.6936 67.5593 55.6591 67.6109 55.6156 67.6544C55.5721 67.6979 55.5204 67.7324 55.4636 67.756C55.4067 67.7795 55.3458 67.7916 55.2842 67.7915ZM61.8421 72.4757C61.7805 72.4758 61.7196 72.4637 61.6628 72.4402C61.6059 72.4167 61.5543 72.3822 61.5107 72.3386C61.4672 72.2951 61.4327 72.2435 61.4092 72.1866C61.3857 72.1298 61.3736 72.0689 61.3737 72.0073V65.4495C61.3737 65.1907 61.5832 64.9811 61.8421 64.9811C62.1009 64.9811 62.3105 65.1907 62.3105 65.4495V72.0073C62.3105 72.0689 62.2984 72.1298 62.2749 72.1866C62.2514 72.2435 62.2169 72.2951 62.1734 72.3386C62.1299 72.3822 62.0782 72.4167 62.0214 72.4402C61.9645 72.4637 61.9036 72.4758 61.8421 72.4757Z" fill="#6C63FF"/>
<path d="M65.5895 65.9179C65.528 65.918 65.467 65.9059 65.4102 65.8824C65.3533 65.8588 65.3017 65.8243 65.2582 65.7808C65.2147 65.7373 65.1802 65.6857 65.1566 65.6288C65.1331 65.572 65.121 65.511 65.1211 65.4495C65.1211 64.6747 64.4907 64.0443 63.7158 64.0443C62.9409 64.0443 62.3106 64.6747 62.3106 65.4495C62.3106 65.7084 62.101 65.9179 61.8422 65.9179C61.5833 65.9179 61.3738 65.7084 61.3738 65.4495C61.3738 64.1578 62.424 63.1074 63.7158 63.1074C65.0075 63.1074 66.0579 64.1578 66.0579 65.4495C66.0579 65.511 66.0458 65.572 66.0223 65.6288C65.9988 65.6856 65.9643 65.7373 65.9208 65.7808C65.8773 65.8243 65.8256 65.8588 65.7688 65.8823C65.7119 65.9059 65.651 65.9179 65.5895 65.9179Z" fill="#6C63FF"/>
<path d="M63.7158 67.7915C63.6543 67.7916 63.5933 67.7795 63.5365 67.756C63.4796 67.7324 63.428 67.6979 63.3845 67.6544C63.341 67.6109 63.3065 67.5593 63.283 67.5024C63.2594 67.4456 63.2473 67.3846 63.2474 67.3231C63.2474 67.2616 63.2595 67.2007 63.283 67.1438C63.3065 67.087 63.341 67.0353 63.3845 66.9918C63.428 66.9483 63.4797 66.9138 63.5365 66.8903C63.5933 66.8668 63.6543 66.8547 63.7158 66.8547C64.4908 66.8547 65.1211 66.2244 65.1211 65.4495C65.1211 65.388 65.1331 65.3271 65.1567 65.2702C65.1802 65.2134 65.2147 65.1617 65.2582 65.1182C65.3017 65.0747 65.3534 65.0402 65.4102 65.0167C65.4671 64.9932 65.528 64.9811 65.5895 64.9811C65.651 64.9811 65.7119 64.9932 65.7688 65.0167C65.8256 65.0402 65.8773 65.0747 65.9208 65.1182C65.9643 65.1617 65.9988 65.2134 66.0223 65.2702C66.0458 65.3271 66.0579 65.388 66.0579 65.4495C66.0579 66.7413 65.0076 67.7915 63.7158 67.7915ZM48.7265 65.4495C48.6649 65.4496 48.604 65.4375 48.5472 65.4139C48.4903 65.3904 48.4387 65.3559 48.3952 65.3124C48.3517 65.2689 48.3172 65.2173 48.2936 65.1604C48.2701 65.1036 48.258 65.0426 48.2581 64.9811C48.2581 58.7824 53.3012 53.7391 59.5001 53.7391C59.5616 53.7391 59.6225 53.7512 59.6794 53.7747C59.7362 53.7982 59.7879 53.8327 59.8314 53.8762C59.8749 53.9197 59.9094 53.9714 59.9329 54.0282C59.9564 54.085 59.9685 54.146 59.9685 54.2075C59.9685 54.269 59.9564 54.3299 59.9329 54.3868C59.9094 54.4436 59.8749 54.4953 59.8314 54.5388C59.7879 54.5823 59.7362 54.6168 59.6794 54.6403C59.6225 54.6638 59.5616 54.6759 59.5001 54.6759C53.8178 54.6759 49.1949 59.2987 49.1949 64.9811C49.1949 65.0426 49.1828 65.1036 49.1593 65.1604C49.1357 65.2173 49.1012 65.2689 49.0577 65.3124C49.0142 65.3559 48.9626 65.3904 48.9057 65.4139C48.8489 65.4375 48.788 65.4496 48.7265 65.4495ZM59.9685 67.7915H59.0316C58.97 67.7916 58.9091 67.7795 58.8523 67.756C58.7954 67.7324 58.7438 67.6979 58.7003 67.6544C58.6568 67.6109 58.6223 67.5593 58.5987 67.5024C58.5752 67.4456 58.5631 67.3846 58.5632 67.3231C58.5631 67.2616 58.5752 67.2007 58.5988 67.1438C58.6223 67.087 58.6568 67.0353 58.7003 66.9918C58.7438 66.9483 58.7954 66.9138 58.8523 66.8903C58.9091 66.8668 58.9701 66.8547 59.0316 66.8547H59.9685C60.03 66.8547 60.0909 66.8668 60.1478 66.8903C60.2046 66.9138 60.2563 66.9483 60.2998 66.9918C60.3433 67.0353 60.3778 67.087 60.4013 67.1438C60.4248 67.2007 60.4369 67.2616 60.4369 67.3231C60.4369 67.3846 60.4248 67.4456 60.4013 67.5024C60.3778 67.5593 60.3433 67.6109 60.2998 67.6544C60.2563 67.6979 60.2046 67.7324 60.1478 67.756C60.0909 67.7795 60.03 67.7916 59.9685 67.7915Z" fill="#6C63FF"/>
<path d="M59.5 49.0549C59.4385 49.0549 59.3775 49.0428 59.3207 49.0193C59.2638 48.9958 59.2122 48.9613 59.1687 48.9178C59.1251 48.8743 59.0906 48.8226 59.0671 48.7658C59.0436 48.7089 59.0315 48.648 59.0315 48.5865V46.7129C59.0315 46.6513 59.0436 46.5904 59.0671 46.5336C59.0906 46.4767 59.1251 46.4251 59.1687 46.3816C59.2122 46.3381 59.2638 46.3036 59.3207 46.28C59.3775 46.2565 59.4385 46.2444 59.5 46.2445C59.5615 46.2444 59.6225 46.2565 59.6793 46.2801C59.7361 46.3036 59.7878 46.3381 59.8313 46.3816C59.8748 46.4251 59.9093 46.4767 59.9328 46.5336C59.9563 46.5904 59.9684 46.6514 59.9684 46.7129V48.5865C59.9685 48.648 59.9564 48.7089 59.9328 48.7658C59.9093 48.8226 59.8748 48.8743 59.8313 48.9178C59.7878 48.9613 59.7362 48.9958 59.6793 49.0193C59.6225 49.0428 59.5615 49.0549 59.5 49.0549Z" fill="#6C63FF"/>
<path d="M82.4524 64.9811C82.3909 64.9812 82.3299 64.9691 82.2731 64.9456C82.2162 64.922 82.1646 64.8875 82.1211 64.844C82.0775 64.8005 82.043 64.7489 82.0195 64.692C81.996 64.6352 81.9839 64.5743 81.9839 64.5127V57.9549C81.9839 57.8934 81.996 57.8324 82.0195 57.7756C82.043 57.7187 82.0775 57.6671 82.1211 57.6236C82.1646 57.5801 82.2162 57.5456 82.2731 57.5221C82.3299 57.4985 82.3909 57.4865 82.4524 57.4865C82.5139 57.4865 82.5748 57.4986 82.6317 57.5221C82.6885 57.5456 82.7401 57.5801 82.7836 57.6236C82.8271 57.6671 82.8616 57.7188 82.8851 57.7756C82.9086 57.8325 82.9207 57.8934 82.9207 57.9549V64.5127C82.9207 64.5742 82.9086 64.6352 82.8851 64.692C82.8616 64.7488 82.8271 64.8005 82.7836 64.844C82.7401 64.8875 82.6885 64.922 82.6317 64.9455C82.5748 64.9691 82.5139 64.9812 82.4524 64.9811Z" fill="#6C63FF"/>
<path d="M82.4524 64.9811H75.8944C75.6356 64.9811 75.426 64.7716 75.426 64.5127C75.426 64.2539 75.6356 64.0443 75.8944 64.0443H82.4524C82.7112 64.0443 82.9206 64.2539 82.9206 64.5127C82.9206 64.7716 82.7112 64.9811 82.4524 64.9811Z" fill="#6C63FF"/>
<path d="M36.5477 64.9811C36.4862 64.9812 36.4253 64.9691 36.3685 64.9455C36.3116 64.922 36.26 64.8875 36.2165 64.844C36.173 64.8005 36.1385 64.7489 36.1149 64.692C36.0914 64.6352 36.0793 64.5742 36.0793 64.5127V57.9549C36.0793 57.8934 36.0914 57.8325 36.1149 57.7756C36.1384 57.7188 36.1729 57.6671 36.2164 57.6236C36.2599 57.5801 36.3116 57.5456 36.3684 57.5221C36.4253 57.4985 36.4862 57.4865 36.5477 57.4865C36.6093 57.4865 36.6702 57.4985 36.727 57.5221C36.7839 57.5456 36.8356 57.5801 36.8791 57.6236C36.9226 57.6671 36.9571 57.7188 36.9806 57.7756C37.0041 57.8325 37.0162 57.8934 37.0161 57.9549V64.5127C37.0162 64.5742 37.0041 64.6352 36.9806 64.692C36.957 64.7489 36.9225 64.8005 36.879 64.844C36.8355 64.8875 36.7839 64.922 36.727 64.9455C36.6702 64.9691 36.6093 64.9812 36.5477 64.9811Z" fill="#6C63FF"/>
<path d="M43.1056 64.9811H36.5477C36.2889 64.9811 36.0793 64.7716 36.0793 64.5127C36.0793 64.2539 36.2889 64.0443 36.5477 64.0443H43.1056C43.3644 64.0443 43.574 64.2539 43.574 64.5127C43.574 64.7716 43.3644 64.9811 43.1056 64.9811Z" fill="#6C63FF"/>
</g>
<defs>
<clipPath id="clip0_240_4654">
<rect width="60" height="60" fill="white" transform="translate(29.5 29.3601)"/>
</clipPath>
</defs>
</svg>
