<svg width="237" height="237" viewBox="0 0 237 237" fill="none" xmlns="http://www.w3.org/2000/svg">
<path d="M232.379 110.498C235.237 115.448 235.237 121.547 232.379 126.498L182.372 213.122C179.514 218.073 174.232 221.123 168.516 221.123L68.4935 221.128C62.7772 221.128 57.4951 218.079 54.6367 213.128L4.6214 126.509C1.76304 121.558 1.76276 115.459 4.62066 110.509L54.6279 23.8842C57.4858 18.9336 62.7677 15.8838 68.4839 15.8835L168.506 15.8789C174.223 15.8786 179.505 18.9279 182.363 23.8782L232.379 110.498Z" fill="white"/>
<g clip-path="url(#clip0_348_205)">
<path d="M164.905 101.136C161.302 101.136 156.473 95.703 156.473 90.1471C156.473 84.5727 160.019 80.5262 164.905 80.5262C169.79 80.5262 173.336 84.5727 173.336 90.1471C173.336 95.7032 168.507 101.136 164.905 101.136ZM164.905 82.3998C161.104 82.3998 158.347 85.6577 158.347 90.1471C158.347 95.0434 162.746 99.2629 164.905 99.2629C167.064 99.2629 171.462 95.0434 171.462 90.1471C171.463 85.6579 168.705 82.3998 164.905 82.3998Z" fill="#6C63FF"/>
<path d="M178.02 112.378H151.789C151.666 112.379 151.544 112.354 151.43 112.307C151.317 112.26 151.213 112.191 151.126 112.104C151.039 112.017 150.97 111.914 150.923 111.8C150.876 111.687 150.852 111.565 150.852 111.442V107.586C150.852 104.873 152.58 103.999 154.351 103.337C156.501 102.535 158.896 101.252 159.295 100.694C159.33 100.474 159.443 100.274 159.613 100.129C159.782 99.9848 159.998 99.9054 160.221 99.9053C160.344 99.9052 160.465 99.9294 160.579 99.9765C160.693 100.024 160.796 100.093 160.883 100.18C160.97 100.267 161.039 100.37 161.086 100.484C161.133 100.597 161.157 100.719 161.157 100.842C161.157 102.61 156.856 104.403 155.006 105.092C153.174 105.778 152.726 106.267 152.726 107.586V110.505H177.084V107.586C177.084 106.268 176.635 105.779 174.802 105.092C172.954 104.403 168.652 102.608 168.652 100.842C168.652 100.719 168.676 100.597 168.723 100.483C168.77 100.37 168.839 100.266 168.926 100.179C169.013 100.092 169.117 100.023 169.23 99.9764C169.344 99.9293 169.466 99.9052 169.589 99.9053C169.812 99.9053 170.027 99.9847 170.197 100.129C170.367 100.274 170.479 100.474 170.515 100.694C170.914 101.25 173.309 102.535 175.459 103.337C177.23 104 178.957 104.875 178.957 107.586V111.442C178.957 111.565 178.933 111.687 178.886 111.8C178.839 111.914 178.77 112.017 178.683 112.104C178.596 112.191 178.493 112.26 178.379 112.307C178.265 112.354 178.143 112.379 178.02 112.378Z" fill="#6C63FF"/>
<path d="M160.221 101.779C160.098 101.779 159.976 101.755 159.862 101.708C159.748 101.661 159.645 101.592 159.558 101.505C159.471 101.418 159.402 101.314 159.355 101.201C159.308 101.087 159.284 100.965 159.284 100.842V97.8726C159.284 97.3546 159.703 96.9358 160.221 96.9358C160.738 96.9358 161.157 97.3546 161.157 97.8726V100.842C161.157 100.965 161.133 101.087 161.086 101.201C161.039 101.314 160.97 101.418 160.883 101.505C160.796 101.592 160.693 101.661 160.579 101.708C160.465 101.755 160.344 101.779 160.221 101.779ZM169.589 101.779C169.466 101.779 169.344 101.755 169.23 101.708C169.117 101.661 169.013 101.592 168.926 101.505C168.839 101.418 168.77 101.314 168.723 101.201C168.676 101.087 168.652 100.965 168.652 100.842V97.8726C168.652 97.7495 168.676 97.6277 168.723 97.514C168.77 97.4003 168.839 97.297 168.926 97.21C169.013 97.1229 169.117 97.0539 169.23 97.0069C169.344 96.9599 169.466 96.9357 169.589 96.9358C169.712 96.9357 169.834 96.9599 169.948 97.0069C170.061 97.0539 170.165 97.1229 170.252 97.21C170.339 97.297 170.408 97.4003 170.455 97.514C170.502 97.6277 170.526 97.7495 170.526 97.8726V100.842C170.526 100.965 170.502 101.087 170.455 101.201C170.408 101.314 170.339 101.418 170.252 101.505C170.165 101.592 170.061 101.661 169.948 101.708C169.834 101.755 169.712 101.779 169.589 101.779ZM73.0955 101.136C69.4917 101.136 64.6638 95.703 64.6638 90.1471C64.6638 84.5727 68.2099 80.5262 73.0955 80.5262C77.9808 80.5262 81.5269 84.5727 81.5269 90.1471C81.5269 95.7032 76.699 101.136 73.0955 101.136ZM73.0955 82.3998C69.296 82.3998 66.5376 85.6577 66.5376 90.1471C66.5376 95.0434 70.9364 99.2629 73.0955 99.2629C75.2545 99.2629 79.6533 95.0434 79.6533 90.1471C79.6533 85.6579 76.8949 82.3998 73.0955 82.3998Z" fill="#6C63FF"/>
<path d="M86.211 112.378H59.9798C59.8567 112.379 59.7349 112.354 59.6212 112.307C59.5075 112.26 59.4042 112.191 59.3171 112.104C59.2301 112.017 59.1611 111.914 59.1141 111.8C59.067 111.687 59.0429 111.565 59.043 111.442V107.586C59.043 104.873 60.771 103.999 62.5405 103.337C64.6914 102.535 67.0865 101.252 67.4863 100.694C67.5216 100.474 67.6341 100.274 67.8037 100.129C67.9732 99.9848 68.1886 99.9054 68.4114 99.9053C68.5344 99.9052 68.6563 99.9294 68.77 99.9765C68.8837 100.024 68.987 100.093 69.074 100.18C69.161 100.267 69.23 100.37 69.277 100.484C69.3241 100.597 69.3483 100.719 69.3482 100.842C69.3482 102.61 65.0455 104.403 63.1959 105.092C61.3642 105.778 60.9168 106.267 60.9168 107.586V110.505H85.2745V107.586C85.2745 106.268 84.827 105.779 82.9938 105.092C81.1448 104.403 76.843 102.608 76.843 100.842C76.8224 100.714 76.8285 100.584 76.8609 100.458C76.8933 100.333 76.9512 100.216 77.0311 100.114C77.111 100.013 77.2112 99.9285 77.3252 99.8673C77.4392 99.8062 77.5646 99.7693 77.6936 99.7591C77.8226 99.7488 77.9522 99.7654 78.0745 99.8077C78.1967 99.85 78.3089 99.9172 78.4039 100.005C78.4989 100.093 78.5746 100.199 78.6264 100.318C78.6782 100.437 78.7048 100.565 78.7047 100.694C79.1045 101.25 81.4989 102.535 83.6498 103.337C85.4209 104 87.1483 104.875 87.1483 107.586V111.442C87.1483 111.565 87.124 111.687 87.0769 111.8C87.0297 111.914 86.9607 112.017 86.8737 112.104C86.7866 112.191 86.6833 112.26 86.5696 112.307C86.4559 112.354 86.3341 112.379 86.211 112.378Z" fill="#6C63FF"/>
<path d="M68.4112 101.779C68.2881 101.779 68.1663 101.755 68.0526 101.708C67.9389 101.661 67.8356 101.592 67.7486 101.505C67.6616 101.418 67.5926 101.314 67.5455 101.201C67.4985 101.087 67.4743 100.965 67.4744 100.842V97.8725C67.4744 97.3545 67.8934 96.9357 68.4112 96.9357C68.9289 96.9357 69.348 97.3545 69.348 97.8725V100.842C69.348 100.965 69.3238 101.087 69.2768 101.201C69.2297 101.314 69.1607 101.418 69.0737 101.505C68.9867 101.592 68.8834 101.661 68.7697 101.708C68.656 101.755 68.5342 101.779 68.4112 101.779ZM77.7794 101.779C77.6563 101.779 77.5345 101.755 77.4208 101.708C77.3071 101.661 77.2038 101.592 77.1168 101.505C77.0298 101.418 76.9608 101.314 76.9138 101.201C76.8667 101.087 76.8425 100.965 76.8426 100.842V97.8725C76.8425 97.7495 76.8666 97.6276 76.9137 97.5139C76.9607 97.4002 77.0297 97.2969 77.1167 97.2099C77.2038 97.1229 77.3071 97.0539 77.4208 97.0068C77.5345 96.9598 77.6563 96.9356 77.7794 96.9357C77.9024 96.9356 78.0243 96.9598 78.138 97.0068C78.2517 97.0539 78.355 97.1229 78.442 97.2099C78.529 97.2969 78.598 97.4002 78.645 97.5139C78.6921 97.6276 78.7163 97.7495 78.7162 97.8725V100.842C78.7163 100.965 78.6921 101.087 78.645 101.201C78.598 101.314 78.529 101.418 78.442 101.505C78.355 101.592 78.2517 101.661 78.138 101.708C78.0243 101.755 77.9024 101.779 77.7794 101.779ZM119 78.6526C115.396 78.6526 110.568 73.2191 110.568 67.663C110.568 62.0886 114.115 58.0421 119 58.0421C123.886 58.0421 127.431 62.0886 127.431 67.663C127.431 73.2191 122.603 78.6526 119 78.6526ZM119 59.9159C115.201 59.9159 112.442 63.1738 112.442 67.6632C112.442 72.5598 116.841 76.779 119 76.779C121.159 76.779 125.558 72.5598 125.558 67.6632C125.558 63.1738 122.8 59.9159 119 59.9159Z" fill="#6C63FF"/>
<path d="M132.116 89.8945H105.885C105.762 89.8945 105.64 89.8703 105.526 89.8233C105.412 89.7762 105.309 89.7072 105.222 89.6202C105.135 89.5332 105.066 89.4299 105.019 89.3162C104.972 89.2026 104.948 89.0807 104.948 88.9577V85.1024C104.948 82.3888 106.676 81.5153 108.445 80.853C110.596 80.0514 112.991 78.768 113.391 78.2099C113.429 77.9778 113.553 77.7683 113.738 77.6232C113.923 77.478 114.156 77.4078 114.39 77.4265C114.625 77.4451 114.844 77.5513 115.003 77.7239C115.163 77.8965 115.252 78.1228 115.253 78.3581C115.253 80.1257 110.95 81.9187 109.1 82.6085C107.269 83.2938 106.822 83.7834 106.822 85.1024V88.0209H131.179V85.1024C131.179 83.7841 130.731 83.2947 128.898 82.6075C127.05 81.9187 122.748 80.1236 122.748 78.3581C122.748 78.235 122.772 78.1132 122.819 77.9995C122.866 77.8858 122.935 77.7825 123.022 77.6955C123.109 77.6085 123.212 77.5395 123.326 77.4924C123.44 77.4454 123.562 77.4212 123.685 77.4213C123.907 77.4213 124.123 77.5007 124.293 77.6452C124.462 77.7897 124.575 77.9899 124.61 78.2099C125.009 78.7661 127.404 80.0507 129.555 80.853C131.326 81.5163 133.053 82.391 133.053 85.1024V88.9577C133.053 89.0807 133.029 89.2026 132.982 89.3163C132.935 89.43 132.866 89.5333 132.779 89.6203C132.691 89.7072 132.588 89.7762 132.474 89.8233C132.361 89.8703 132.239 89.8945 132.116 89.8945Z" fill="#6C63FF"/>
<path d="M114.316 79.2948C114.193 79.2948 114.071 79.2706 113.957 79.2236C113.844 79.1765 113.74 79.1075 113.653 79.0204C113.566 78.9334 113.497 78.8301 113.45 78.7164C113.403 78.6027 113.379 78.4808 113.379 78.3577V75.3882C113.379 75.2652 113.403 75.1433 113.45 75.0296C113.497 74.916 113.566 74.8127 113.653 74.7257C113.74 74.6387 113.844 74.5697 113.957 74.5226C114.071 74.4755 114.193 74.4514 114.316 74.4514C114.439 74.4513 114.561 74.4755 114.675 74.5225C114.788 74.5696 114.892 74.6386 114.979 74.7256C115.066 74.8126 115.135 74.9159 115.182 75.0296C115.229 75.1433 115.253 75.2652 115.253 75.3882V78.3577C115.253 78.4808 115.229 78.6027 115.182 78.7164C115.135 78.8301 115.066 78.9334 114.979 79.0205C114.892 79.1075 114.788 79.1765 114.675 79.2236C114.561 79.2706 114.439 79.2948 114.316 79.2948ZM123.684 79.2948C123.561 79.2948 123.439 79.2706 123.326 79.2236C123.212 79.1765 123.109 79.1075 123.022 79.0204C122.935 78.9334 122.866 78.8301 122.818 78.7164C122.771 78.6027 122.747 78.4808 122.747 78.3577V75.3882C122.747 74.8705 123.166 74.4514 123.684 74.4514C124.202 74.4514 124.621 74.8705 124.621 75.3882V78.3577C124.621 78.4808 124.597 78.6027 124.55 78.7164C124.503 78.8301 124.434 78.9334 124.347 79.0204C124.26 79.1075 124.156 79.1765 124.043 79.2236C123.929 79.2706 123.807 79.2948 123.684 79.2948Z" fill="#6C63FF"/>
<path d="M104.943 155.614C104.785 155.613 104.63 155.573 104.491 155.496C94.9491 150.225 89.0215 140.165 89.0215 129.241C89.0215 112.711 102.47 99.2628 119 99.2628C119.518 99.2628 119.937 99.6819 119.937 100.2C119.937 100.717 119.518 101.136 119 101.136C103.503 101.136 90.8951 113.744 90.8951 129.241C90.8951 139.483 96.4521 148.915 105.397 153.857C105.504 153.916 105.599 153.996 105.676 154.092C105.753 154.188 105.81 154.299 105.844 154.417C105.878 154.535 105.888 154.659 105.875 154.781C105.861 154.903 105.823 155.021 105.764 155.129C105.683 155.276 105.564 155.399 105.42 155.484C105.276 155.569 105.111 155.614 104.943 155.614Z" fill="#6C63FF"/>
<path d="M133.056 155.614C132.889 155.614 132.724 155.569 132.58 155.484C132.436 155.398 132.317 155.276 132.237 155.129C132.177 155.021 132.139 154.903 132.126 154.781C132.112 154.659 132.122 154.535 132.156 154.417C132.19 154.299 132.247 154.189 132.324 154.093C132.4 153.996 132.495 153.916 132.602 153.857C141.548 148.915 147.105 139.484 147.105 129.241C147.105 113.744 134.498 101.136 119 101.136C118.482 101.136 118.063 100.717 118.063 100.2C118.063 99.6819 118.482 99.2628 119 99.2628C135.53 99.2628 148.979 112.711 148.979 129.241C148.979 140.165 143.05 150.225 133.51 155.496C133.365 155.575 133.21 155.614 133.056 155.614ZM104.947 170.462C104.824 170.462 104.703 170.438 104.589 170.391C104.475 170.344 104.372 170.275 104.285 170.188C104.198 170.101 104.129 169.997 104.082 169.884C104.035 169.77 104.011 169.648 104.011 169.525V154.677C104.011 154.159 104.43 153.74 104.947 153.74C105.465 153.74 105.884 154.159 105.884 154.677V169.525C105.884 169.648 105.86 169.77 105.813 169.884C105.766 169.998 105.697 170.101 105.61 170.188C105.523 170.275 105.42 170.344 105.306 170.391C105.192 170.438 105.07 170.462 104.947 170.462Z" fill="#6C63FF"/>
<path d="M133.053 170.462C132.929 170.462 132.808 170.438 132.694 170.391C132.58 170.344 132.477 170.275 132.39 170.188C132.303 170.101 132.234 169.998 132.187 169.884C132.14 169.77 132.116 169.648 132.116 169.525V154.699C132.116 154.576 132.14 154.454 132.187 154.34C132.234 154.227 132.303 154.123 132.39 154.036C132.477 153.949 132.58 153.88 132.694 153.833C132.808 153.786 132.929 153.762 133.053 153.762C133.176 153.762 133.297 153.786 133.411 153.833C133.525 153.88 133.628 153.949 133.715 154.036C133.802 154.123 133.871 154.227 133.918 154.34C133.965 154.454 133.989 154.576 133.989 154.699V169.525C133.989 169.648 133.965 169.77 133.918 169.884C133.871 169.998 133.802 170.101 133.715 170.188C133.628 170.275 133.525 170.344 133.411 170.391C133.297 170.438 133.176 170.462 133.053 170.462Z" fill="#6C63FF"/>
<path d="M133.053 159.22H104.947C104.824 159.22 104.703 159.196 104.589 159.149C104.475 159.102 104.372 159.033 104.285 158.946C104.198 158.859 104.129 158.756 104.082 158.642C104.035 158.528 104.011 158.406 104.011 158.283C104.011 158.16 104.035 158.038 104.082 157.925C104.129 157.811 104.198 157.708 104.285 157.621C104.372 157.534 104.475 157.465 104.589 157.418C104.703 157.371 104.824 157.346 104.947 157.346H133.053C133.176 157.346 133.297 157.371 133.411 157.418C133.525 157.465 133.628 157.534 133.715 157.621C133.802 157.708 133.871 157.811 133.918 157.925C133.965 158.038 133.989 158.16 133.989 158.283C133.989 158.406 133.965 158.528 133.918 158.642C133.871 158.756 133.802 158.859 133.715 158.946C133.628 159.033 133.525 159.102 133.411 159.149C133.297 159.196 133.176 159.22 133.053 159.22ZM129.305 174.209H108.695C108.572 174.209 108.45 174.185 108.336 174.138C108.223 174.091 108.12 174.022 108.033 173.935L104.285 170.188C104.198 170.101 104.129 169.997 104.082 169.884C104.035 169.77 104.011 169.648 104.011 169.525C104.011 169.402 104.035 169.28 104.082 169.167C104.129 169.053 104.198 168.95 104.285 168.863C104.372 168.776 104.475 168.707 104.589 168.66C104.703 168.613 104.824 168.589 104.947 168.589C105.07 168.589 105.192 168.613 105.306 168.66C105.42 168.707 105.523 168.776 105.61 168.863L109.083 172.336H128.917L132.39 168.863C132.756 168.497 133.349 168.497 133.714 168.863C134.08 169.229 134.081 169.822 133.714 170.188L129.967 173.935C129.88 174.022 129.777 174.091 129.663 174.138C129.55 174.185 129.428 174.21 129.305 174.209ZM103.073 164.841C102.829 164.841 102.596 164.745 102.421 164.576C102.247 164.406 102.145 164.175 102.138 163.931C102.131 163.688 102.219 163.451 102.384 163.272C102.548 163.092 102.776 162.983 103.019 162.969L134.871 161.095C135.373 161.068 135.83 161.459 135.861 161.976C135.876 162.224 135.791 162.467 135.626 162.653C135.461 162.838 135.229 162.951 134.981 162.966L103.129 164.839C103.11 164.841 103.091 164.841 103.073 164.841ZM103.073 168.588C102.828 168.59 102.592 168.496 102.415 168.326C102.239 168.156 102.136 167.924 102.129 167.679C102.122 167.434 102.211 167.196 102.378 167.016C102.544 166.836 102.774 166.729 103.019 166.717L134.871 164.843C135.373 164.819 135.83 165.207 135.861 165.723C135.876 165.971 135.791 166.214 135.626 166.4C135.461 166.586 135.229 166.698 134.981 166.713L103.129 168.587C103.11 168.588 103.091 168.588 103.073 168.588Z" fill="#6C63FF"/>
<path d="M119 177.957C113.797 177.957 111.691 173.865 111.604 173.691C111.549 173.581 111.516 173.462 111.507 173.339C111.499 173.216 111.514 173.093 111.553 172.976C111.592 172.859 111.654 172.751 111.734 172.659C111.815 172.566 111.913 172.489 112.023 172.435C112.488 172.208 113.046 172.39 113.278 172.85C113.351 172.992 114.988 176.083 119 176.083C123.058 176.083 124.703 172.885 124.72 172.854C124.832 172.632 125.027 172.464 125.262 172.385C125.497 172.307 125.754 172.325 125.977 172.435C126.199 172.546 126.368 172.741 126.446 172.976C126.525 173.212 126.507 173.469 126.396 173.691C126.308 173.865 124.204 177.957 119 177.957ZM114.316 155.473C114.193 155.473 114.071 155.449 113.957 155.402C113.844 155.355 113.74 155.286 113.653 155.199C113.566 155.112 113.497 155.008 113.45 154.895C113.403 154.781 113.379 154.659 113.379 154.536V147.041C113.379 146.918 113.403 146.796 113.45 146.683C113.497 146.569 113.566 146.466 113.653 146.379C113.74 146.292 113.844 146.223 113.957 146.176C114.071 146.128 114.193 146.104 114.316 146.104C114.439 146.104 114.561 146.128 114.675 146.175C114.788 146.223 114.892 146.292 114.979 146.379C115.066 146.466 115.135 146.569 115.182 146.683C115.229 146.796 115.253 146.918 115.253 147.041V154.536C115.253 154.659 115.229 154.781 115.182 154.895C115.135 155.008 115.066 155.112 114.979 155.199C114.892 155.286 114.788 155.355 114.675 155.402C114.561 155.449 114.439 155.473 114.316 155.473ZM123.684 155.473C123.561 155.473 123.439 155.449 123.326 155.402C123.212 155.355 123.109 155.286 123.022 155.199C122.935 155.112 122.866 155.008 122.819 154.895C122.771 154.781 122.747 154.659 122.747 154.536V147.041C122.747 146.523 123.166 146.104 123.684 146.104C124.202 146.104 124.621 146.523 124.621 147.041V154.536C124.621 154.659 124.597 154.781 124.55 154.895C124.503 155.008 124.434 155.112 124.347 155.199C124.26 155.286 124.156 155.355 124.043 155.402C123.929 155.449 123.807 155.473 123.684 155.473Z" fill="#6C63FF"/>
<path d="M114.317 147.978C114.176 147.978 114.037 147.947 113.91 147.886C113.784 147.825 113.672 147.737 113.584 147.627C113.429 147.433 113.357 147.185 113.385 146.938C113.412 146.691 113.537 146.465 113.731 146.309L118.415 142.562C118.609 142.407 118.857 142.335 119.104 142.363C119.351 142.39 119.577 142.515 119.732 142.709C119.887 142.903 119.959 143.15 119.932 143.397C119.904 143.644 119.78 143.871 119.586 144.026L114.902 147.773C114.736 147.906 114.529 147.979 114.317 147.978Z" fill="#6C63FF"/>
<path d="M123.684 147.978C123.477 147.978 123.272 147.912 123.099 147.773L118.414 144.026C118.221 143.87 118.096 143.644 118.069 143.398C118.041 143.151 118.113 142.903 118.268 142.709C118.424 142.515 118.65 142.391 118.896 142.364C119.143 142.336 119.391 142.407 119.585 142.562L124.269 146.309C124.463 146.465 124.588 146.691 124.615 146.938C124.643 147.185 124.571 147.433 124.416 147.627C124.328 147.737 124.217 147.825 124.09 147.886C123.963 147.947 123.825 147.978 123.684 147.978ZM114.316 144.231C114.193 144.231 114.071 144.207 113.957 144.16C113.844 144.113 113.74 144.044 113.653 143.957C113.566 143.87 113.497 143.766 113.45 143.653C113.403 143.539 113.379 143.417 113.379 143.294V130.178C113.379 130.055 113.403 129.933 113.45 129.82C113.497 129.706 113.566 129.603 113.653 129.516C113.74 129.429 113.844 129.36 113.957 129.313C114.071 129.266 114.193 129.242 114.316 129.242C114.439 129.241 114.561 129.266 114.675 129.313C114.788 129.36 114.892 129.429 114.979 129.516C115.066 129.603 115.135 129.706 115.182 129.82C115.229 129.933 115.253 130.055 115.253 130.178V143.294C115.253 143.417 115.229 143.539 115.182 143.653C115.135 143.766 115.066 143.87 114.979 143.957C114.892 144.044 114.788 144.113 114.675 144.16C114.561 144.207 114.439 144.231 114.316 144.231Z" fill="#6C63FF"/>
<path d="M114.316 131.115C114.193 131.115 114.071 131.091 113.957 131.044C113.844 130.997 113.74 130.928 113.653 130.841C113.566 130.754 113.497 130.651 113.45 130.537C113.403 130.423 113.379 130.301 113.379 130.178C113.379 128.629 112.118 127.368 110.569 127.368C109.019 127.368 107.758 128.629 107.758 130.178C107.758 130.301 107.734 130.423 107.687 130.537C107.64 130.651 107.571 130.754 107.484 130.841C107.397 130.928 107.294 130.997 107.18 131.044C107.066 131.091 106.945 131.115 106.822 131.115C106.698 131.115 106.577 131.091 106.463 131.044C106.349 130.997 106.246 130.928 106.159 130.841C106.072 130.754 106.003 130.651 105.956 130.537C105.909 130.423 105.884 130.301 105.885 130.178C105.885 127.595 107.986 125.494 110.569 125.494C113.152 125.494 115.253 127.595 115.253 130.178C115.253 130.301 115.229 130.423 115.182 130.537C115.135 130.651 115.066 130.754 114.979 130.841C114.892 130.928 114.788 130.997 114.675 131.044C114.561 131.091 114.439 131.115 114.316 131.115Z" fill="#6C63FF"/>
<path d="M110.568 134.862C107.986 134.862 105.884 132.762 105.884 130.178C105.884 130.055 105.908 129.933 105.955 129.82C106.003 129.706 106.072 129.603 106.159 129.516C106.246 129.429 106.349 129.36 106.463 129.313C106.576 129.266 106.698 129.241 106.821 129.242C106.944 129.242 107.066 129.266 107.18 129.313C107.294 129.36 107.397 129.429 107.484 129.516C107.571 129.603 107.64 129.706 107.687 129.82C107.734 129.933 107.758 130.055 107.758 130.178C107.758 131.728 109.019 132.989 110.568 132.989C110.692 132.989 110.813 133.013 110.927 133.06C111.041 133.107 111.144 133.176 111.231 133.263C111.318 133.35 111.387 133.453 111.434 133.567C111.481 133.681 111.505 133.803 111.505 133.926C111.505 134.049 111.481 134.17 111.434 134.284C111.387 134.398 111.318 134.501 111.231 134.588C111.144 134.675 111.041 134.744 110.927 134.791C110.813 134.838 110.692 134.862 110.568 134.862ZM123.684 144.231C123.561 144.231 123.439 144.207 123.326 144.16C123.212 144.113 123.109 144.044 123.021 143.957C122.934 143.87 122.865 143.766 122.818 143.653C122.771 143.539 122.747 143.417 122.747 143.294V130.178C122.747 129.661 123.166 129.242 123.684 129.242C124.202 129.242 124.621 129.661 124.621 130.178V143.294C124.621 143.417 124.597 143.539 124.55 143.653C124.503 143.766 124.434 143.87 124.347 143.957C124.26 144.044 124.156 144.113 124.043 144.16C123.929 144.207 123.807 144.231 123.684 144.231Z" fill="#6C63FF"/>
<path d="M131.179 131.115C131.056 131.115 130.934 131.091 130.82 131.044C130.707 130.997 130.603 130.928 130.516 130.841C130.429 130.754 130.36 130.651 130.313 130.537C130.266 130.423 130.242 130.301 130.242 130.178C130.242 128.629 128.981 127.368 127.432 127.368C125.882 127.368 124.621 128.629 124.621 130.178C124.621 130.696 124.202 131.115 123.684 131.115C123.167 131.115 122.748 130.696 122.748 130.178C122.748 127.595 124.848 125.494 127.432 125.494C130.015 125.494 132.116 127.595 132.116 130.178C132.116 130.301 132.092 130.423 132.045 130.537C131.998 130.651 131.929 130.754 131.842 130.841C131.755 130.928 131.651 130.997 131.538 131.044C131.424 131.091 131.302 131.115 131.179 131.115Z" fill="#6C63FF"/>
<path d="M127.432 134.862C127.309 134.862 127.187 134.838 127.073 134.791C126.959 134.744 126.856 134.675 126.769 134.588C126.682 134.501 126.613 134.398 126.566 134.284C126.519 134.17 126.495 134.049 126.495 133.925C126.495 133.802 126.519 133.681 126.566 133.567C126.613 133.453 126.682 133.35 126.769 133.263C126.856 133.176 126.959 133.107 127.073 133.06C127.187 133.013 127.309 132.989 127.432 132.989C128.982 132.989 130.242 131.728 130.242 130.178C130.242 130.055 130.266 129.933 130.313 129.82C130.36 129.706 130.429 129.603 130.516 129.516C130.603 129.429 130.707 129.36 130.82 129.313C130.934 129.266 131.056 129.241 131.179 129.242C131.302 129.241 131.424 129.266 131.538 129.313C131.651 129.36 131.755 129.429 131.842 129.516C131.929 129.603 131.998 129.706 132.045 129.82C132.092 129.933 132.116 130.055 132.116 130.178C132.116 132.762 130.015 134.862 127.432 134.862ZM97.4529 130.178C97.3299 130.178 97.208 130.154 97.0943 130.107C96.9807 130.06 96.8774 129.991 96.7904 129.904C96.7034 129.817 96.6344 129.714 96.5873 129.6C96.5402 129.486 96.5161 129.365 96.5161 129.242C96.5161 116.844 106.602 106.757 119 106.757C119.123 106.757 119.245 106.782 119.359 106.829C119.472 106.876 119.576 106.945 119.663 107.032C119.75 107.119 119.819 107.222 119.866 107.336C119.913 107.449 119.937 107.571 119.937 107.694C119.937 107.817 119.913 107.939 119.866 108.053C119.819 108.166 119.75 108.27 119.663 108.357C119.576 108.444 119.472 108.513 119.359 108.56C119.245 108.607 119.123 108.631 119 108.631C107.636 108.631 98.3897 117.877 98.3897 129.242C98.3898 129.365 98.3656 129.486 98.3185 129.6C98.2715 129.714 98.2025 129.817 98.1155 129.904C98.0285 129.991 97.9252 130.06 97.8115 130.107C97.6978 130.154 97.576 130.178 97.4529 130.178ZM119.937 134.862H118.063C117.94 134.862 117.818 134.838 117.705 134.791C117.591 134.744 117.488 134.675 117.401 134.588C117.314 134.501 117.245 134.398 117.197 134.284C117.15 134.17 117.126 134.049 117.126 133.925C117.126 133.802 117.15 133.681 117.198 133.567C117.245 133.453 117.314 133.35 117.401 133.263C117.488 133.176 117.591 133.107 117.705 133.06C117.818 133.013 117.94 132.989 118.063 132.989H119.937C120.06 132.989 120.182 133.013 120.296 133.06C120.409 133.107 120.513 133.176 120.6 133.263C120.687 133.35 120.756 133.453 120.803 133.567C120.85 133.681 120.874 133.802 120.874 133.925C120.874 134.049 120.85 134.17 120.803 134.284C120.756 134.398 120.687 134.501 120.6 134.588C120.513 134.675 120.409 134.744 120.296 134.791C120.182 134.838 120.06 134.862 119.937 134.862Z" fill="#6C63FF"/>
<path d="M119 97.3891C118.877 97.3892 118.755 97.365 118.642 97.318C118.528 97.2709 118.424 97.2019 118.337 97.1149C118.25 97.0279 118.181 96.9246 118.134 96.8109C118.087 96.6972 118.063 96.5754 118.063 96.4523V92.7051C118.063 92.582 118.087 92.4602 118.134 92.3465C118.181 92.2328 118.25 92.1295 118.337 92.0425C118.424 91.9555 118.528 91.8865 118.642 91.8394C118.755 91.7924 118.877 91.7682 119 91.7683C119.123 91.7682 119.245 91.7924 119.359 91.8395C119.472 91.8865 119.576 91.9556 119.663 92.0426C119.75 92.1296 119.819 92.2329 119.866 92.3465C119.913 92.4602 119.937 92.5821 119.937 92.7051V96.4523C119.937 96.5753 119.913 96.6972 119.866 96.8109C119.819 96.9246 119.75 97.0279 119.663 97.1149C119.576 97.2019 119.472 97.2709 119.359 97.318C119.245 97.365 119.123 97.3892 119 97.3891Z" fill="#6C63FF"/>
<path d="M164.905 129.242C164.782 129.242 164.66 129.217 164.546 129.17C164.432 129.123 164.329 129.054 164.242 128.967C164.155 128.88 164.086 128.777 164.039 128.663C163.992 128.55 163.968 128.428 163.968 128.305V115.189C163.968 115.066 163.992 114.944 164.039 114.83C164.086 114.717 164.155 114.613 164.242 114.526C164.329 114.439 164.432 114.37 164.546 114.323C164.66 114.276 164.782 114.252 164.905 114.252C165.028 114.252 165.15 114.276 165.263 114.324C165.377 114.371 165.48 114.44 165.567 114.527C165.654 114.614 165.723 114.717 165.77 114.831C165.817 114.944 165.841 115.066 165.841 115.189V128.305C165.841 128.428 165.817 128.55 165.77 128.663C165.723 128.777 165.654 128.88 165.567 128.967C165.48 129.054 165.377 129.123 165.263 129.17C165.15 129.217 165.028 129.242 164.905 129.242Z" fill="#6C63FF"/>
<path d="M164.905 129.242H151.789C151.271 129.242 150.852 128.822 150.852 128.305C150.852 127.787 151.271 127.368 151.789 127.368H164.905C165.423 127.368 165.841 127.787 165.841 128.305C165.841 128.822 165.423 129.242 164.905 129.242Z" fill="#6C63FF"/>
<path d="M73.0955 129.242C72.9724 129.242 72.8506 129.217 72.7369 129.17C72.6232 129.123 72.5199 129.054 72.4329 128.967C72.3459 128.88 72.2769 128.777 72.2299 128.663C72.1828 128.55 72.1586 128.428 72.1587 128.305V115.189C72.1586 115.066 72.1828 114.944 72.2298 114.831C72.2769 114.717 72.3459 114.614 72.4329 114.526C72.5199 114.439 72.6232 114.37 72.7369 114.323C72.8506 114.276 72.9724 114.252 73.0955 114.252C73.2185 114.252 73.3404 114.276 73.4541 114.323C73.5678 114.37 73.6711 114.439 73.7581 114.526C73.8451 114.614 73.9141 114.717 73.9612 114.831C74.0082 114.944 74.0324 115.066 74.0323 115.189V128.305C74.0323 128.428 74.0082 128.55 73.9611 128.663C73.914 128.777 73.845 128.88 73.758 128.967C73.671 129.054 73.5677 129.123 73.4541 129.17C73.3404 129.217 73.2185 129.242 73.0955 129.242Z" fill="#6C63FF"/>
<path d="M86.2111 129.242H73.0955C72.5778 129.242 72.1587 128.822 72.1587 128.305C72.1587 127.787 72.5778 127.368 73.0955 127.368H86.2111C86.7288 127.368 87.1479 127.787 87.1479 128.305C87.1479 128.822 86.7288 129.242 86.2111 129.242Z" fill="#6C63FF"/>
</g>
<defs>
<clipPath id="clip0_348_205">
<rect width="120" height="120" fill="white" transform="translate(59.0001 57.9995)"/>
</clipPath>
</defs>
</svg>
