<svg width="118" height="119" viewBox="0 0 118 119" fill="none" xmlns="http://www.w3.org/2000/svg">
<path d="M115.697 55.3745C117.121 57.8391 117.121 60.8757 115.698 63.3405L90.8004 106.469C89.3775 108.934 86.7478 110.452 83.9018 110.452L34.1029 110.454C31.2569 110.455 28.6271 108.936 27.204 106.472L2.30251 63.3457C0.8794 60.8811 0.879267 57.8445 2.30214 55.3797L27.1996 12.2515C28.6225 9.78671 31.2522 8.26827 34.0982 8.26814L83.8971 8.26583C86.743 8.26569 89.3729 9.78389 90.796 12.2485L115.697 55.3745Z" fill="white"/>
<path d="M59.3581 39.1666L44.6485 30.715L30.0033 39.1666V56.0698L43.9388 64.1343V80.2633L58.6485 88.7795L73.2936 80.3279V63.3601L59.3581 55.2956V39.1666ZM58.6485 71.0375L46.0678 63.8117L58.6485 56.5214L71.2291 63.8117L58.6485 71.0375ZM57.9388 40.7795V55.2956L45.3581 62.5859V48.0053L57.9388 40.7795ZM57.2291 39.5537L44.6485 46.844L32.0678 39.5537L44.6485 32.3279L57.2291 39.5537ZM31.4227 40.7795L44.0033 48.0698V62.5859L31.4227 55.2956V40.7795ZM45.3581 64.973L57.9388 72.2633V86.7795L45.3581 79.4891V64.973ZM59.3581 86.7795V72.2633L71.9388 64.973V79.4891L59.3581 86.7795ZM75.3581 29.1666L60.713 37.6182V54.5214L75.3581 62.973L90.0033 54.5214V37.6182L75.3581 29.1666ZM87.9388 38.0053L75.3581 45.2311L62.7775 38.0053L75.3581 30.715L87.9388 38.0053ZM62.1323 39.1666L74.713 46.4569V60.973L62.1323 53.7472V39.1666ZM76.0678 60.973V46.4569L88.6485 39.1666V53.6827L76.0678 60.973Z" fill="#6B63FF"/>
</svg>
