<svg width="237" height="237" viewBox="0 0 237 237" fill="none" xmlns="http://www.w3.org/2000/svg">
<path d="M232.379 110.498C235.237 115.448 235.237 121.547 232.379 126.498L182.372 213.122C179.514 218.073 174.232 221.123 168.516 221.123L68.4935 221.128C62.7773 221.128 57.4951 218.079 54.6368 213.128L4.62147 126.509C1.76311 121.558 1.76283 115.459 4.62072 110.509L54.628 23.8842C57.4858 18.9336 62.7678 15.8838 68.484 15.8835L168.507 15.8789C174.223 15.8786 179.505 18.9279 182.363 23.8782L232.379 110.498Z" fill="white"/>
<path d="M114.23 72.4467L84.8103 55.5434L55.52 72.4467V106.253L83.3909 122.382V154.64L112.81 171.672L142.101 154.769V120.834L114.23 104.705V72.4467ZM112.81 136.189L87.649 121.737L112.81 107.156L137.972 121.737L112.81 136.189ZM111.391 75.6725V104.705L86.2296 119.285V90.1241L111.391 75.6725ZM109.972 73.2208L84.8103 87.8015L59.649 73.2208L84.8103 58.7692L109.972 73.2208ZM58.3587 75.6725L83.52 90.2531V119.285L58.3587 104.705V75.6725ZM86.2296 124.06L111.391 138.64V167.672L86.2296 153.092V124.06ZM114.23 167.672V138.64L139.391 124.06V153.092L114.23 167.672ZM146.23 52.4467L116.939 69.3499V103.156L146.23 120.06L175.52 103.156V69.3499L146.23 52.4467ZM171.391 70.1241L146.23 84.5757L121.068 70.1241L146.23 55.5434L171.391 70.1241ZM119.778 72.4467L144.939 87.0273V116.06L119.778 101.608V72.4467ZM147.649 116.06V87.0273L172.81 72.4467V101.479L147.649 116.06Z" fill="#6B63FF"/>
</svg>
