<svg width="96" height="96" viewBox="0 0 96 96" fill="none" xmlns="http://www.w3.org/2000/svg">
<path d="M93.6981 44.0149C95.1212 46.4795 95.1213 49.5161 93.6984 51.9809L74.3003 85.5831C72.8774 88.0478 70.2477 89.5663 67.4017 89.5664L28.6023 89.5682C25.7563 89.5683 23.1264 88.0501 21.7033 85.5855L2.30205 51.9851C0.87895 49.5205 0.878809 46.4839 2.30168 44.0191L21.6998 10.417C23.1227 7.95219 25.7524 6.43375 28.5984 6.43362L67.3978 6.43181C70.2438 6.43168 72.8737 7.94988 74.2968 10.4145L93.6981 44.0149Z" fill="white"/>
<path d="M47.5269 33.2817L36.7398 27.0838L26 33.2817V45.6774L36.2194 51.5914V63.4193L47.0065 69.6645L57.7462 63.4666V51.0236L47.5269 45.1097V33.2817ZM47.0065 56.6537L37.7806 51.3548L47.0065 46.0086L56.2323 51.3548L47.0065 56.6537ZM46.486 34.4645V45.1097L37.2602 50.4559V39.7634L46.486 34.4645ZM45.9656 33.5656L36.7398 38.9118L27.514 33.5656L36.7398 28.2666L45.9656 33.5656ZM27.0409 34.4645L36.2667 39.8107V50.4559L27.0409 45.1097V34.4645ZM37.2602 52.2064L46.486 57.5527V68.1978L37.2602 62.8516V52.2064ZM47.5269 68.1978V57.5527L56.7527 52.2064V62.8516L47.5269 68.1978ZM59.2602 25.9484L48.5204 32.1462V44.5419L59.2602 50.7398L70 44.5419V32.1462L59.2602 25.9484ZM68.486 32.4301L59.2602 37.729L50.0344 32.4301L59.2602 27.0838L68.486 32.4301ZM49.5613 33.2817L58.7871 38.6279V49.2731L49.5613 43.9742V33.2817ZM59.7806 49.2731V38.6279L69.0065 33.2817V43.9269L59.7806 49.2731Z" fill="#6B63FF"/>
</svg>
