<svg width="96" height="96" viewBox="0 0 96 96" fill="none" xmlns="http://www.w3.org/2000/svg">
<path d="M93.6981 44.0149C95.1212 46.4795 95.1213 49.5161 93.6984 51.9809L74.3003 85.5831C72.8774 88.0478 70.2477 89.5663 67.4017 89.5664L28.6023 89.5682C25.7563 89.5683 23.1264 88.0501 21.7033 85.5855L2.30205 51.9851C0.87895 49.5205 0.878809 46.4839 2.30168 44.0191L21.6998 10.417C23.1227 7.95219 25.7524 6.43375 28.5984 6.43362L67.3978 6.43181C70.2438 6.43168 72.8737 7.94988 74.2968 10.4145L93.6981 44.0149Z" fill="white"/>
<g clip-path="url(#clip0_251_5747)">
<path d="M48.495 68.625H47.505V65.875H48.495V68.625ZM62.234 62.9339L60.2897 60.9896L60.991 60.2884L62.9352 62.2326L62.234 62.9339ZM33.766 62.9339L33.0661 62.2326L35.0104 60.2884L35.7102 60.9896L33.766 62.9339ZM51.4375 62.245C49.9621 62.245 48.6724 61.4269 48 60.2196C47.3276 61.4269 46.0392 62.245 44.5625 62.245C42.786 62.245 41.2556 61.0419 40.7895 59.3658C37.8415 60.0918 35.1314 57.7652 35.13 54.875C35.13 54.314 35.2386 53.7585 35.4517 53.2209C33.5708 52.1663 32.38 50.1684 32.38 48C32.38 45.833 33.5708 43.8337 35.4517 42.7791C35.2386 42.2415 35.13 41.686 35.13 41.125C35.13 38.2347 37.8222 35.9096 40.7895 36.6329C41.2542 34.9581 42.786 33.755 44.5625 33.755C46.0392 33.755 47.3276 34.5731 48 35.779C48.6724 34.5731 49.9621 33.755 51.4375 33.755C53.214 33.755 54.7444 34.9581 55.2091 36.6329C58.1365 35.9179 60.87 38.232 60.87 41.125C60.87 41.686 60.7614 42.2401 60.5482 42.7791C62.4292 43.8337 63.62 45.8316 63.62 48C63.62 50.1684 62.4292 52.1663 60.5482 53.2209C60.7614 53.7599 60.87 54.314 60.87 54.875C60.87 57.7652 58.1654 60.0876 55.2091 59.3671C54.7444 61.0419 53.214 62.245 51.4375 62.245ZM48.495 58.3125C48.495 59.935 49.815 61.255 51.4375 61.255C52.9101 61.255 54.1586 60.1454 54.3401 58.6741C54.3594 58.5243 54.4446 58.3909 54.5739 58.3111C54.7045 58.2341 54.8626 58.219 55.0029 58.2699C57.5301 59.2021 59.88 57.2868 59.88 54.875C59.88 54.3154 59.7384 53.7585 59.4606 53.2209C59.3988 53.1013 59.3891 52.961 59.4331 52.8317C59.4771 52.7039 59.572 52.5994 59.6944 52.5444C61.4777 51.7304 62.6286 49.947 62.6286 48C62.6286 46.053 61.4764 44.271 59.6944 43.4556C59.5706 43.3993 59.4757 43.2947 59.4331 43.1669C59.3891 43.039 59.3988 42.8987 59.462 42.7778C59.7384 42.2401 59.88 41.6846 59.88 41.125C59.88 38.716 57.559 36.7965 55.0029 37.7301C54.8612 37.781 54.7017 37.7673 54.5739 37.6875C54.4446 37.6091 54.3594 37.4758 54.3401 37.3259C54.1586 35.8546 52.9101 34.745 51.4375 34.745C49.815 34.745 48.495 36.065 48.495 37.6875V39.75H47.505V37.6875C47.505 36.065 46.185 34.745 44.5625 34.745C43.0899 34.745 41.8414 35.8546 41.6585 37.3272C41.6392 37.4771 41.554 37.6105 41.4248 37.6889C41.2955 37.7686 41.1374 37.7824 40.9958 37.7315C38.4493 36.7951 36.12 38.716 36.12 41.125C36.12 41.686 36.2616 42.2415 36.538 42.7778C36.5751 42.8492 36.593 42.9263 36.593 43.006C36.593 43.061 36.5848 43.1146 36.5655 43.1683C36.5215 43.2961 36.4266 43.4006 36.3029 43.457C34.5223 44.271 33.37 46.0544 33.37 48C33.37 49.947 34.5223 51.7304 36.3042 52.5444C36.428 52.6007 36.5229 52.7039 36.5669 52.8331C36.5848 52.8854 36.5944 52.939 36.5944 52.994C36.5944 53.0724 36.5765 53.1494 36.5394 53.2209C36.2603 53.7585 36.12 54.3154 36.12 54.875C36.12 57.2868 38.4699 59.2008 40.9958 58.2699C41.1346 58.2176 41.2955 58.2341 41.4248 58.3111C41.554 58.3909 41.6406 58.5229 41.6585 58.6741C41.84 60.1454 43.0899 61.255 44.5625 61.255C46.185 61.255 47.505 59.935 47.505 58.3125V56.25H48.495V58.3125ZM41.9913 55.37C41.8634 55.37 41.7369 55.3205 41.642 55.2256L40.7758 54.3594C40.619 54.2026 40.5846 53.9593 40.6946 53.7654L41.7561 51.8816C41.8317 51.7455 41.9665 51.6547 42.1205 51.6341C42.2773 51.6052 42.4285 51.6644 42.5385 51.7758L43.0307 52.268L45.5883 49.7119L46.2881 50.4131L43.7292 52.9692L44.2256 53.467C44.3356 53.5756 44.3865 53.7296 44.3659 53.885C44.3453 54.0376 44.2531 54.1724 44.1184 54.248L42.2346 55.3067C42.1576 55.3494 42.0738 55.37 41.9913 55.37ZM41.741 53.9249L42.0765 54.2604L43.0651 53.7049L42.2992 52.9376L41.741 53.9249ZM52.1511 55.3686C51.3137 55.3686 50.486 55.0441 49.8686 54.4254C49.0587 53.6141 48.7439 52.4316 49.0285 51.3344L44.6656 46.9715C43.5697 47.252 42.3845 46.9426 41.5746 46.13C40.6107 45.1661 40.3578 43.6921 40.9449 42.4615C41.0136 42.3171 41.1498 42.214 41.3079 42.1865C41.4688 42.1576 41.6283 42.2113 41.741 42.3254L43.5601 44.1445C43.7183 44.2999 43.9919 44.2985 44.1459 44.1445C44.3067 43.9823 44.3067 43.7196 44.1459 43.5588L42.3267 41.7396C42.2126 41.6255 42.1617 41.4646 42.1879 41.3065C42.2154 41.1484 42.3171 41.0136 42.4629 40.9435C43.6935 40.3577 45.1675 40.6094 46.1314 41.5732C46.9426 42.3845 47.2561 43.5684 46.9715 44.6656L51.3344 49.0271C52.4302 48.7411 53.6128 49.056 54.4254 49.8673C55.3892 50.8325 55.6423 52.3051 55.0551 53.5357C54.985 53.6801 54.8502 53.7833 54.6907 53.8094C54.5395 53.841 54.3717 53.7846 54.2576 53.6719L52.4385 51.8528C52.2776 51.6919 52.015 51.6919 51.8514 51.8528C51.6919 52.0136 51.6919 52.2776 51.8528 52.4385L53.6719 54.2576C53.7846 54.3717 53.8369 54.5326 53.8094 54.6907C53.7819 54.8489 53.6801 54.985 53.5357 55.0551C53.0944 55.2669 52.62 55.3686 52.1511 55.3686ZM44.8031 45.9155C44.9324 45.9155 45.0589 45.9664 45.1524 46.0599L49.9387 50.8449C50.0763 50.9824 50.1203 51.1859 50.0529 51.3674C49.7504 52.1841 49.9525 53.1095 50.5685 53.7241C51.0525 54.2109 51.7331 54.4309 52.3808 54.3662L51.1515 53.1384C50.6056 52.5925 50.6056 51.7001 51.1515 51.1529C51.7015 50.6056 52.5911 50.607 53.1384 51.1515L54.3662 52.3808C54.435 51.7235 54.2109 51.0525 53.7241 50.5685C53.1081 49.9525 52.1814 49.749 51.3674 50.0529C51.1859 50.1175 50.9837 50.0749 50.8449 49.9387L46.0599 45.1538C45.9224 45.0176 45.8784 44.8127 45.9457 44.6326C46.2482 43.8159 46.0461 42.8891 45.4301 42.2745C44.9447 41.7891 44.2738 41.565 43.6165 41.6324L44.8444 42.8616C45.3916 43.4089 45.3916 44.2999 44.8444 44.8471C44.315 45.3765 43.3869 45.3765 42.8589 44.8471L41.631 43.6192C41.5623 44.2765 41.7878 44.9475 42.2731 45.4329C42.8891 46.0489 43.8145 46.251 44.6299 45.9485C44.6862 45.9265 44.7454 45.9155 44.8031 45.9155ZM68.625 48.495H65.875V47.505H68.625V48.495ZM30.125 48.495H27.375V47.505H30.125V48.495ZM51.2601 46.9742L50.5589 46.2744L54.2054 42.6265C54.3181 42.5138 54.3786 42.3666 54.3786 42.2085C54.3786 42.0504 54.3181 41.9032 54.2067 41.7919C53.9813 41.5677 53.5963 41.5677 53.3735 41.7919L49.7284 45.4384L49.0285 44.7385L52.6736 41.092C53.2704 40.4939 54.3113 40.4939 54.908 41.092C55.2064 41.3904 55.3714 41.7864 55.3714 42.2085C55.3714 42.6306 55.2064 43.028 54.9066 43.3264L51.2601 46.9742ZM60.9896 35.7102L60.2884 35.0104L62.2326 33.0661L62.9339 33.766L60.9896 35.7102ZM35.0104 35.7102L33.0661 33.766L33.766 33.0661L35.7102 35.0104L35.0104 35.7102ZM48.495 30.125H47.505V27.375H48.495V30.125Z" fill="#6C63FF"/>
</g>
<defs>
<clipPath id="clip0_251_5747">
<rect width="44" height="44" fill="white" transform="translate(26 26)"/>
</clipPath>
</defs>
</svg>
