<svg width="237" height="237" viewBox="0 0 237 237" fill="none" xmlns="http://www.w3.org/2000/svg">
<path d="M232.379 110.498C235.237 115.448 235.237 121.547 232.379 126.498L182.372 213.122C179.514 218.073 174.232 221.123 168.516 221.123L68.4935 221.128C62.7773 221.128 57.4951 218.079 54.6368 213.128L4.62147 126.509C1.76311 121.558 1.76283 115.459 4.62072 110.509L54.628 23.8842C57.4858 18.9336 62.7678 15.8838 68.484 15.8835L168.507 15.8789C174.223 15.8786 179.505 18.9279 182.363 23.8782L232.379 110.498Z" fill="white"/>
<g clip-path="url(#clip0_348_209)">
<path d="M119.35 175.25H116.65V167.75H119.35V175.25ZM156.82 159.728L151.517 154.426L153.43 152.513L158.732 157.816L156.82 159.728ZM79.1799 159.728L77.2712 157.816L82.5737 152.513L84.4824 154.426L79.1799 159.728ZM127.375 157.85C123.351 157.85 119.834 155.618 118 152.326C116.166 155.618 112.652 157.85 108.625 157.85C103.78 157.85 99.6062 154.568 98.3349 149.997C90.2949 151.977 82.9037 145.632 82.8999 137.75C82.8999 136.22 83.1962 134.705 83.7774 133.238C78.6474 130.362 75.3999 124.913 75.3999 119C75.3999 113.09 78.6474 107.637 83.7774 104.761C83.1962 103.295 82.8999 101.78 82.8999 100.25C82.8999 92.367 90.2424 86.0258 98.3349 87.9983C99.6024 83.4308 103.78 80.1495 108.625 80.1495C112.652 80.1495 116.166 82.3808 118 85.6695C119.834 82.3808 123.351 80.1495 127.375 80.1495C132.22 80.1495 136.394 83.4308 137.661 87.9983C145.645 86.0483 153.1 92.3595 153.1 100.25C153.1 101.78 152.804 103.291 152.222 104.761C157.352 107.637 160.6 113.086 160.6 119C160.6 124.913 157.352 130.362 152.222 133.238C152.804 134.708 153.1 136.22 153.1 137.75C153.1 145.632 145.724 151.966 137.661 150.001C136.394 154.568 132.22 157.85 127.375 157.85ZM119.35 147.125C119.35 151.55 122.95 155.15 127.375 155.15C131.391 155.15 134.796 152.123 135.291 148.111C135.344 147.702 135.576 147.338 135.929 147.121C136.285 146.911 136.716 146.87 137.099 147.008C143.991 149.551 150.4 144.327 150.4 137.75C150.4 136.223 150.014 134.705 149.256 133.238C149.087 132.912 149.061 132.53 149.181 132.177C149.301 131.828 149.56 131.543 149.894 131.393C154.757 129.173 157.896 124.31 157.896 119C157.896 113.69 154.754 108.83 149.894 106.606C149.556 106.452 149.297 106.167 149.181 105.818C149.061 105.47 149.087 105.087 149.26 104.757C150.014 103.291 150.4 101.776 150.4 100.25C150.4 93.6795 144.07 88.4445 137.099 90.9908C136.712 91.1295 136.277 91.092 135.929 90.8745C135.576 90.6608 135.344 90.297 135.291 89.8883C134.796 85.8758 131.391 82.8495 127.375 82.8495C122.95 82.8495 119.35 86.4495 119.35 90.8745V96.4995H116.65V90.8745C116.65 86.4495 113.05 82.8495 108.625 82.8495C104.609 82.8495 101.204 85.8758 100.705 89.892C100.652 90.3008 100.42 90.6645 100.067 90.8783C99.7149 91.0958 99.2837 91.1333 98.8974 90.9945C91.9524 88.4408 85.5999 93.6795 85.5999 100.25C85.5999 101.78 85.9862 103.295 86.7399 104.757C86.8412 104.952 86.8899 105.162 86.8899 105.38C86.8899 105.53 86.8674 105.676 86.8149 105.822C86.6949 106.171 86.4362 106.456 86.0987 106.61C81.2424 108.83 78.0999 113.693 78.0999 119C78.0999 124.31 81.2424 129.173 86.1024 131.393C86.4399 131.547 86.6987 131.828 86.8187 132.181C86.8674 132.323 86.8937 132.47 86.8937 132.62C86.8937 132.833 86.8449 133.043 86.7437 133.238C85.9824 134.705 85.5999 136.223 85.5999 137.75C85.5999 144.327 92.0087 149.547 98.8974 147.008C99.2762 146.866 99.7149 146.911 100.067 147.121C100.42 147.338 100.656 147.698 100.705 148.111C101.2 152.123 104.609 155.15 108.625 155.15C113.05 155.15 116.65 151.55 116.65 147.125V141.5H119.35V147.125ZM101.612 139.1C101.264 139.1 100.919 138.965 100.66 138.706L98.2974 136.343C97.8699 135.916 97.7762 135.252 98.0762 134.723L100.971 129.586C101.177 129.215 101.545 128.967 101.965 128.911C102.392 128.832 102.805 128.993 103.105 129.297L104.447 130.64L111.422 123.668L113.331 125.581L106.352 132.552L107.706 133.91C108.006 134.206 108.145 134.626 108.089 135.05C108.032 135.466 107.781 135.833 107.414 136.04L102.276 138.927C102.066 139.043 101.837 139.1 101.612 139.1ZM100.93 135.158L101.845 136.073L104.541 134.558L102.452 132.466L100.93 135.158ZM129.321 139.096C127.037 139.096 124.78 138.211 123.096 136.523C120.887 134.311 120.029 131.086 120.805 128.093L108.906 116.195C105.917 116.96 102.685 116.116 100.476 113.9C97.8474 111.271 97.1574 107.251 98.7587 103.895C98.9462 103.501 99.3174 103.22 99.7487 103.145C100.187 103.066 100.622 103.212 100.93 103.523L105.891 108.485C106.322 108.908 107.069 108.905 107.489 108.485C107.927 108.042 107.927 107.326 107.489 106.887L102.527 101.926C102.216 101.615 102.077 101.176 102.149 100.745C102.224 100.313 102.501 99.9458 102.899 99.7545C106.255 98.157 110.275 98.8433 112.904 101.472C115.116 103.685 115.971 106.913 115.195 109.906L127.094 121.801C130.082 121.021 133.307 121.88 135.524 124.092C138.152 126.725 138.842 130.741 137.241 134.097C137.05 134.491 136.682 134.772 136.247 134.843C135.835 134.93 135.377 134.776 135.066 134.468L130.105 129.507C129.666 129.068 128.95 129.068 128.504 129.507C128.069 129.946 128.069 130.666 128.507 131.105L133.469 136.066C133.776 136.377 133.919 136.816 133.844 137.247C133.769 137.678 133.491 138.05 133.097 138.241C131.894 138.818 130.6 139.096 129.321 139.096ZM109.281 113.315C109.634 113.315 109.979 113.453 110.234 113.708L123.287 126.758C123.662 127.133 123.782 127.688 123.599 128.183C122.774 130.411 123.325 132.935 125.005 134.611C126.325 135.938 128.181 136.538 129.947 136.362L126.595 133.013C125.106 131.525 125.106 129.091 126.595 127.598C128.095 126.106 130.521 126.11 132.014 127.595L135.362 130.947C135.55 129.155 134.939 127.325 133.611 126.005C131.931 124.325 129.404 123.77 127.184 124.598C126.689 124.775 126.137 124.658 125.759 124.287L112.709 111.237C112.334 110.866 112.214 110.307 112.397 109.816C113.222 107.588 112.671 105.061 110.991 103.385C109.667 102.061 107.837 101.45 106.045 101.633L109.394 104.986C110.886 106.478 110.886 108.908 109.394 110.401C107.95 111.845 105.419 111.845 103.979 110.401L100.63 107.052C100.442 108.845 101.057 110.675 102.381 111.998C104.061 113.678 106.585 114.23 108.809 113.405C108.962 113.345 109.124 113.315 109.281 113.315ZM174.25 120.35H166.75V117.65H174.25V120.35ZM69.2499 120.35H61.7499V117.65H69.2499V120.35ZM126.891 116.202L124.979 114.293L134.924 104.345C135.231 104.037 135.396 103.636 135.396 103.205C135.396 102.773 135.231 102.372 134.927 102.068C134.312 101.457 133.262 101.457 132.655 102.068L122.714 112.013L120.805 110.105L130.746 100.16C132.374 98.5283 135.212 98.5283 136.84 100.16C137.654 100.973 138.104 102.053 138.104 103.205C138.104 104.356 137.654 105.44 136.836 106.253L126.891 116.202ZM153.426 85.482L151.514 83.5733L156.816 78.2708L158.729 80.1795L153.426 85.482ZM82.5737 85.482L77.2712 80.1795L79.1799 78.2708L84.4824 83.5733L82.5737 85.482ZM119.35 70.2495H116.65V62.7495H119.35V70.2495Z" fill="#6C63FF"/>
</g>
<defs>
<clipPath id="clip0_348_209">
<rect width="120" height="120" fill="white" transform="translate(57.9999 58.9995)"/>
</clipPath>
</defs>
</svg>
