<svg width="118" height="119" viewBox="0 0 118 119" fill="none" xmlns="http://www.w3.org/2000/svg">
<path d="M115.698 55.3745C117.121 57.8391 117.121 60.8757 115.698 63.3405L90.8005 106.469C89.3776 108.934 86.7479 110.452 83.9019 110.452L34.103 110.454C31.2571 110.455 28.6272 108.936 27.2041 106.472L2.30263 63.3457C0.879522 60.8811 0.879389 57.8445 2.30226 55.3797L27.1997 12.2515C28.6226 9.78671 31.2523 8.26827 34.0983 8.26814L83.8972 8.26583C86.7432 8.26569 89.373 9.78389 90.7961 12.2485L115.698 55.3745Z" fill="white"/>
<g clip-path="url(#clip0_241_4775)">
<path d="M60.675 87.4851H59.325V83.7351H60.675V87.4851ZM79.41 79.7245L76.7588 77.0732L77.715 76.117L80.3662 78.7682L79.41 79.7245ZM40.59 79.7245L39.6356 78.7682L42.2869 76.117L43.2413 77.0732L40.59 79.7245ZM64.6875 78.7851C62.6756 78.7851 60.9169 77.6695 60 76.0232C59.0831 77.6695 57.3263 78.7851 55.3125 78.7851C52.89 78.7851 50.8031 77.1445 50.1675 74.8589C46.1475 75.8489 42.4519 72.6764 42.45 68.7351C42.45 67.9701 42.5981 67.2126 42.8888 66.4795C40.3238 65.0414 38.7 62.317 38.7 59.3601C38.7 56.4051 40.3238 53.6789 42.8888 52.2407C42.5981 51.5076 42.45 50.7501 42.45 49.9851C42.45 46.0439 46.1212 42.8732 50.1675 43.8595C50.8012 41.5757 52.89 39.9351 55.3125 39.9351C57.3263 39.9351 59.0831 41.0507 60 42.6951C60.9169 41.0507 62.6756 39.9351 64.6875 39.9351C67.11 39.9351 69.1969 41.5757 69.8306 43.8595C73.8225 42.8845 77.55 46.0401 77.55 49.9851C77.55 50.7501 77.4019 51.5057 77.1112 52.2407C79.6763 53.6789 81.3 56.4032 81.3 59.3601C81.3 62.317 79.6763 65.0414 77.1112 66.4795C77.4019 67.2145 77.55 67.9701 77.55 68.7351C77.55 72.6764 73.8619 75.8432 69.8306 74.8607C69.1969 77.1445 67.11 78.7851 64.6875 78.7851ZM60.675 73.4226C60.675 75.6351 62.475 77.4351 64.6875 77.4351C66.6956 77.4351 68.3981 75.922 68.6456 73.9157C68.6719 73.7114 68.7881 73.5295 68.9644 73.4207C69.1425 73.3157 69.3581 73.2951 69.5494 73.3645C72.9956 74.6357 76.2 72.0239 76.2 68.7351C76.2 67.972 76.0069 67.2126 75.6281 66.4795C75.5437 66.3164 75.5306 66.1251 75.5906 65.9489C75.6506 65.7745 75.78 65.632 75.9469 65.557C78.3787 64.447 79.9481 62.0151 79.9481 59.3601C79.9481 56.7051 78.3769 54.2751 75.9469 53.1632C75.7781 53.0864 75.6488 52.9439 75.5906 52.7695C75.5306 52.5951 75.5438 52.4039 75.63 52.2389C76.0069 51.5057 76.2 50.7482 76.2 49.9851C76.2 46.7001 73.035 44.0826 69.5494 45.3557C69.3563 45.4251 69.1388 45.4064 68.9644 45.2976C68.7881 45.1907 68.6719 45.0089 68.6456 44.8045C68.3981 42.7982 66.6956 41.2851 64.6875 41.2851C62.475 41.2851 60.675 43.0851 60.675 45.2976V48.1101H59.325V45.2976C59.325 43.0851 57.525 41.2851 55.3125 41.2851C53.3044 41.2851 51.6019 42.7982 51.3525 44.8064C51.3263 45.0107 51.21 45.1926 51.0338 45.2995C50.8575 45.4082 50.6419 45.427 50.4487 45.3576C46.9763 44.0807 43.8 46.7001 43.8 49.9851C43.8 50.7501 43.9931 51.5076 44.37 52.2389C44.4206 52.3364 44.445 52.4414 44.445 52.5501C44.445 52.6251 44.4338 52.6982 44.4075 52.7714C44.3475 52.9457 44.2181 53.0882 44.0494 53.1651C41.6213 54.2751 40.05 56.707 40.05 59.3601C40.05 62.0151 41.6213 64.447 44.0512 65.557C44.22 65.6339 44.3494 65.7745 44.4094 65.9507C44.4338 66.022 44.4469 66.0951 44.4469 66.1701C44.4469 66.277 44.4225 66.382 44.3719 66.4795C43.9913 67.2126 43.8 67.972 43.8 68.7351C43.8 72.0239 47.0044 74.6339 50.4487 73.3645C50.6381 73.2932 50.8575 73.3157 51.0338 73.4207C51.21 73.5295 51.3281 73.7095 51.3525 73.9157C51.6 75.922 53.3044 77.4351 55.3125 77.4351C57.525 77.4351 59.325 75.6351 59.325 73.4226V70.6101H60.675V73.4226ZM51.8062 69.4101C51.6319 69.4101 51.4594 69.3426 51.33 69.2132L50.1488 68.032C49.935 67.8182 49.8881 67.4864 50.0381 67.222L51.4856 64.6532C51.5887 64.4676 51.7725 64.3439 51.9825 64.3157C52.1962 64.2764 52.4025 64.357 52.5525 64.5089L53.2237 65.1801L56.7113 61.6945L57.6656 62.6507L54.1763 66.1364L54.8531 66.8151C55.0031 66.9632 55.0725 67.1732 55.0444 67.3851C55.0163 67.5932 54.8906 67.777 54.7069 67.8801L52.1381 69.3239C52.0331 69.382 51.9188 69.4101 51.8062 69.4101ZM51.465 67.4395L51.9225 67.897L53.2706 67.1395L52.2262 66.0932L51.465 67.4395ZM65.6606 69.4082C64.5187 69.4082 63.39 68.9657 62.5481 68.122C61.4437 67.0157 61.0144 65.4032 61.4025 63.907L55.4531 57.9576C53.9587 58.3401 52.3425 57.9182 51.2381 56.8101C49.9237 55.4957 49.5788 53.4857 50.3794 51.8076C50.4731 51.6107 50.6588 51.4701 50.8744 51.4326C51.0938 51.3932 51.3113 51.4664 51.465 51.622L53.9456 54.1026C54.1612 54.3145 54.5344 54.3126 54.7444 54.1026C54.9637 53.8814 54.9637 53.5232 54.7444 53.3039L52.2638 50.8232C52.1081 50.6676 52.0387 50.4482 52.0744 50.2326C52.1119 50.017 52.2506 49.8332 52.4494 49.7376C54.1275 48.9389 56.1375 49.282 57.4519 50.5964C58.5581 51.7026 58.9856 53.317 58.5975 54.8132L64.5469 60.7607C66.0412 60.3707 67.6538 60.8001 68.7619 61.9064C70.0763 63.2226 70.4212 65.2307 69.6206 66.9089C69.525 67.1057 69.3412 67.2464 69.1237 67.282C68.9175 67.3251 68.6888 67.2482 68.5331 67.0945L66.0525 64.6139C65.8331 64.3945 65.475 64.3945 65.2519 64.6139C65.0344 64.8332 65.0344 65.1932 65.2537 65.4126L67.7344 67.8932C67.8881 68.0489 67.9594 68.2682 67.9219 68.4839C67.8844 68.6995 67.7456 68.8851 67.5487 68.9807C66.9469 69.2695 66.3 69.4082 65.6606 69.4082ZM55.6406 56.5176C55.8169 56.5176 55.9894 56.587 56.1169 56.7145L62.6437 63.2395C62.8312 63.427 62.8913 63.7045 62.7994 63.952C62.3869 65.0657 62.6625 66.3276 63.5025 67.1657C64.1625 67.8295 65.0906 68.1295 65.9738 68.0414L64.2975 66.367C63.5531 65.6226 63.5531 64.4057 64.2975 63.6595C65.0475 62.9132 66.2606 62.9151 67.0069 63.6576L68.6812 65.3339C68.775 64.4376 68.4694 63.5226 67.8056 62.8626C66.9656 62.0226 65.7019 61.7451 64.5919 62.1595C64.3444 62.2476 64.0688 62.1895 63.8794 62.0039L57.3544 55.4789C57.1669 55.2932 57.1069 55.0139 57.1987 54.7682C57.6112 53.6545 57.3356 52.3907 56.4956 51.5526C55.8337 50.8907 54.9188 50.5851 54.0225 50.677L55.6969 52.3532C56.4431 53.0995 56.4431 54.3145 55.6969 55.0607C54.975 55.7826 53.7094 55.7826 52.9894 55.0607L51.315 53.3864C51.2213 54.2826 51.5287 55.1976 52.1906 55.8595C53.0306 56.6995 54.2925 56.9751 55.4044 56.5626C55.4812 56.5326 55.5619 56.5176 55.6406 56.5176ZM88.125 60.0351H84.375V58.6851H88.125V60.0351ZM35.625 60.0351H31.875V58.6851H35.625V60.0351ZM64.4456 57.9614L63.4894 57.007L68.4619 52.0326C68.6156 51.8789 68.6981 51.6782 68.6981 51.4626C68.6981 51.247 68.6156 51.0464 68.4637 50.8945C68.1562 50.5889 67.6313 50.5889 67.3275 50.8945L62.3569 55.867L61.4025 54.9126L66.3731 49.9401C67.1869 49.1245 68.6063 49.1245 69.42 49.9401C69.8269 50.347 70.0519 50.887 70.0519 51.4626C70.0519 52.0382 69.8269 52.5801 69.4181 52.987L64.4456 57.9614ZM77.7131 42.6014L76.7569 41.647L79.4081 38.9957L80.3644 39.9501L77.7131 42.6014ZM42.2869 42.6014L39.6356 39.9501L40.59 38.9957L43.2413 41.647L42.2869 42.6014ZM60.675 34.9851H59.325V31.2351H60.675V34.9851Z" fill="#6C63FF"/>
</g>
<defs>
<clipPath id="clip0_241_4775">
<rect width="60" height="60" fill="white" transform="translate(30 29.3601)"/>
</clipPath>
</defs>
</svg>
