<svg width="237" height="237" viewBox="0 0 237 237" fill="none" xmlns="http://www.w3.org/2000/svg">
<path d="M232.379 110.498C235.237 115.448 235.237 121.547 232.379 126.498L182.372 213.122C179.514 218.073 174.232 221.123 168.516 221.123L68.4935 221.128C62.7773 221.128 57.4951 218.079 54.6368 213.128L4.62147 126.509C1.76311 121.558 1.76283 115.459 4.62072 110.509L54.628 23.8842C57.4858 18.9336 62.7678 15.8838 68.484 15.8835L168.507 15.8789C174.223 15.8786 179.505 18.9279 182.363 23.8782L232.379 110.498Z" fill="white"/>
<g clip-path="url(#clip0_348_207)">
<g clip-path="url(#clip1_348_207)">
<path d="M122.929 89.019C120.686 89.019 118.863 87.1947 118.863 84.9528C118.863 82.711 120.687 80.8867 122.929 80.8867C125.171 80.8867 126.995 82.711 126.995 84.9528C126.995 87.1947 125.171 89.019 122.929 89.019ZM122.929 83.5197C122.139 83.5197 121.497 84.1625 121.497 84.9515C121.497 85.7405 122.14 86.3833 122.929 86.3833C123.718 86.3833 124.361 85.7405 124.361 84.9515C124.361 84.1625 123.718 83.5197 122.929 83.5197Z" fill="#6C63FF"/>
<path d="M180.988 108.35H177.738L166.663 73.5236C168.169 72.3776 168.842 70.3571 168.162 68.488C167.757 67.3736 166.943 66.4845 165.868 65.984C164.793 65.4835 163.589 65.4308 162.475 65.8352C161.36 66.2409 160.471 67.0549 159.969 68.131C159.661 68.7923 159.544 69.5022 159.578 70.2109L130.803 80.6483C129.276 77.8664 126.319 75.9749 122.927 75.9749C117.978 75.9749 113.951 80.0028 113.951 84.9515C113.951 85.5561 114.013 86.1449 114.127 86.7165L85.3771 97.2158C84.9477 96.6521 84.4011 96.1832 83.7412 95.8749C82.6677 95.3757 81.4611 95.3204 80.3468 95.7274C78.047 96.5638 76.8575 99.1165 77.694 101.416C78.0088 102.28 78.5699 102.984 79.2654 103.486L68.3248 137.888H65.0753C64.3482 137.888 63.7581 138.477 63.7581 139.205V143.664C63.7581 147.157 66.6006 150.001 70.0951 150.001H93.6319C97.1251 150.001 99.9689 147.158 99.9689 143.664V139.205C99.9689 138.477 99.3788 137.888 98.6517 137.888H95.4022L84.4604 103.476C85.0649 103.039 85.5628 102.469 85.8869 101.775C86.1951 101.112 86.3123 100.402 86.2781 99.6922L115.02 89.1955C115.825 90.6892 117.042 91.926 118.516 92.7611V137.98C110.788 138.479 104.621 144.737 104.263 152.502H100.303C99.5764 152.502 98.9863 153.091 98.9863 153.819V161.006C98.9863 161.734 99.5764 162.323 100.303 162.323H145.554C146.283 162.323 146.871 161.734 146.871 161.006V153.819C146.871 153.091 146.283 152.502 145.554 152.502H141.593C141.235 144.736 135.068 138.478 127.34 137.98V92.7611C130.063 91.2174 131.907 88.2972 131.907 84.9502C131.907 84.3219 131.841 83.7094 131.717 83.1167L160.479 72.6859C160.803 73.1126 161.2 73.4749 161.662 73.7607L150.662 108.35H147.413C146.684 108.35 146.096 108.94 146.096 109.667V114.126C146.096 117.619 148.938 120.462 152.433 120.462H175.969C179.463 120.462 182.306 117.619 182.306 114.126V109.667C182.305 108.94 181.716 108.35 180.988 108.35ZM81.2464 98.2037C81.4479 98.13 81.6574 98.0944 81.8642 98.0944C82.125 98.0944 82.3831 98.151 82.6268 98.2643C83.0641 98.4672 83.3947 98.8294 83.5594 99.2812V99.2825C83.7227 99.7343 83.703 100.224 83.4988 100.66C83.296 101.098 82.9337 101.428 82.4819 101.593C81.5494 101.937 80.5088 101.449 80.169 100.515C79.8278 99.5815 80.3125 98.5436 81.2464 98.2037ZM97.3345 143.663C97.3345 145.704 95.6736 147.365 93.6319 147.365H70.0951C68.0535 147.365 66.3925 145.704 66.3925 143.663V140.521H97.3345V143.663ZM71.0896 137.888L81.7614 104.33C81.7983 104.331 81.8339 104.338 81.8694 104.338C81.9011 104.338 81.934 104.33 81.9669 104.33L92.6375 137.888H71.0896ZM144.237 159.69H101.621V155.138H105.545H140.313H144.237V159.69ZM138.976 152.503H106.88C107.249 145.858 112.771 140.566 119.505 140.566H119.833H126.022H126.35C133.086 140.566 138.606 145.858 138.976 152.503ZM124.706 137.931H121.152V93.7516C121.726 93.8675 122.32 93.9295 122.929 93.9295C123.537 93.9295 124.131 93.8675 124.706 93.7516V137.931ZM122.929 91.2964C119.432 91.2964 116.587 88.45 116.587 84.9528C116.587 81.4557 119.432 78.6106 122.929 78.6106C126.427 78.6106 129.272 81.4557 129.272 84.9528C129.272 88.45 126.426 91.2964 122.929 91.2964ZM162.358 69.2427C162.562 68.8067 162.924 68.4748 163.376 68.3102C163.577 68.2364 163.787 68.2008 163.995 68.2008C164.254 68.2008 164.514 68.2575 164.756 68.3708C165.192 68.5749 165.524 68.9358 165.689 69.3876C166.029 70.3228 165.545 71.3608 164.611 71.7006C164.158 71.8666 163.669 71.8442 163.231 71.6413C162.796 71.4385 162.464 71.0776 162.3 70.6245C162.3 70.6231 162.298 70.6231 162.298 70.6218C162.134 70.17 162.153 69.68 162.358 69.2427ZM164.2 74.4706L174.974 108.35H153.427L164.2 74.4706ZM179.671 114.126C179.671 116.168 178.01 117.829 175.968 117.829H152.433C150.391 117.829 148.73 116.168 148.73 114.126V110.984H151.621C151.622 110.984 151.624 110.984 151.625 110.984C151.626 110.984 151.628 110.984 151.629 110.984H176.771C176.773 110.984 176.774 110.984 176.775 110.984C176.777 110.984 176.778 110.984 176.779 110.984H179.671V114.126Z" fill="#6C63FF"/>
</g>
</g>
<defs>
<clipPath id="clip0_348_207">
<rect width="120" height="120" fill="white" transform="translate(63.0002 59)"/>
</clipPath>
<clipPath id="clip1_348_207">
<rect width="120" height="120" fill="white" transform="translate(63 58.9995)"/>
</clipPath>
</defs>
</svg>
