<svg width="96" height="96" viewBox="0 0 96 96" fill="none" xmlns="http://www.w3.org/2000/svg">
<path d="M93.6981 44.0149C95.1212 46.4795 95.1213 49.5161 93.6984 51.9809L74.3003 85.5831C72.8774 88.0478 70.2477 89.5663 67.4017 89.5664L28.6023 89.5682C25.7563 89.5683 23.1264 88.0501 21.7033 85.5855L2.30205 51.9851C0.87895 49.5205 0.878809 46.4839 2.30168 44.0191L21.6998 10.417C23.1227 7.95219 25.7524 6.43375 28.5984 6.43362L67.3978 6.43181C70.2438 6.43168 72.8737 7.94988 74.2968 10.4145L93.6981 44.0149Z" fill="white"/>
<g clip-path="url(#clip0_251_5703)">
<g clip-path="url(#clip1_251_5703)">
<path d="M47.9738 37.007C47.1513 37.007 46.4829 36.3381 46.4829 35.516C46.4829 34.694 47.1518 34.0251 47.9738 34.0251C48.7958 34.0251 49.4648 34.694 49.4648 35.516C49.4648 36.3381 48.7958 37.007 47.9738 37.007ZM47.9738 34.9906C47.6841 34.9906 47.4488 35.2263 47.4488 35.5156C47.4488 35.8049 47.6845 36.0405 47.9738 36.0405C48.2631 36.0405 48.4988 35.8049 48.4988 35.5156C48.4988 35.2263 48.2631 34.9906 47.9738 34.9906Z" fill="#6C63FF"/>
<path d="M69.2621 44.095H68.0706L64.0098 31.3253C64.5618 30.9051 64.8086 30.1643 64.5594 29.4789C64.4106 29.0703 64.1122 28.7443 63.7181 28.5608C63.324 28.3773 62.8825 28.358 62.4739 28.5062C62.0653 28.655 61.7393 28.9535 61.5553 29.3481C61.4423 29.5905 61.3993 29.8508 61.4119 30.1107L50.8609 33.9377C50.3012 32.9177 49.2169 32.2241 47.9733 32.2241C46.1583 32.2241 44.6818 33.7011 44.6818 35.5156C44.6818 35.7372 44.7045 35.9531 44.7466 36.1627L34.2048 40.0125C34.0474 39.8058 33.8469 39.6338 33.605 39.5208C33.2113 39.3378 32.7689 39.3175 32.3603 39.4667C31.5171 39.7734 31.081 40.7094 31.3876 41.5527C31.5031 41.8695 31.7088 42.1274 31.9638 42.3114L27.9523 54.9256H26.7608C26.4942 54.9256 26.2778 55.1415 26.2778 55.4086V57.0434C26.2778 58.3242 27.3201 59.367 28.6014 59.367H37.2316C38.5124 59.367 39.5551 58.3247 39.5551 57.0434V55.4086C39.5551 55.1415 39.3388 54.9256 39.0722 54.9256H37.8807L33.8687 42.308C34.0903 42.1477 34.2729 41.9386 34.3917 41.684C34.5047 41.4411 34.5477 41.1808 34.5351 40.9205L45.074 37.0717C45.3691 37.6194 45.8154 38.0729 46.3558 38.3791V54.9594C43.5222 55.1425 41.261 57.437 41.1296 60.2841H39.6778C39.4112 60.2841 39.1948 60.5 39.1948 60.7671V63.4022C39.1948 63.6693 39.4112 63.8852 39.6778 63.8852H56.2697C56.5368 63.8852 56.7527 63.6693 56.7527 63.4022V60.7671C56.7527 60.5 56.5368 60.2841 56.2697 60.2841H54.8174C54.6861 57.4366 52.4248 55.142 49.5912 54.9594V38.3791C50.5895 37.813 51.2657 36.7423 51.2657 35.5151C51.2657 35.2847 51.2415 35.0601 51.1961 34.8428L61.7422 31.0182C61.861 31.1746 62.0064 31.3075 62.1759 31.4123L58.1427 44.095H56.9512C56.6841 44.095 56.4682 44.3114 56.4682 44.578V46.2128C56.4682 47.4937 57.5105 48.5359 58.7918 48.5359H67.4219C68.7028 48.5359 69.7455 47.4937 69.7455 46.2128V44.578C69.745 44.3114 69.5291 44.095 69.2621 44.095ZM32.6902 40.3747C32.7641 40.3477 32.8409 40.3346 32.9167 40.3346C33.0123 40.3346 33.107 40.3554 33.1964 40.3969C33.3567 40.4713 33.4779 40.6041 33.5383 40.7698V40.7703C33.5982 40.9359 33.5909 41.1156 33.5161 41.2755C33.4417 41.4358 33.3089 41.557 33.1432 41.6174C32.8013 41.7434 32.4197 41.5647 32.2951 41.2223C32.1701 40.8799 32.3478 40.4993 32.6902 40.3747ZM38.5892 57.0429C38.5892 57.7915 37.9802 58.4006 37.2316 58.4006H28.6014C27.8528 58.4006 27.2438 57.7915 27.2438 57.0429V55.8911H38.5892V57.0429ZM28.966 54.9256L32.879 42.621C32.8926 42.6215 32.9056 42.6239 32.9187 42.6239C32.9302 42.6239 32.9423 42.621 32.9544 42.621L36.8669 54.9256H28.966ZM55.7867 62.9197H40.1608V61.2506H41.5995H54.348H55.7867V62.9197ZM53.8578 60.2846H42.0893C42.2245 57.848 44.2491 55.9075 46.7185 55.9075H46.8388H49.1078H49.228C51.6979 55.9075 53.722 57.848 53.8578 60.2846ZM48.6253 54.9415H47.3222V38.7423C47.5328 38.7848 47.7506 38.8075 47.9738 38.8075C48.1969 38.8075 48.4147 38.7848 48.6253 38.7423V54.9415ZM47.9738 37.842C46.6915 37.842 45.6483 36.7983 45.6483 35.516C45.6483 34.2338 46.6915 33.1906 47.9738 33.1906C49.2565 33.1906 50.2997 34.2338 50.2997 35.516C50.2997 36.7983 49.256 37.842 47.9738 37.842ZM62.4309 29.7557C62.5058 29.5958 62.6386 29.4741 62.8043 29.4137C62.8782 29.3867 62.955 29.3737 63.0313 29.3737C63.1264 29.3737 63.2216 29.3944 63.3104 29.436C63.4703 29.5108 63.592 29.6431 63.6524 29.8088C63.777 30.1517 63.5997 30.5323 63.2573 30.6569C63.0912 30.7178 62.912 30.7095 62.7512 30.6352C62.5918 30.5608 62.4701 30.4285 62.4097 30.2623C62.4097 30.2618 62.4092 30.2618 62.4092 30.2613C62.3488 30.0957 62.3561 29.916 62.4309 29.7557ZM63.1066 31.6726L67.0568 44.095H59.1564L63.1066 31.6726ZM68.7791 46.2128C68.7791 46.9614 68.1701 47.5705 67.4215 47.5705H58.7918C58.0432 47.5705 57.4341 46.9614 57.4341 46.2128V45.061H58.4943C58.4947 45.061 58.4952 45.061 58.4957 45.061C58.4962 45.061 58.4967 45.061 58.4972 45.061H67.7161C67.7166 45.061 67.717 45.061 67.7175 45.061C67.718 45.061 67.7185 45.061 67.719 45.061H68.7791V46.2128Z" fill="#6C63FF"/>
</g>
</g>
<defs>
<clipPath id="clip0_251_5703">
<rect width="44" height="44" fill="white" transform="translate(26 26)"/>
</clipPath>
<clipPath id="clip1_251_5703">
<rect width="44" height="44" fill="white" transform="translate(25.9998 25.9995)"/>
</clipPath>
</defs>
</svg>
