<svg width="118" height="119" viewBox="0 0 118 119" fill="none" xmlns="http://www.w3.org/2000/svg">
<path d="M115.697 55.3745C117.121 57.8391 117.121 60.8757 115.698 63.3405L90.8004 106.469C89.3775 108.934 86.7478 110.452 83.9018 110.452L34.1029 110.454C31.2569 110.455 28.6271 108.936 27.204 106.472L2.30251 63.3457C0.8794 60.8811 0.879267 57.8445 2.30214 55.3797L27.1996 12.2515C28.6225 9.78671 31.2522 8.26827 34.0982 8.26814L83.8971 8.26583C86.743 8.26569 89.3729 9.78389 90.796 12.2485L115.697 55.3745Z" fill="white"/>
<g clip-path="url(#clip0_240_4657)">
<g clip-path="url(#clip1_240_4657)">
<path d="M59.9642 44.3696C58.8426 44.3696 57.9312 43.4574 57.9312 42.3365C57.9312 41.2156 58.8433 40.3034 59.9642 40.3034C61.0852 40.3034 61.9973 41.2156 61.9973 42.3365C61.9973 43.4574 61.0852 44.3696 59.9642 44.3696ZM59.9642 41.62C59.5691 41.62 59.2483 41.9414 59.2483 42.3359C59.2483 42.7304 59.5697 43.0517 59.9642 43.0517C60.3587 43.0517 60.6801 42.7304 60.6801 42.3359C60.6801 41.9414 60.3587 41.62 59.9642 41.62Z" fill="#6C63FF"/>
<path d="M88.9937 54.0351H87.369L81.8315 36.6219C82.5843 36.0489 82.9209 35.0386 82.581 34.1041C82.3782 33.5469 81.9712 33.1024 81.4338 32.8521C80.8963 32.6018 80.2944 32.5755 79.7372 32.7777C79.18 32.9805 78.7355 33.3875 78.4846 33.9256C78.3305 34.2562 78.2718 34.6112 78.289 34.9655L63.9013 40.1842C63.138 38.7933 61.6595 37.8475 59.9636 37.8475C57.4886 37.8475 55.4753 39.8615 55.4753 42.3359C55.4753 42.6382 55.5062 42.9325 55.5635 43.2184L41.1884 48.468C40.9737 48.1862 40.7004 47.9517 40.3704 47.7976C39.8337 47.548 39.2304 47.5203 38.6732 47.7238C37.5233 48.142 36.9286 49.4184 37.3468 50.5683C37.5042 51.0003 37.7848 51.352 38.1325 51.6029L32.6623 68.8041H31.0375C30.674 68.8041 30.3789 69.0985 30.3789 69.4627V71.692C30.3789 73.4386 31.8002 74.8605 33.5474 74.8605H45.3158C47.0624 74.8605 48.4843 73.4393 48.4843 71.692V69.4627C48.4843 69.0985 48.1893 68.8041 47.8257 68.8041H46.201L40.73 51.5983C41.0323 51.3797 41.2813 51.0945 41.4433 50.7474C41.5974 50.4161 41.656 50.0612 41.6389 49.7062L56.0101 44.4579C56.4125 45.2047 57.021 45.8231 57.758 46.2407V68.8502C53.894 69.0998 50.8105 72.2288 50.6313 76.1112H48.6516C48.288 76.1112 47.993 76.4056 47.993 76.7698V80.3631C47.993 80.7273 48.288 81.0217 48.6516 81.0217H71.2769C71.6411 81.0217 71.9355 80.7273 71.9355 80.3631V76.7698C71.9355 76.4056 71.6411 76.1112 71.2769 76.1112H69.2965C69.1174 72.2281 66.0339 69.0991 62.1699 68.8502V46.2407C63.5312 45.4688 64.4532 44.0087 64.4532 42.3352C64.4532 42.0211 64.4203 41.7148 64.3584 41.4184L78.7394 36.203C78.9015 36.4164 79.0997 36.5975 79.3309 36.7404L73.8309 54.0351H72.2062C71.842 54.0351 71.5476 54.3302 71.5476 54.6937V56.9231C71.5476 58.6696 72.9688 60.0909 74.7161 60.0909H86.4845C88.2311 60.0909 89.653 58.6696 89.653 56.9231V54.6937C89.6523 54.3302 89.3579 54.0351 88.9937 54.0351ZM39.1231 48.962C39.2238 48.9251 39.3285 48.9073 39.4319 48.9073C39.5623 48.9073 39.6914 48.9356 39.8133 48.9923C40.0319 49.0937 40.1972 49.2748 40.2795 49.5007V49.5014C40.3612 49.7273 40.3513 49.9723 40.2493 50.1903C40.1478 50.4089 39.9667 50.5742 39.7408 50.6565C39.2745 50.8284 38.7542 50.5847 38.5843 50.1178C38.4137 49.6509 38.6561 49.1319 39.1231 48.962ZM47.1671 71.6914C47.1671 72.7122 46.3366 73.5427 45.3158 73.5427H33.5474C32.5266 73.5427 31.6961 72.7122 31.6961 71.6914V70.1206H47.1671V71.6914ZM34.0446 68.8041L39.3806 52.0251C39.399 52.0258 39.4168 52.029 39.4346 52.029C39.4504 52.029 39.4668 52.0251 39.4833 52.0251L44.8186 68.8041H34.0446ZM70.6183 79.7051H49.3102V77.429H51.2721H68.6564H70.6183V79.7051ZM67.9879 76.1118H51.9399C52.1244 72.7892 54.8852 70.143 58.2526 70.143H58.4166H61.5106H61.6746C65.0427 70.143 67.8028 72.7892 67.9879 76.1118ZM60.8527 68.8258H59.0758V46.7359C59.363 46.7939 59.66 46.8248 59.9643 46.8248C60.2685 46.8248 60.5655 46.7939 60.8527 46.7359V68.8258ZM59.9643 45.5083C58.2157 45.5083 56.7931 44.0851 56.7931 42.3365C56.7931 40.588 58.2157 39.1654 59.9643 39.1654C61.7135 39.1654 63.136 40.588 63.136 42.3365C63.136 44.0851 61.7128 45.5083 59.9643 45.5083ZM79.6786 34.4815C79.7807 34.2635 79.9618 34.0975 80.1877 34.0152C80.2885 33.9783 80.3932 33.9605 80.4972 33.9605C80.627 33.9605 80.7567 33.9888 80.8779 34.0455C81.0959 34.1476 81.2619 34.328 81.3442 34.5539C81.5141 35.0215 81.2724 35.5405 80.8055 35.7104C80.5789 35.7934 80.3346 35.7822 80.1152 35.6808C79.8979 35.5793 79.7319 35.3989 79.6496 35.1723C79.6496 35.1717 79.649 35.1717 79.649 35.171C79.5666 34.9451 79.5765 34.7001 79.6786 34.4815ZM80.6 37.0954L85.9866 54.0351H75.2133L80.6 37.0954ZM88.3352 56.9231C88.3352 57.9439 87.5047 58.7744 86.4838 58.7744H74.7161C73.6953 58.7744 72.8648 57.9439 72.8648 56.9231V55.3523H74.3104C74.3111 55.3523 74.3117 55.3523 74.3124 55.3523C74.313 55.3523 74.3137 55.3523 74.3144 55.3523H86.8856C86.8862 55.3523 86.8869 55.3523 86.8876 55.3523C86.8882 55.3523 86.8889 55.3523 86.8895 55.3523H88.3352V56.9231Z" fill="#6C63FF"/>
</g>
</g>
<defs>
<clipPath id="clip0_240_4657">
<rect width="60" height="60" fill="white" transform="translate(30 29.3601)"/>
</clipPath>
<clipPath id="clip1_240_4657">
<rect width="60" height="60" fill="white" transform="translate(29.9998 29.3596)"/>
</clipPath>
</defs>
</svg>
