<svg width="45" height="44" viewBox="0 0 45 44" fill="none" xmlns="http://www.w3.org/2000/svg">
<g clip-path="url(#clip0_422_1709)">
<path d="M12.9023 21.1393C12.9023 21.681 12.9573 22.121 13.0618 22.4455C13.1773 22.7673 13.3258 23.1193 13.5293 23.5015C13.5942 23.6025 13.6295 23.7197 13.6311 23.8398C13.6311 23.9855 13.5431 24.1341 13.3561 24.2798L12.4321 24.8958C12.3211 24.9759 12.1892 25.0218 12.0526 25.0278C11.9041 25.0278 11.7583 24.9563 11.6126 24.8243C11.4149 24.6116 11.2381 24.3805 11.0846 24.134C10.921 23.8519 10.7696 23.5629 10.6308 23.2678C9.48956 24.6181 8.05681 25.2945 6.32981 25.2945C5.10056 25.2945 4.11881 24.9398 3.40381 24.2358C2.68606 23.5318 2.32031 22.5913 2.32031 21.417C2.32031 20.1685 2.76031 19.1565 3.65131 18.392C4.54506 17.6276 5.73031 17.248 7.23731 17.248C7.73231 17.248 8.24656 17.292 8.78831 17.3635C9.33006 17.4378 9.88831 17.556 10.4713 17.688V16.6155C10.4713 15.499 10.2376 14.7208 9.78381 14.267C9.31631 13.8105 8.52431 13.5905 7.39681 13.5905C6.88531 13.5905 6.36006 13.651 5.81831 13.783C5.28006 13.9112 4.75164 14.0775 4.23706 14.2808C4.07093 14.356 3.90007 14.4203 3.72556 14.4733C3.64995 14.4983 3.57134 14.5131 3.49181 14.5173C3.28556 14.5173 3.18381 14.3688 3.18381 14.0608V13.3403C3.18381 13.1065 3.21131 12.9278 3.28556 12.8288C3.39638 12.6939 3.5378 12.5873 3.69806 12.518C4.20681 12.254 4.82281 12.034 5.54056 11.858C6.25556 11.6655 7.01731 11.5803 7.82306 11.5803C9.56381 11.5803 10.8371 11.9763 11.6566 12.7683C12.4623 13.5603 12.8721 14.7648 12.8721 16.3818V21.1393H12.8996H12.9023ZM6.95956 23.3695C7.44081 23.3695 7.93856 23.2816 8.46656 23.1056C8.99181 22.9296 9.46206 22.6051 9.85531 22.1651C10.0911 21.8949 10.2615 21.574 10.3531 21.2273C10.4411 20.8725 10.5016 20.449 10.5016 19.9486V19.3326C10.0574 19.2248 9.60752 19.1422 9.15406 19.085C8.69808 19.0261 8.23884 18.9958 7.77906 18.9943C6.79731 18.9943 6.07956 19.1868 5.59831 19.5828C5.11431 19.9788 4.88331 20.537 4.88331 21.2713C4.88331 21.9588 5.05656 22.473 5.42231 22.8278C5.77431 23.1935 6.28581 23.3695 6.95956 23.3695ZM18.7103 24.9563C18.4463 24.9563 18.2703 24.9123 18.1548 24.8078C18.0366 24.7198 17.9348 24.5163 17.8468 24.2358L14.4093 12.8865C14.3415 12.6963 14.2963 12.4988 14.2746 12.298C14.2746 12.0643 14.3928 11.9323 14.6266 11.9323H16.0621C16.3371 11.9323 16.5296 11.9763 16.6313 12.078C16.7496 12.166 16.8376 12.3723 16.9256 12.65L19.3841 22.3713L21.6666 12.65C21.7381 12.3585 21.8261 12.166 21.9416 12.078C22.118 11.97 22.3236 11.9191 22.5301 11.9323H23.6988C23.9793 11.9323 24.1663 11.9763 24.2846 12.078C24.4028 12.166 24.5046 12.3723 24.5623 12.65L26.8751 22.4896L29.4051 12.65C29.452 12.4371 29.5534 12.24 29.6993 12.078C29.8697 11.9701 30.07 11.919 30.2713 11.9323H31.6326C31.8663 11.9323 31.9983 12.0505 31.9983 12.298C31.9983 12.3723 31.9818 12.4465 31.9708 12.5345C31.9472 12.6594 31.9122 12.7818 31.8663 12.9003L28.3381 24.2495C28.2501 24.5438 28.1483 24.7363 28.0328 24.8243C27.8667 24.9305 27.6714 24.9815 27.4746 24.97H26.2178C25.9401 24.97 25.7503 24.9261 25.6321 24.8243C25.5138 24.7198 25.4121 24.53 25.3543 24.2358L23.0856 14.7675L20.8306 24.2248C20.7591 24.519 20.6711 24.7088 20.5556 24.8106C20.4373 24.9151 20.2311 24.9591 19.9698 24.9591H18.7103V24.9563ZM37.5148 25.3523C36.7554 25.3533 35.9985 25.2647 35.2598 25.0883C34.5283 24.9123 33.9591 24.7198 33.5768 24.4998C33.3431 24.3678 33.1836 24.222 33.1231 24.0873C33.0672 23.9579 33.0382 23.8185 33.0378 23.6775V22.9296C33.0378 22.6216 33.1533 22.473 33.3733 22.473C33.4631 22.4732 33.5523 22.4881 33.6373 22.517C33.7253 22.5473 33.8573 22.605 34.0031 22.6655C34.4981 22.8855 35.0426 23.0615 35.6118 23.1798C36.1976 23.2953 36.7668 23.3558 37.3526 23.3558C38.2766 23.3558 38.9916 23.1936 39.4893 22.8718C39.7284 22.727 39.9249 22.5215 40.0587 22.2761C40.1925 22.0307 40.2589 21.7542 40.2511 21.4748C40.256 21.2862 40.2236 21.0984 40.1556 20.9223C40.0876 20.7463 39.9855 20.5854 39.8551 20.449C39.5938 20.1685 39.0961 19.9183 38.3783 19.6845L36.2553 19.0245C35.1883 18.6863 34.3963 18.1858 33.9151 17.5258C33.444 16.916 33.1869 16.1679 33.1836 15.3973C33.1836 14.7813 33.3156 14.2368 33.5768 13.7665C33.8408 13.299 34.1928 12.8865 34.6328 12.562C35.0728 12.2265 35.5678 11.9763 36.1536 11.8003C36.7393 11.6243 37.3526 11.55 37.9961 11.55C38.3206 11.55 38.6561 11.5638 38.9778 11.6078C39.3133 11.6518 39.6213 11.7123 39.9293 11.7728C40.2208 11.8443 40.5013 11.9158 40.7626 12.0065C41.0266 12.0945 41.2301 12.1825 41.3786 12.2705C41.5512 12.3573 41.7018 12.4824 41.8186 12.6363C41.9127 12.7795 41.958 12.9493 41.9478 13.1203V13.8105C41.9478 14.1185 41.8323 14.2808 41.6123 14.2808C41.4175 14.2586 41.2289 14.1988 41.0568 14.1048C40.1725 13.7127 39.2135 13.5175 38.2463 13.5328C37.4131 13.5328 36.7531 13.6648 36.2993 13.9453C35.8456 14.2203 35.6118 14.6493 35.6118 15.2515C35.6118 15.6613 35.7576 16.0133 36.0518 16.2938C36.3433 16.5715 36.8851 16.8493 37.6606 17.0995L39.7396 17.7596C40.7928 18.0978 41.5546 18.568 42.0083 19.1703C42.4621 19.7725 42.6793 20.4628 42.6793 21.2273C42.6793 21.8598 42.5501 22.4291 42.2998 22.9296C42.0407 23.4318 41.6769 23.8725 41.2328 24.222C40.7791 24.5878 40.2373 24.8546 39.6076 25.0443C38.9476 25.2506 38.2601 25.3523 37.5148 25.3523Z" fill="#252F3E"/>
<path fill-rule="evenodd" clip-rule="evenodd" d="M40.2786 32.4857C35.4661 36.0524 28.4701 37.9472 22.4558 37.9472C14.0271 37.9472 6.43156 34.8204 0.695058 29.6229C0.241308 29.2104 0.651058 28.6522 1.19006 28.9767C7.39681 32.5874 15.0501 34.7764 22.9701 34.7764C28.3078 34.7764 34.1763 33.6599 39.5773 31.3692C40.3831 31.0034 41.0706 31.8972 40.2786 32.4857Z" fill="#FF9900"/>
<path fill-rule="evenodd" clip-rule="evenodd" d="M42.2835 30.195C41.6703 29.4057 38.2163 29.8155 36.6515 30.0052C36.184 30.0657 36.1098 29.6532 36.5333 29.3452C39.2833 27.4065 43.807 27.9647 44.3323 28.611C44.8603 29.271 44.1865 33.8085 41.6098 35.981C41.2165 36.3192 40.837 36.146 41.0103 35.706C41.596 34.2485 42.8995 30.976 42.2835 30.1977V30.195Z" fill="#FF9900"/>
</g>
<defs>
<clipPath id="clip0_422_1709">
<rect width="44" height="44" fill="white" transform="translate(0.5)"/>
</clipPath>
</defs>
</svg>
