<svg width="45" height="44" viewBox="0 0 45 44" fill="none" xmlns="http://www.w3.org/2000/svg">
<path d="M22.5 41.25C33.1315 41.25 41.75 32.6315 41.75 22C41.75 11.3685 33.1315 2.75 22.5 2.75C11.8685 2.75 3.25 11.3685 3.25 22C3.25 32.6315 11.8685 41.25 22.5 41.25Z" fill="#1794D4"/>
<path d="M25.25 9.625H22.5V12.375H25.25V9.625Z" fill="white"/>
<path d="M14.25 13.75H17V16.5H14.25V13.75Z" fill="white"/>
<path d="M8.75213 23.2944C8.9871 27.2837 11.3629 33 19.75 33C29.1 33 33.2708 26.125 34.1875 22.6875C35.3333 22.6875 37.9 22 39 19.25C38.3125 18.5625 35.5625 18.5625 34.1875 19.25C34.1875 18.15 33.5 15.8125 32.125 15.125C31.2083 16.0417 29.7875 18.425 31.4375 20.625C30.75 22 28.9167 22 28 22H10.0465C9.31845 22 8.70931 22.5676 8.75213 23.2944Z" fill="white"/>
<path d="M12.875 17.875H10.125V20.625H12.875V17.875Z" fill="white"/>
<path d="M14.25 17.875H17V20.625H14.25V17.875Z" fill="white"/>
<path d="M21.125 17.875H18.375V20.625H21.125V17.875Z" fill="white"/>
<path d="M22.5 17.875H25.25V20.625H22.5V17.875Z" fill="white"/>
<path d="M29.375 17.875H26.625V20.625H29.375V17.875Z" fill="white"/>
<path d="M21.125 13.75H18.375V16.5H21.125V13.75Z" fill="white"/>
<path d="M22.5 13.75H25.25V16.5H22.5V13.75Z" fill="white"/>
</svg>
