<svg width="45" height="44" viewBox="0 0 45 44" fill="none" xmlns="http://www.w3.org/2000/svg">
<g clip-path="url(#clip0_422_1670)">
<path d="M43.723 27.6409C42.8232 30.7042 41.1545 33.4504 38.7128 35.876L38.6054 35.9834C35.5564 39.0127 32.0058 40.829 27.9571 41.4401C26.934 41.5944 25.8807 41.6753 24.7936 41.6753C19.3551 41.6753 14.7045 39.744 10.8369 35.876C8.41093 33.4496 6.75385 30.7042 5.86087 27.6409H43.723ZM44.4831 23.0608C44.4469 23.7906 44.3715 24.5037 44.2622 25.203L44.2245 25.4357H5.36302C5.24666 24.7393 5.16422 24.0295 5.11983 23.3035L5.10645 23.0608H44.4831ZM44.2237 18.4807C44.3408 19.1775 44.4236 19.8873 44.4684 20.613L44.4819 20.8556H5.10645C5.14233 20.1262 5.21705 19.4131 5.32559 18.7134L5.36302 18.4807H44.2237Z" fill="#2C2255"/>
<path d="M43.7241 16.275C42.825 13.2033 41.1559 10.445 38.713 8.00169C35.6481 4.93687 32.0718 3.09814 27.9887 2.47945C26.9559 2.32277 25.8922 2.2406 24.7938 2.2406C19.3553 2.2406 14.7043 4.1615 10.8371 8.00169C8.41032 10.445 6.75244 13.2033 5.85986 16.275" fill="#2C2255"/>
<path d="M3.93579 21.9587C3.93579 11.5571 11.7479 2.91446 21.9107 1.39433C21.6585 1.38507 21.4052 1.375 21.1506 1.375C9.74603 1.375 0.5 10.5908 0.5 21.9587C0.5 33.3271 9.74562 42.5425 21.1506 42.5425C21.406 42.5425 21.6593 42.5328 21.9123 42.5235C11.7479 41.0034 3.93579 32.3608 3.93579 21.9587Z" fill="#F7941E"/>
<path d="M38.1941 20.8551C38.1281 20.041 37.9911 19.2471 37.7865 18.4802H11.8026C11.5979 19.2467 11.4606 20.0406 11.3945 20.8551H38.1941Z" fill="url(#paint0_linear_422_1670)"/>
<path d="M38.1942 23.0608H11.395C11.4611 23.8748 11.5976 24.6687 11.8026 25.4356H37.787C37.9916 24.6687 38.1281 23.8748 38.1942 23.0608Z" fill="url(#paint1_linear_422_1670)"/>
<path d="M24.7946 35.407C30.1908 35.407 34.8422 32.2278 36.9842 27.6409H12.605C14.747 32.2278 19.3984 35.407 24.7946 35.407Z" fill="url(#paint2_linear_422_1670)"/>
<path d="M44.2195 25.4351C44.087 26.1859 43.9134 26.9222 43.6983 27.6408H5.86067C5.64518 26.9218 5.49494 26.1855 5.36282 25.4351H44.2195ZM44.4487 20.855C44.4704 21.2348 44.4845 21.6163 44.4845 22.001C44.4845 22.3566 44.4741 22.7099 44.4555 23.0607H5.0998C5.08127 22.7099 5.0708 22.3566 5.0708 22.001C5.0708 21.6163 5.0849 21.2344 5.10665 20.855H44.4487ZM43.5694 16.2749C43.7881 16.9935 43.9633 17.7302 44.0995 18.4806H5.36323C5.49897 17.7298 5.64034 16.9931 5.85946 16.2749H43.5694Z" fill="white"/>
</g>
<defs>
<linearGradient id="paint0_linear_422_1670" x1="1351.37" y1="2605.63" x2="1351.37" y2="-360.307" gradientUnits="userSpaceOnUse">
<stop offset="0.3033" stop-color="#473788"/>
<stop offset="0.872" stop-color="#2C2255"/>
</linearGradient>
<linearGradient id="paint1_linear_422_1670" x1="1351.33" y1="2152.2" x2="1351.33" y2="-813.738" gradientUnits="userSpaceOnUse">
<stop offset="0.3033" stop-color="#473788"/>
<stop offset="0.872" stop-color="#2C2255"/>
</linearGradient>
<linearGradient id="paint2_linear_422_1670" x1="1231.54" y1="1698.69" x2="1231.54" y2="-1267.1" gradientUnits="userSpaceOnUse">
<stop offset="0.3033" stop-color="#473788"/>
<stop offset="0.8631" stop-color="#2C2255"/>
</linearGradient>
<clipPath id="clip0_422_1670">
<rect width="44" height="44" fill="white" transform="translate(0.5)"/>
</clipPath>
</defs>
</svg>
