<svg width="45" height="44" viewBox="0 0 45 44" fill="none" xmlns="http://www.w3.org/2000/svg">
<g clip-path="url(#clip0_422_1616)">
<path d="M44.4931 23.0988C44.4931 19.3999 42.1946 16.2037 38.7829 14.9468C38.9274 14.165 38.9995 13.3715 38.9983 12.5765C38.9983 5.7171 33.4319 0.150757 26.5726 0.150757C22.5863 0.150757 18.8514 2.0541 16.517 5.32213C15.3679 4.42426 13.9673 3.95744 12.4948 3.95744C8.86756 3.95744 5.88691 6.90218 5.88691 10.5654C5.88691 11.3555 6.03059 12.1456 6.28187 12.8638C2.83441 14.0489 0.5 17.3529 0.5 21.0159C0.5 24.715 2.79848 27.9471 6.24595 29.204C6.10244 29.9582 6.03059 30.7483 6.03059 31.5742C6.03059 38.3976 11.5969 43.9641 18.4204 43.9641C22.4426 43.9641 26.1417 42.0248 28.4759 38.7927C29.6251 39.6904 31.0616 40.1933 32.5341 40.1933C36.1613 40.1933 39.142 37.2484 39.142 33.5854C39.142 32.7953 38.9983 32.0052 38.747 31.2869C42.1226 30.0659 44.493 26.762 44.493 23.0988H44.4931Z" fill="white"/>
<path d="M17.7022 18.9689L27.5064 23.4581L37.4183 14.7672C37.5628 14.046 37.6349 13.3121 37.6337 12.5765C37.6337 6.47152 32.6778 1.5155 26.5726 1.5155C22.9095 1.5155 19.4979 3.31108 17.4509 6.32766L15.7988 14.875L17.7022 18.9689Z" fill="#F4BD19"/>
<path d="M7.5386 29.3476C7.39509 30.0659 7.32324 30.8201 7.32324 31.5743C7.32324 37.6793 12.315 42.6712 18.4202 42.6712C22.1193 42.6712 25.531 40.8397 27.6138 37.823L29.2299 29.2758L27.0392 25.1099L17.1992 20.6208L7.5386 29.3476Z" fill="#3CBEB1"/>
<path d="M7.46734 12.3609L14.183 13.9411L15.6912 6.29167C14.7576 5.5734 13.6442 5.21436 12.4591 5.21436C9.55012 5.21436 7.14404 7.58451 7.14404 10.5294C7.14404 11.1399 7.25198 11.7863 7.46734 12.3609Z" fill="#E9478C"/>
<path d="M6.8925 13.9768C3.87592 14.9465 1.79297 17.8555 1.79297 21.0158C1.79297 24.1044 3.69631 26.8697 6.56938 27.947L16.0144 19.3996L14.2905 15.7009L6.8925 13.9768Z" fill="#2C458F"/>
<path d="M29.3379 37.7871C30.2715 38.5055 31.3849 38.9005 32.5341 38.9005C35.4431 38.9005 37.8491 36.5303 37.8491 33.5854C37.8491 32.939 37.7414 32.3283 37.526 31.7538L30.8103 30.1737L29.3379 37.7871Z" fill="#95C63D"/>
<path d="M30.7027 28.4139L38.1007 30.1378C41.1173 29.1324 43.2003 26.2593 43.2003 23.0989C43.2003 20.0103 41.2969 17.2811 38.4239 16.1678L28.7275 24.6432L30.7027 28.4139Z" fill="#176655"/>
</g>
<defs>
<clipPath id="clip0_422_1616">
<rect width="44" height="44" fill="white" transform="translate(0.5)"/>
</clipPath>
</defs>
</svg>
