<svg width="45" height="44" viewBox="0 0 45 44" fill="none" xmlns="http://www.w3.org/2000/svg">
<path fill-rule="evenodd" clip-rule="evenodd" d="M22.5 22C22.5 18.9625 24.9625 16.5 28 16.5C31.0375 16.5 33.5 18.9625 33.5 22C33.5 25.0375 31.0375 27.5 28 27.5C24.9625 27.5 22.5 25.0375 22.5 22Z" fill="#1ABCFE"/>
<path fill-rule="evenodd" clip-rule="evenodd" d="M11.5 33C11.5 29.9625 13.9624 27.5 17 27.5H22.5V33C22.5 36.0375 20.0375 38.5 17 38.5C13.9624 38.5 11.5 36.0375 11.5 33Z" fill="#0ACF83"/>
<path fill-rule="evenodd" clip-rule="evenodd" d="M22.5 5.5V16.5H28C31.0375 16.5 33.5 14.0375 33.5 11C33.5 7.96243 31.0375 5.5 28 5.5H22.5Z" fill="#FF7262"/>
<path fill-rule="evenodd" clip-rule="evenodd" d="M11.5 11C11.5 14.0375 13.9624 16.5 17 16.5H22.5V5.5H17C13.9624 5.5 11.5 7.96243 11.5 11Z" fill="#F24E1E"/>
<path fill-rule="evenodd" clip-rule="evenodd" d="M11.5 22C11.5 25.0375 13.9624 27.5 17 27.5H22.5V16.5H17C13.9624 16.5 11.5 18.9625 11.5 22Z" fill="#A259FF"/>
</svg>
