<svg width="45" height="44" viewBox="0 0 45 44" fill="none" xmlns="http://www.w3.org/2000/svg">
<path d="M28.8609 14.784L34.0501 10.659L33.1371 9.52046C31.0655 7.71434 28.5713 6.46061 25.8859 5.87555C23.2005 5.29049 20.4109 5.39305 17.7757 6.17371C15.1506 6.96667 12.7699 8.41309 10.8565 10.3774C8.94314 12.3418 7.55981 14.7597 6.83615 17.4047C6.75365 17.7155 7.69415 17.1352 8.1094 17.2507L15.2814 16.0737C15.2814 16.0737 15.6307 15.7327 15.8342 15.51C19.0242 12.0285 24.4307 11.572 28.1129 14.5365L28.8609 14.784Z" fill="#EA4335"/>
<path d="M38.002 17.325C37.1758 14.3043 35.4838 11.5913 33.1345 9.52051L28.102 14.5255C29.1484 15.3745 29.9877 16.4506 30.5561 17.6724C31.1246 18.8941 31.4073 20.2292 31.3827 21.5765V22.4648C33.8577 22.4648 35.8652 24.4585 35.8652 26.9198C35.8652 29.3755 33.8577 31.372 31.3827 31.372L22.426 31.3638L21.5322 31.46V38.3543L22.426 38.5H31.3827C33.879 38.5245 36.3171 37.746 38.3373 36.2794C40.3575 34.8128 41.8529 32.7357 42.6027 30.3545C43.343 27.9767 43.2948 25.4233 42.4651 23.0751C41.6355 20.727 40.069 18.71 37.9992 17.325H38.002Z" fill="#4285F4"/>
<path d="M13.4554 38.4973H22.4176V31.3638H13.4526C12.8146 31.3638 12.1849 31.1823 11.6046 30.921L10.3451 31.306L6.7344 34.8728L6.4209 36.102C8.44269 37.6422 10.9111 38.4821 13.4526 38.4945L13.4554 38.4973Z" fill="#34A853"/>
<path d="M13.4552 15.323C11.0331 15.3331 8.67447 16.0982 6.70774 17.5119C4.74101 18.9256 3.26409 20.9174 2.48268 23.21C1.70951 25.5012 1.67385 27.977 2.38071 30.2895C3.08757 32.6019 4.50141 34.6347 6.42343 36.102L11.6209 30.921C10.7378 30.5272 10.0071 29.8563 9.53956 29.0099C9.07199 28.1636 8.89305 27.1879 9.02984 26.2306C9.16663 25.2734 9.61169 24.3869 10.2976 23.7054C10.9835 23.0238 11.8729 22.5844 12.8309 22.4538C13.7892 22.3163 14.7662 22.4927 15.6158 22.9567C16.4655 23.4207 17.1421 24.1473 17.5444 25.0278L22.7419 19.8633C21.6469 18.4431 20.2391 17.2946 18.628 16.5071C17.0168 15.7197 15.2485 15.3145 13.4552 15.323Z" fill="#FBBC05"/>
</svg>
