<svg width="45" height="44" viewBox="0 0 45 44" fill="none" xmlns="http://www.w3.org/2000/svg">
<path d="M4.05487 23.9431C2.98171 22.87 2.98171 21.13 4.05487 20.0569L20.5569 3.55487C21.63 2.48171 23.37 2.48171 24.4431 3.55487L40.9451 20.0569C42.0183 21.13 42.0183 22.87 40.9451 23.9431L24.4431 40.4451C23.37 41.5183 21.63 41.5183 20.5569 40.4451L4.05487 23.9431Z" fill="#EE513B"/>
<path d="M17.2047 6.95959L15.5337 8.63069L19.8497 12.9467C19.6751 13.3213 19.5776 13.739 19.5776 14.1796C19.5776 15.4303 20.3634 16.4974 21.4682 16.9142V27.4722C20.3634 27.889 19.5776 28.9561 19.5776 30.2068C19.5776 31.8205 20.8857 33.1287 22.4994 33.1287C24.1131 33.1287 25.4213 31.8205 25.4213 30.2068C25.4213 29.073 24.7755 28.0899 23.8315 27.6056V16.9286L27.9572 21.0543C27.7911 21.4213 27.6987 21.8287 27.6987 22.2577C27.6987 23.8714 29.0069 25.1796 30.6206 25.1796C32.2343 25.1796 33.5425 23.8714 33.5425 22.2577C33.5425 20.644 32.2343 19.3358 30.6206 19.3358C30.307 19.3358 30.005 19.3852 29.7218 19.4766L25.2908 15.0457C25.3757 14.772 25.4213 14.4811 25.4213 14.1796C25.4213 12.5658 24.1131 11.2577 22.4994 11.2577C22.1979 11.2577 21.9071 11.3033 21.6333 11.3882L17.2047 6.95959Z" fill="white"/>
</svg>
