<svg width="45" height="44" viewBox="0 0 45 44" fill="none" xmlns="http://www.w3.org/2000/svg">
<g clip-path="url(#clip0_422_1629)">
<path fill-rule="evenodd" clip-rule="evenodd" d="M22.5 0C34.6506 0 44.5 10.0978 44.5 22.5564C44.5 32.5202 38.2036 40.9727 29.4674 43.9581C28.352 44.1803 27.956 43.4759 27.956 42.8753C27.956 42.1317 27.9824 39.703 27.9824 36.6846C27.9824 34.5814 27.2784 33.2087 26.4886 32.5091C31.388 31.9503 36.536 30.0427 36.536 21.3791C36.536 18.9151 35.6824 16.9044 34.27 15.3248C34.4988 14.755 35.2534 12.4607 34.0544 9.3543C34.0544 9.3543 32.2108 8.74989 28.011 11.6671C26.2532 11.1677 24.37 10.9164 22.5 10.9076C20.63 10.9164 18.749 11.1677 16.9934 11.6671C12.7892 8.74989 10.9412 9.3543 10.9412 9.3543C9.7466 12.4607 10.5012 14.755 10.7278 15.3248C9.322 16.9044 8.46181 18.9151 8.46181 21.3791C8.46181 30.0207 13.5988 31.9575 18.485 32.5273C17.8558 33.0905 17.286 34.0841 17.088 35.5427C15.834 36.1191 12.6484 37.1166 10.686 33.6692C10.686 33.6692 9.5222 31.502 7.3134 31.3436C7.3134 31.3436 5.1684 31.3151 7.1638 32.7143C7.1638 32.7143 8.6048 33.4073 9.6058 36.0143C9.6058 36.0143 10.8972 40.0402 17.0176 38.6762C17.0286 40.5616 17.0484 42.3385 17.0484 42.8753C17.0484 43.4715 16.6436 44.1693 15.5458 43.9603C6.80299 40.9793 0.5 32.5224 0.5 22.5564C0.5 10.0978 10.3516 0 22.5 0Z" fill="black"/>
</g>
<defs>
<clipPath id="clip0_422_1629">
<rect width="44" height="44" fill="white" transform="translate(0.5)"/>
</clipPath>
</defs>
</svg>
