<svg width="45" height="44" viewBox="0 0 45 44" fill="none" xmlns="http://www.w3.org/2000/svg">
<g clip-path="url(#clip0_422_1543)">
<path d="M22.5685 11.6059C31.6271 4.57335 26.978 0 26.978 0C27.6699 7.27015 19.493 8.98677 17.3011 13.9826C15.8055 17.3917 18.3254 20.3765 22.5655 24.1387C22.1906 23.3054 21.6124 22.4958 21.0272 21.6762C19.0309 18.8805 16.9513 15.9682 22.5685 11.6059Z" fill="#E76F00"/>
<path d="M24.0146 25.6809C24.0146 25.6809 26.7398 23.4822 24.5816 21.0387C17.2655 12.7489 32.5833 8.98682 32.5833 8.98682C23.2311 13.4922 24.6273 16.1665 26.978 19.4153C29.4948 22.899 24.0146 25.6809 24.0146 25.6809Z" fill="#E76F00"/>
<path d="M32.0383 32.2377C40.4331 27.948 36.5518 23.8257 33.8426 24.3811C33.1785 24.517 32.8825 24.6348 32.8825 24.6348C32.8825 24.6348 33.129 24.255 33.5998 24.0906C38.9594 22.2378 43.0812 29.5555 31.8696 32.4539C31.8696 32.4539 31.9996 32.3397 32.0383 32.2377Z" fill="#5382A1"/>
<path d="M14.5703 26.8082C9.31796 26.1185 17.4502 24.2191 17.4502 24.2191C17.4502 24.2191 14.2921 24.0097 10.4081 25.8559C5.81535 28.0406 21.7686 29.0342 30.0267 26.8984C30.8852 26.3219 32.0718 25.8222 32.0718 25.8222C32.0718 25.8222 28.6925 26.4156 25.3271 26.6949C21.2091 27.0341 16.788 27.1003 14.5703 26.8082Z" fill="#5382A1"/>
<path d="M16.5688 30.9042C13.6398 30.6064 15.5576 29.2103 15.5576 29.2103C7.97858 31.684 19.7745 34.4891 30.3648 31.4437C29.2391 31.0535 28.5233 30.3398 28.5233 30.3398C23.3474 31.3199 20.3564 31.2885 16.5688 30.9042Z" fill="#5382A1"/>
<path d="M17.8448 35.3363C14.9181 35.0055 16.6279 34.0277 16.6279 34.0277C9.74804 35.9181 20.8126 39.8235 29.5719 36.1319C28.1372 35.5832 27.11 34.9499 27.11 34.9499C23.2026 35.677 21.3904 35.7341 17.8448 35.3363Z" fill="#5382A1"/>
<path d="M36.1657 37.5909C36.1657 37.5909 37.431 38.6161 34.7722 39.4092C29.7161 40.9154 13.7288 41.3702 9.28754 39.4693C7.69103 38.7863 10.6849 37.8385 11.6267 37.6396C12.6089 37.4302 13.1702 37.4692 13.1702 37.4692C11.3947 36.2393 1.69417 39.8843 8.24278 40.9282C26.1018 43.7762 40.7981 39.6456 36.1657 37.5909Z" fill="#5382A1"/>
<path d="M39.0002 39.8308C38.7072 43.5802 26.3333 44.3689 18.2754 43.8616C13.0186 43.5301 11.9651 42.7017 11.9497 42.6896C16.9808 43.5052 25.4632 43.6537 32.3408 42.3809C38.4369 41.2521 39.0002 39.8308 39.0002 39.8308Z" fill="#5382A1"/>
</g>
<defs>
<clipPath id="clip0_422_1543">
<rect width="44" height="44" fill="white" transform="translate(0.5)"/>
</clipPath>
</defs>
</svg>
