<svg width="41" height="40" viewBox="0 0 41 40" fill="none" xmlns="http://www.w3.org/2000/svg">
<g clip-path="url(#clip0_422_1535)">
<path d="M0.5 0H40.5V40H0.5V0Z" fill="#F7DF1E"/>
<path d="M11.0177 33.4269L14.0787 31.5744C14.6693 32.6214 15.2065 33.5074 16.4951 33.5074C17.7302 33.5074 18.5091 33.0242 18.5091 31.1449V18.3639H22.268V31.198C22.268 35.0913 19.9859 36.8635 16.6562 36.8635C13.6491 36.8635 11.9037 35.3061 11.0176 33.4266M24.3098 33.0241L27.3704 31.2521C28.1762 32.5678 29.2234 33.5344 31.0759 33.5344C32.6335 33.5344 33.6266 32.7556 33.6266 31.6816C33.6266 30.3928 32.6063 29.9363 30.8879 29.1847L29.9484 28.7816C27.2363 27.6274 25.4374 26.1774 25.4374 23.1164C25.4374 20.2971 27.5854 18.1489 30.9418 18.1489C33.3315 18.1489 35.0499 18.9814 36.2849 21.1563L33.358 23.036C32.7135 21.8814 32.0157 21.425 30.9416 21.425C29.8407 21.425 29.1426 22.1231 29.1426 23.036C29.1426 24.1636 29.8407 24.6203 31.4516 25.3185L32.3913 25.7211C35.5866 27.0906 37.3855 28.4867 37.3855 31.628C37.3855 35.0114 34.7274 36.8639 31.1563 36.8639C27.6659 36.8639 25.4104 35.1992 24.3096 33.0242" fill="black"/>
</g>
<defs>
<clipPath id="clip0_422_1535">
<rect width="40" height="40" fill="white" transform="translate(0.5)"/>
</clipPath>
</defs>
</svg>
