<svg width="45" height="44" viewBox="0 0 45 44" fill="none" xmlns="http://www.w3.org/2000/svg">
<path d="M10.7246 19.5442C10.7932 19.4831 10.8689 19.4305 10.9501 19.3875C10.8665 19.4263 10.7902 19.4793 10.7246 19.5442Z" fill="#F0D6B7"/>
<path d="M14.8166 25.0978C14.8991 25.6767 15.1466 30.8233 18.6199 33.6916C19.3256 33.8015 20.0365 33.8759 20.7497 33.9143C21.1347 33.0893 22.5537 33.1526 23.4791 33.3643C22.319 32.7719 21.2989 31.9384 20.4871 30.9196C19.4066 29.976 18.6905 28.6839 18.4631 27.2676C20.3166 29.8388 21.8484 32.0801 25.2185 33.2158C27.7691 34.0711 30.7474 32.8239 32.7067 31.4476C33.4618 30.7924 34.0969 30.0107 34.5836 29.1376C36.8055 25.6018 37.8389 21.4484 37.533 17.2837C37.5956 15.6755 37.3626 14.0695 36.8455 12.5454C36.2226 11.2969 34.1175 10.1804 32.8855 11.3079C32.8652 11.1964 32.8578 11.0829 32.8635 10.9697C32.6669 11.1539 32.5472 11.2887 32.5472 11.2887C32.4451 11.0797 32.3879 10.8516 32.3795 10.6191C32.397 10.0776 32.62 9.56315 33.003 9.18009C33.3861 8.79703 33.9006 8.5741 34.442 8.55657C33.856 7.75857 33.1728 7.03664 32.4084 6.40745C29.727 5.49118 26.8351 5.38501 24.0937 6.1022C22.1935 6.5107 20.4341 7.41178 18.9921 8.71502C17.5501 10.0183 16.4762 11.6778 15.8781 13.5272C15.6159 14.5482 15.4375 15.5888 15.3446 16.6388C15.302 17.8543 15.9166 18.9144 15.9634 20.2372C15.6347 20.7789 14.631 20.8463 13.9366 20.8092C13.8857 20.5521 13.8239 20.2881 13.7496 20.0309C13.2027 19.726 12.6178 19.4948 12.0102 19.3434C12.5431 19.5614 12.9781 19.9664 13.2335 20.4824C13.489 20.9983 13.5473 21.5898 13.3976 22.1457C12.8847 21.8528 12.7624 20.5644 12.1601 20.5273C11.2994 20.4751 11.4561 22.1993 11.4602 23.2086C11.1622 22.7651 10.9819 22.2532 10.9362 21.7209C10.8905 21.1886 10.9809 20.6534 11.199 20.1657C10.8085 19.9746 10.5885 20.2496 10.374 20.4641C10.0687 21.8886 9.62187 23.0394 10.4592 24.4791C10.6982 24.7567 10.9979 24.9755 11.335 25.1186C11.6722 25.2617 12.0378 25.3251 12.4035 25.3041C13.1831 25.2271 13.3742 24.4461 14.224 24.4543C14.3808 24.4792 14.5246 24.5563 14.6321 24.6731C14.7397 24.7899 14.8047 24.9395 14.8166 25.0978ZM23.684 27.775L23.2715 27.6911C23.2715 27.6911 22.8397 26.1786 23.0474 25.8953C23.1574 25.7482 23.7624 25.5268 24.6094 25.9338C24.6039 25.9352 23.6001 26.1029 23.684 27.775ZM31.5297 29.6188C30.0012 30.1372 28.3433 30.1305 26.819 29.5996C26.1019 29.0742 25.5013 28.4062 25.0549 27.6374C24.8417 27.3624 23.7802 26.6639 25.0384 26.6626C26.0242 29.1376 29.4109 28.8516 32.2668 28.7842C32.1351 29.1457 31.8719 29.4429 31.5297 29.6188ZM31.9422 27.4188C31.8775 26.9338 31.8775 26.4423 31.9422 25.9572C33.3892 25.6745 34.7699 25.1217 36.0122 24.3278C35.7028 25.1798 35.1541 25.9244 34.4319 26.4722C33.7097 27.02 32.8447 27.3477 31.9409 27.4161L31.9422 27.4188ZM35.7317 16.3184C35.4801 16.4023 33.848 17.3662 33.9745 16.1507C34.0384 15.7927 34.2063 15.4614 34.4571 15.1981C34.708 14.9347 35.0308 14.751 35.3853 14.6698C35.3732 14.4867 35.3732 14.303 35.3853 14.1198H35.4939C35.9514 15.2083 36.4901 16.2608 37.1054 17.2686C36.6695 18.2833 33.8054 19.1798 33.8521 17.3593C34.4709 17.0843 35.5392 17.3043 36.0879 16.9592C35.9586 16.6058 35.8129 16.2717 35.6754 15.9197L35.7317 16.3184ZM28.5996 22.8497C28.6242 22.8938 28.6453 22.9398 28.6629 22.9872C28.788 22.2901 29.019 21.4747 29.4164 21.5943C29.6095 21.6482 29.7804 21.7623 29.9041 21.9201C30.0277 22.078 30.0978 22.2712 30.1039 22.4716C29.6407 22.7713 29.2046 23.1109 28.8004 23.4863C28.8897 23.8988 28.9984 24.3113 29.5195 24.4048C31.0402 24.6647 32.8099 23.4739 33.9044 23.0587C34.5823 21.9147 33.8452 21.4939 33.2347 20.7583C31.9835 19.2458 30.306 17.3813 30.3665 15.1208C30.8725 14.7537 30.9165 15.6804 30.988 15.8496C31.9165 17.6074 33.0943 19.2219 34.4846 20.6428C34.7789 20.9646 35.2642 21.2739 35.3179 21.4871C35.4732 22.1072 34.9136 22.8497 34.9783 23.2608C33.236 24.6326 31.051 25.3175 28.8375 25.1858C28.5265 24.8876 28.3316 24.4885 28.2875 24.0599C28.2435 23.6312 28.3531 23.2009 28.5969 22.8456L28.5996 22.8497ZM31.2919 26.0411C31.3792 26.5222 31.4142 27.0113 31.3964 27.4999C28.9062 27.6237 25.9624 27.0077 25.3092 25.2601C27.2239 25.9461 29.2641 26.2111 31.2905 26.0369L31.2919 26.0411ZM25.4399 14.1501C25.7595 15.0508 26.2123 15.8985 26.7832 16.6649C27.0967 16.9702 27.7045 17.3414 27.4034 18.1898C27.1903 18.5183 26.8824 18.7744 26.5206 18.9241C25.4344 19.2444 22.903 18.9901 23.7596 17.6357C24.6575 17.6769 25.8661 18.2187 26.5371 17.5669C26.4065 17.3579 26.2497 17.0981 26.0944 16.8093C25.4069 17.2438 23.5176 17.2631 23.5176 16.1507C23.5176 14.9792 25.3587 14.7289 25.3587 14.7289L25.3725 14.7619C25.3522 14.5543 25.3746 14.3446 25.4385 14.1459L25.4399 14.1501ZM21.0069 10.1241C22.65 9.00345 23.4819 9.64282 23.8944 10.3826C24.0008 10.4246 24.0967 10.4894 24.1752 10.5726C24.2538 10.6557 24.3132 10.7551 24.3491 10.8637C24.385 10.9723 24.3967 11.0875 24.3832 11.201C24.3697 11.3146 24.3315 11.4239 24.2711 11.5211C21.9914 10.9903 20.8584 12.4753 20.1667 14.0153C19.9894 14.3371 19.9797 14.1088 19.878 13.8283C19.8383 13.7719 19.8099 13.7084 19.7941 13.6413C19.7598 13.5803 19.7173 13.5243 19.6676 13.4749C19.3376 13.1353 19.1657 11.3794 21.0069 10.1241Z" fill="#F0D6B7"/>
<path d="M9.13923 40.2599H21.1746C21.1196 40.0743 21.066 39.8914 21.0124 39.7181C20.7208 38.8448 20.5019 37.949 20.3579 37.0396C18.8823 36.4002 17.4625 35.639 16.1132 34.764C15.9946 34.6546 15.8843 34.5365 15.7832 34.4106L8.54248 37.646C8.54248 37.646 8.80236 38.6828 9.13923 40.2599Z" fill="#335061"/>
<path d="M13.4702 9.62493C13.6791 9.56072 13.8944 9.52013 14.1123 9.50393C14.4526 9.5508 14.7966 9.56416 15.1395 9.54381C15.8187 9.37468 16.3935 7.85118 16.9063 7.28331C17.3182 6.90467 17.7501 6.54849 18.2002 6.21631C16.3228 6.86289 14.6776 8.0485 13.4702 9.62493Z" fill="#6D6B6D"/>
<path d="M10.3682 17.3057C10.8025 17.0761 11.2873 16.9586 11.7785 16.9637C12.2697 16.9688 12.7519 17.0964 13.1813 17.3349C13.6108 17.5735 13.9739 17.9154 14.2378 18.3298C14.5017 18.7441 14.658 19.2178 14.6926 19.7078C15.6468 19.6831 15.0487 18.5171 14.8768 17.7649C14.3695 15.5539 15.5465 13.1724 15.1408 11.0811C9.82508 11.8758 10.1248 15.9582 10.3682 17.3057Z" fill="#6D6B6D"/>
<path d="M18.7175 5.29515C16.215 6.00465 13.0085 7.8224 11.98 10.0705C12.4875 9.96034 12.9858 9.8114 13.4705 9.62502C14.6778 8.04859 16.323 6.86298 18.2005 6.2164C18.2786 6.1455 18.3516 6.06923 18.4191 5.98815C18.6831 5.86027 19.0736 5.8699 19.0887 5.47252C18.9746 5.35015 18.8536 5.25665 18.7175 5.29515Z" fill="#DCD9D8"/>
<path d="M10.8125 12.3544C9.71249 13.5713 9.93799 15.8497 10.0727 17.4708C10.1696 17.4105 10.2697 17.3554 10.3725 17.3058C10.125 15.9597 9.83074 11.8759 15.1451 11.0812C15.1008 10.8498 15.0355 10.6229 14.9499 10.4033C13.3689 10.4885 11.8839 11.1888 10.8125 12.3544Z" fill="#DCD9D8"/>
<path d="M14.8166 25.0978C14.8054 24.9417 14.7425 24.7937 14.638 24.6772C14.5334 24.5607 14.3931 24.4823 14.2391 24.4543C14.6997 25.3728 13.5296 25.6616 13.4141 26.3175C13.4292 26.704 13.4869 27.0876 13.5859 27.4615C13.9934 29.1011 14.6645 30.6638 15.5728 32.0883C15.9464 32.5485 16.4097 32.9278 16.9344 33.2034C17.4592 33.4791 18.0344 33.6451 18.6253 33.6916C15.1466 30.8247 14.8991 25.6767 14.8166 25.0978Z" fill="#F7E4CD"/>
<path d="M30.0968 22.4648C30.0906 22.2643 30.0206 22.0711 29.897 21.9133C29.7733 21.7555 29.6024 21.6413 29.4093 21.5875C29.0119 21.4748 28.7809 22.2833 28.6558 22.9804C28.7147 23.1429 28.7607 23.3098 28.7933 23.4795C29.1975 23.104 29.6336 22.7645 30.0968 22.4648Z" fill="#F7E4CD"/>
<path d="M33.9733 16.148C33.8468 17.3635 35.4858 16.3996 35.7305 16.3157L35.6714 15.9225C35.5152 15.5202 35.4184 15.0973 35.384 14.6671C35.0295 14.7483 34.7067 14.932 34.4559 15.1954C34.205 15.4587 34.0372 15.79 33.9733 16.148Z" fill="#F7E4CD"/>
<path d="M23.5161 16.1479C23.5161 17.2603 25.4012 17.2411 26.0929 16.8066C25.7204 16.178 25.4751 15.4824 25.371 14.7592L25.3572 14.7262C25.3572 14.7262 23.5161 14.9764 23.5161 16.1479Z" fill="#F7E4CD"/>
<path d="M10.389 20.4668C10.337 20.5226 10.2794 20.5728 10.2171 20.6167C10.2501 20.2087 10.431 19.8268 10.7259 19.5428C10.7911 19.4786 10.8669 19.426 10.95 19.3875C11.1166 19.3066 11.298 19.2609 11.483 19.2533C11.668 19.2458 11.8526 19.2764 12.0252 19.3435C12.6328 19.4948 13.2177 19.726 13.7646 20.031C13.4992 19.118 13.0441 18.2943 12.1036 18.1912C11.7257 18.1601 11.3454 18.2061 10.9858 18.3265C10.6262 18.447 10.2949 18.6392 10.012 18.8917C9.72903 19.1442 9.50038 19.4515 9.33993 19.7951C9.17948 20.1387 9.09057 20.5113 9.07861 20.8903C9.07895 22.2177 9.57693 23.4968 10.4742 24.475C9.63549 23.0422 10.0837 21.8913 10.389 20.4668Z" fill="#F7E4CD"/>
<path d="M24.1021 6.10915C26.8434 5.39196 29.7353 5.49813 32.4167 6.4144C32.2032 6.24772 31.978 6.09654 31.7429 5.96202C29.1456 4.49627 24.7497 3.3949 21.9804 4.77127C19.7516 5.88227 16.7376 7.72202 15.7104 10.0526C16.1323 11.1663 16.1915 12.3848 15.8796 13.5341C16.4782 11.6839 17.5531 10.0238 18.9964 8.72046C20.4397 7.41716 22.2006 6.51656 24.1021 6.10915Z" fill="#F7E4CD"/>
<path d="M32.3833 10.626C32.3917 10.8585 32.4489 11.0866 32.5511 11.2956C32.5511 11.2956 32.6707 11.1581 32.8673 10.9766C32.9099 9.96735 34.0567 9.3926 35.3863 9.78585C35.0811 9.3926 34.7717 8.97598 34.4499 8.56348C33.9078 8.57998 33.3923 8.80245 33.0083 9.18561C32.6244 9.56878 32.4009 10.0838 32.3833 10.626Z" fill="#F7E4CD"/>
<path d="M19.8765 13.8297C19.9782 14.1047 19.9892 14.3385 20.1652 14.0167C20.0491 13.9923 19.9462 13.9257 19.8765 13.8297Z" fill="#F7E4CD"/>
<path d="M19.7942 13.6427C19.7544 13.2876 19.8085 12.9282 19.951 12.6004C20.2282 11.9163 20.6952 11.3257 21.2969 10.8982C21.8986 10.4706 22.61 10.224 23.3472 10.1873C23.5412 10.2181 23.7277 10.2848 23.8972 10.3839C23.4847 9.6442 22.6597 9.00895 21.0097 10.1254C19.17 11.3808 19.3364 13.1367 19.6719 13.4722C19.7204 13.5231 19.7616 13.5805 19.7942 13.6427Z" fill="#F7E4CD"/>
<path d="M8.54243 37.6461L15.7832 34.4107C15.2524 33.7947 14.2996 32.6232 14.1332 32.6823C11.354 33.9177 8.75839 35.5302 6.41943 37.4742C6.84051 38.3821 7.2123 39.312 7.53318 40.26H9.13918C8.80231 38.6828 8.54243 37.6461 8.54243 37.6461Z" fill="#49728B"/>
<path d="M37.6252 40.2971C37.9245 39.3673 38.176 38.4228 38.3787 37.4674C38.4282 37.2185 38.5245 36.8142 38.5932 36.4279L34.625 33.4799C35.3897 35.1738 35.4539 37.1013 34.8037 38.8424C34.9412 39.3539 35.428 39.5505 35.6287 40.0111C35.582 40.0936 35.5352 40.1747 35.4912 40.2572H37.5207C37.5586 40.2606 37.5948 40.2744 37.6252 40.2971Z" fill="#335061"/>
<path d="M32.9736 32.9257C33.1908 32.8116 33.4358 32.7611 33.6804 32.78L33.3531 32.5366C33.2095 32.6485 33.0819 32.7794 32.9736 32.9257Z" fill="#335061"/>
<path d="M38.6646 35.5836C38.5628 34.8452 37.5646 34.298 37.0531 33.8429C36.1126 33 35.5241 32.2575 34.5464 31.4696C34.1973 31.8768 33.7955 32.2356 33.3516 32.5366L33.6788 32.78C33.8806 32.8131 34.0715 32.8941 34.2356 33.0161C34.3997 33.1381 34.5322 33.2976 34.6221 33.4812L38.5876 36.4279C38.6504 36.1511 38.6763 35.8672 38.6646 35.5836Z" fill="#49728B"/>
<path d="M28.7866 40.1499C28.7877 40.1851 28.7918 40.22 28.799 40.2544H29.4576C29.4576 40.133 29.5059 40.0165 29.5917 39.9307C29.6776 39.8448 29.7941 39.7966 29.9155 39.7966C30.0369 39.7966 30.1534 39.8448 30.2393 39.9307C30.3251 40.0165 30.3734 40.133 30.3734 40.2544H31.4376V40.2132C31.0609 40.0152 30.2372 39.5876 29.7876 39.3978C29.2046 39.1531 28.7866 40.1499 28.7866 40.1499Z" fill="white"/>
<path d="M28.7867 40.15C28.7867 40.15 29.1992 39.1462 29.7905 39.3965C30.2332 39.5862 31.0568 40.0138 31.4405 40.2118C31.4542 39.9093 31.468 39.6068 31.4872 39.3043C30.6375 39.358 30.1658 38.5357 29.5705 38.4725C29.0507 38.4161 28.608 39.0706 27.9342 38.7873C27.7788 38.9578 27.6386 39.1435 27.4805 39.3112C27.7253 39.6099 27.9499 39.9245 28.1528 40.2531H28.8073C28.7975 40.2194 28.7906 40.1849 28.7867 40.15Z" fill="#DCD9D8"/>
<path d="M20.4527 34.6074C19.3889 34.6045 18.3335 34.4185 17.3329 34.0574C17.2935 34.0954 17.2626 34.1413 17.2422 34.1921C17.2219 34.2429 17.2125 34.2974 17.2147 34.3521C17.2169 34.4067 17.2306 34.4603 17.255 34.5093C17.2794 34.5583 17.3139 34.6016 17.3562 34.6363C18.2933 35.0425 19.2846 35.3102 20.2987 35.431C20.3979 35.1676 20.45 34.8888 20.4527 34.6074Z" fill="white"/>
<path d="M20.2411 35.8449C20.2429 35.7057 20.2618 35.5671 20.2975 35.4324C19.2833 35.3117 18.2921 35.0439 17.355 34.6377C18.189 35.2957 19.187 35.7132 20.2411 35.8449Z" fill="#DCD9D8"/>
<path d="M34.3431 38.0779C34.4354 37.6863 34.4693 37.2832 34.4435 36.8816C34.4145 36.2425 34.3224 35.6079 34.1685 34.9869C33.7055 34.9308 33.2364 34.9535 32.7811 35.0543C32.3686 35.1381 31.9437 35.222 31.8612 35.7239C31.7787 36.2258 32.029 36.4774 31.7773 36.8954C31.5257 37.3134 31.1077 37.0631 30.6897 37.3079C30.4051 37.4784 30.5852 37.9198 30.7296 38.1851C31.8396 38.4376 32.9725 38.5758 34.1107 38.5976C34.2209 38.441 34.2998 38.2645 34.3431 38.0779Z" fill="#D33833"/>
<path d="M21.8979 40.1761C21.9199 40.2353 21.9433 40.2971 21.9626 40.3521C21.9818 40.4071 22.0024 40.48 22.0203 40.5433L22.0079 40.3824L21.8979 40.1761Z" fill="#D33833"/>
<path d="M27.3992 38.3969C27.4084 38.1549 27.418 37.9133 27.4281 37.6722C26.9911 37.8073 26.5192 37.7709 26.1081 37.5705C24.8197 36.8679 26.0393 37.0755 25.5828 36.1432C25.0608 35.8658 24.4886 35.6952 23.8998 35.6414C22.2113 35.6414 21.5623 35.3017 21.7438 37.2487C21.8387 38.2937 21.924 39.3374 22.0065 40.3837C22.144 40.6422 22.2677 40.8746 22.3667 41.0712C23.2497 40.9858 24.1067 40.7245 24.8871 40.3026C25.7585 39.7136 26.5972 39.0774 27.3992 38.3969Z" fill="#D33833"/>
<path d="M28.0371 37.4C28.066 37.5224 28.0962 37.6599 28.1251 37.8263C28.2491 37.8928 28.3862 37.9314 28.5267 37.9393C28.6672 37.9471 28.8078 37.924 28.9384 37.8717C29.0691 37.8193 29.1866 37.739 29.2829 37.6362C29.3791 37.5335 29.4516 37.411 29.4953 37.2772C29.539 37.1434 29.5528 37.0017 29.5358 36.8619C29.5188 36.7222 29.4714 36.5879 29.3969 36.4686C29.3223 36.3492 29.2225 36.2476 29.1045 36.1709C28.9864 36.0943 28.853 36.0445 28.7136 36.025C28.7594 36.2962 28.7187 36.5749 28.5973 36.8217C28.4759 37.0685 28.2799 37.2708 28.0371 37.4Z" fill="#D33833"/>
<path d="M30.6854 37.3134C31.0979 37.0618 31.5227 37.3134 31.773 36.9009C32.0232 36.4884 31.773 36.2313 31.8569 35.7295C31.9407 35.2276 32.3587 35.1437 32.7767 35.0598C33.2321 34.9591 33.7012 34.9363 34.1641 34.9924C34.1101 34.6483 33.9415 34.3324 33.6856 34.096C32.6585 33.4965 30.8586 35.2303 30.0212 35.5988L29.9429 35.6304C30.067 35.8703 30.1484 36.1299 30.1835 36.3977C30.3687 36.3519 30.5594 36.3325 30.75 36.34C30.8775 36.3451 31.0044 36.3602 31.1295 36.3853C31.1914 36.3977 31.2519 36.4128 31.3124 36.4293C31.4273 36.4615 31.5391 36.5038 31.6465 36.5558C31.2961 36.57 30.9477 36.6161 30.6056 36.6933C30.5076 36.722 30.4148 36.7661 30.3306 36.8239C30.293 37.2353 30.277 37.6484 30.2825 38.0614C30.4273 38.1027 30.5749 38.1412 30.7252 38.1769C30.5809 37.9253 30.4007 37.4839 30.6854 37.3134Z" fill="#EF3D3A"/>
<path d="M22.0202 40.5419C22.0903 40.7935 22.1508 41.0204 22.3681 41.0713C22.2691 40.8733 22.1439 40.6409 22.0078 40.3838L22.0202 40.5419Z" fill="#EF3D3A"/>
<path d="M21.7439 37.2473C21.5665 35.3003 22.2114 35.6399 23.8999 35.6399C24.4886 35.6938 25.0608 35.8644 25.5829 36.1418C26.0394 37.0741 24.8198 36.8664 26.1081 37.5691C26.5192 37.7695 26.9912 37.8058 27.4281 37.6708V37.5842C27.0321 37.3853 26.6069 37.2507 26.1686 37.1854C25.9996 37.1599 25.8293 37.1434 25.6585 37.1359C25.7867 37.0742 25.9207 37.0253 26.0586 36.9902C26.4904 36.9224 26.91 36.7922 27.3044 36.6038C27.3044 36.4952 27.3126 36.3866 27.3168 36.2793C27.2245 36.2719 27.1327 36.2595 27.0417 36.2422C26.9595 36.2268 26.8783 36.2066 26.7984 36.1817C26.6581 36.1373 26.5226 36.0788 26.3941 36.0071C26.1494 35.8696 25.939 35.7101 25.6722 35.5643C24.6315 35.0059 23.5167 34.598 22.3612 34.3529C21.0949 34.1109 21.0839 35.8723 21.1375 37.1703C21.1375 37.3078 21.1485 37.4343 21.1554 37.5553C21.2719 38.4588 21.524 39.3396 21.9034 40.1678L22.012 40.3741C21.9254 39.3373 21.8387 38.2923 21.7439 37.2473Z" fill="#EF3D3A"/>
<path d="M28.7149 36.025C28.426 36.0311 28.1462 36.1273 27.9146 36.3C27.8948 36.4885 27.8981 36.6788 27.9242 36.8665C27.9394 36.9751 27.9627 37.0796 27.9902 37.1938L28.0329 37.3739V37.3973C28.2762 37.269 28.473 37.0675 28.5954 36.8212C28.7178 36.5749 28.7596 36.2964 28.7149 36.025Z" fill="#EF3D3A"/>
<path d="M19.9507 12.6005C19.8082 12.9282 19.7542 13.2876 19.794 13.6428C19.8097 13.7099 19.8382 13.7734 19.8778 13.8298C19.9476 13.9257 20.0505 13.9924 20.1666 14.0168C20.8541 12.4768 21.9912 10.9918 24.271 11.5225C24.3313 11.4253 24.3696 11.3161 24.3831 11.2025C24.3965 11.0889 24.3849 10.9737 24.3489 10.8651C24.313 10.7565 24.2537 10.6571 24.1751 10.574C24.0965 10.4909 24.0006 10.426 23.8942 10.384C23.7247 10.2848 23.5382 10.2182 23.3442 10.1874C22.6075 10.2246 21.8967 10.4714 21.2955 10.8989C20.6943 11.3264 20.2277 11.9168 19.9507 12.6005Z" fill="#231F20"/>
<path d="M33.8467 17.3621C33.8027 19.1826 36.6641 18.2861 37.0999 17.2713C36.4847 16.2636 35.946 15.211 35.4884 14.1226H35.3798C35.3677 14.3057 35.3677 14.4894 35.3798 14.6726C35.4142 15.1027 35.511 15.5256 35.6672 15.9279C35.7978 16.2799 35.9491 16.6154 36.0797 16.9674C35.5338 17.3071 34.4627 17.0912 33.8467 17.3621Z" fill="#231F20"/>
<path d="M26.5343 17.5629C25.8633 18.2146 24.6547 17.6729 23.7568 17.6316C22.9002 18.986 25.4316 19.2404 26.5178 18.92C26.8797 18.7703 27.1875 18.5142 27.4006 18.1857C27.7017 17.3374 27.094 16.9661 26.7805 16.6609C26.2095 15.8944 25.7567 15.0467 25.4371 14.146C25.3733 14.3433 25.3504 14.5515 25.3697 14.7579C25.4738 15.4811 25.7191 16.1767 26.0916 16.8052C26.2483 17.094 26.4037 17.3539 26.5343 17.5629Z" fill="#231F20"/>
<path d="M28.832 25.1831C31.0456 25.3148 33.2305 24.6298 34.9728 23.2581C34.9081 22.8456 35.4678 22.1031 35.3124 21.4843C35.2588 21.2712 34.7734 20.9618 34.4791 20.6401C33.0888 19.2191 31.9111 17.6047 30.9825 15.8468C30.9096 15.6777 30.8656 14.7468 30.361 15.1181C30.3005 17.3758 31.978 19.2431 33.2293 20.7556C33.8398 21.4912 34.5768 21.9119 33.8989 23.0559C32.7989 23.4684 31.0348 24.6633 29.514 24.4021C28.9929 24.3127 28.8843 23.9002 28.7949 23.4836C28.7623 23.3138 28.7164 23.1469 28.6574 22.9844C28.6398 22.9371 28.6187 22.8911 28.5941 22.8469C28.3511 23.2016 28.2417 23.6309 28.2852 24.0586C28.3288 24.4863 28.5225 24.8847 28.832 25.1831Z" fill="#231F20"/>
<path d="M10.95 19.3875C10.8715 19.4297 10.7981 19.4809 10.7314 19.5402C10.4366 19.8241 10.2557 20.206 10.2227 20.614C10.285 20.5702 10.3426 20.5199 10.3945 20.4642C10.6049 20.2497 10.8249 19.9733 11.2195 20.1658C11.0015 20.6535 10.911 21.1887 10.9567 21.721C11.0024 22.2533 11.1828 22.7652 11.4808 23.2087C11.4808 22.2008 11.3199 20.4765 12.1807 20.5274C12.7829 20.5645 12.9053 21.8529 13.4182 22.1458C13.5664 21.5889 13.5061 20.997 13.2486 20.4815C12.9911 19.9659 12.5541 19.5622 12.0198 19.3463C11.8481 19.2796 11.6646 19.2489 11.4806 19.256C11.2966 19.2631 11.116 19.3079 10.95 19.3875Z" fill="#231F20"/>
<path d="M31.9436 25.9531C31.8788 26.4382 31.8788 26.9297 31.9436 27.4148C32.8482 27.3463 33.7138 27.0181 34.4363 26.4695C35.1588 25.9209 35.7074 25.1753 36.0163 24.3224C34.7733 25.1171 33.3916 25.6703 31.9436 25.9531Z" fill="#231F20"/>
<path d="M31.3962 27.5C31.4141 27.009 31.3786 26.5175 31.2903 26.0342C29.2642 26.2097 27.2241 25.9461 25.3091 25.2615C25.9622 27.0105 28.9061 27.6265 31.3962 27.5Z" fill="#231F20"/>
<path d="M25.0383 26.6613C23.7802 26.6613 24.8417 27.3625 25.0548 27.6361C25.5015 28.4055 26.1026 29.074 26.8203 29.5996C28.3446 30.1305 30.0025 30.1373 31.5311 29.6189C31.8735 29.4426 32.1367 29.1436 32.2681 28.7815C29.4108 28.8503 26.0242 29.1349 25.0383 26.6613Z" fill="#231F20"/>
<path d="M34.8201 40.26C34.4955 39.7416 33.9815 39.3702 33.3874 39.2247C32.96 39.1385 32.516 39.1965 32.1251 39.3897C32.1141 39.6647 32.1004 39.9603 32.0825 40.2587L34.8201 40.26Z" fill="#81B0C4"/>
<path d="M30.71 34.0299C29.7668 34.1138 28.6571 34.5428 27.6135 34.606C27.5186 34.606 27.4238 34.6143 27.3303 34.6143C27.2368 34.6143 27.1433 34.6143 27.0553 34.6005C26.8725 34.5844 26.6918 34.5494 26.5163 34.496C26.4282 34.4692 26.3419 34.437 26.2578 34.3998C26.2578 34.4713 26.1601 34.4452 26.145 34.5043C26.2619 34.595 26.3746 34.6775 26.4846 34.7504C26.5946 34.8233 26.7033 34.8879 26.8119 34.947C27.0188 35.059 27.238 35.1467 27.465 35.2083C27.8317 35.2999 28.2092 35.3415 28.587 35.332C28.7245 35.332 28.8785 35.332 29.0366 35.3197C29.6073 34.903 30.1133 34.4177 30.71 34.0299Z" fill="#F0D6B7"/>
<path d="M26.7434 39.941L26.2607 40.2614H26.9854C26.9065 40.1523 26.8259 40.0455 26.7434 39.941Z" fill="#81B0C4"/>
<path d="M6.9363 40.9324V40.4717C6.9363 40.4159 6.95846 40.3624 6.99791 40.323C7.03737 40.2835 7.09088 40.2614 7.14667 40.2614H7.5358C7.21491 39.3134 6.84312 38.3835 6.42205 37.4756C8.761 35.5316 11.3567 33.9191 14.1358 32.6837C14.298 32.6191 15.2509 33.7961 15.7858 34.4121C15.8868 34.538 15.9971 34.6561 16.1158 34.7655C17.4651 35.6405 18.8849 36.4016 20.3604 37.0411C20.5045 37.9504 20.7234 38.8463 21.0149 39.7196C21.0685 39.8929 21.1222 40.0771 21.1772 40.2614H21.3999C21.4557 40.2614 21.5092 40.2835 21.5487 40.323C21.5881 40.3624 21.6103 40.4159 21.6103 40.4717V40.689H21.8014C21.8572 40.689 21.9107 40.7111 21.9502 40.7506C21.9896 40.7901 22.0118 40.8436 22.0118 40.8994V41.25H24.3369V40.8994C24.3369 40.8436 24.3591 40.7901 24.3985 40.7506C24.438 40.7111 24.4915 40.689 24.5473 40.689H25.6198V40.4717C25.6198 40.4159 25.642 40.3624 25.6814 40.323C25.7209 40.2835 25.7744 40.2614 25.8302 40.2614H26.266L26.7487 39.941C26.8312 40.0455 26.9118 40.1523 26.9907 40.2614H28.1498C27.9469 39.9328 27.7222 39.6181 27.4774 39.3195C27.6355 39.1517 27.7758 38.9675 27.9312 38.7956C28.6077 39.0789 29.0477 38.4244 29.5674 38.4807C30.1628 38.544 30.6344 39.3662 31.4842 39.3126C31.4649 39.6151 31.4512 39.9176 31.4374 40.2201V40.2614H32.0892C32.1057 39.963 32.1208 39.6715 32.1318 39.3924C32.5227 39.1992 32.9666 39.1412 33.394 39.2274C33.9882 39.3728 34.5022 39.7443 34.8268 40.2627H35.4882C35.5349 40.1802 35.583 40.0991 35.6257 40.0166C35.429 39.556 34.945 39.3607 34.8007 38.8479C35.4508 37.1068 35.3866 35.1793 34.6219 33.4854C34.532 33.3017 34.3995 33.1422 34.2354 33.0202C34.0713 32.8982 33.8804 32.8173 33.6787 32.7841C33.4341 32.7652 33.1891 32.8157 32.9719 32.9299C33.0797 32.7836 33.2069 32.6527 33.35 32.5407C33.794 32.2397 34.1958 31.8809 34.5449 31.4737C35.5239 32.2616 36.1138 33.0027 37.0529 33.8456C37.5617 34.3021 38.5654 34.8494 38.6644 35.5864C38.677 35.8698 38.6521 36.1537 38.5902 36.4306C38.52 36.817 38.4252 37.2212 38.3757 37.4701C38.1737 38.4246 37.9231 39.3682 37.6249 40.2971C37.6549 40.3154 37.6798 40.341 37.6971 40.3716C37.7144 40.4021 37.7237 40.4366 37.7239 40.4717V41.25H38.2299C38.5847 40.139 38.9325 39.0019 39.2832 37.8276C39.6827 36.8733 39.9054 35.8544 39.9404 34.8205C39.8332 33.9721 38.5104 33.0811 37.8133 32.4087C37.4269 32.0361 35.6229 30.6666 35.5184 30.1537C35.4139 29.6409 36.254 28.534 36.5235 27.973C36.8743 27.178 37.1598 26.3557 37.3774 25.5145C38.7964 20.5274 38.9408 13.6744 36.9113 9.57548C35.7948 7.75379 34.3494 6.15548 32.6488 4.86198C29.4863 2.46673 23.6247 2.20135 19.8077 3.6066C18.7631 3.94649 17.7508 4.37857 16.7827 4.89773C14.2829 6.36348 11.6292 7.34523 10.888 10.2987C9.06205 11.1237 8.51067 13.4612 8.6028 16.1672C8.72692 16.7214 8.79555 17.2866 8.80767 17.8544C8.7568 18.1074 8.41442 18.4305 8.34567 18.5941C7.99817 19.6413 7.89299 20.7537 8.03804 21.8474C8.1831 22.9412 8.57461 23.9877 9.18305 24.9081C9.52037 25.4108 9.95705 25.8391 10.4662 26.1666C10.9753 26.4941 11.5461 26.7139 12.1434 26.8125C12.1999 27.611 12.4085 28.3913 12.758 29.1115C12.9918 29.6244 13.8649 30.5456 13.5432 31.2001C12.9174 31.7287 12.2266 32.175 11.4875 32.5284C9.8953 33.484 8.73755 34.0684 7.2718 35.1271C6.3203 35.8146 4.83392 35.8999 5.0718 37.4784C5.35643 38.656 5.72778 39.8109 6.1828 40.9337C6.21717 41.041 6.25567 41.1469 6.2928 41.2527H6.93905L6.9363 40.9324ZM18.4189 5.9881C18.3514 6.06919 18.2784 6.14545 18.2003 6.21635C17.7502 6.54854 17.3182 6.90472 16.9064 7.28335C16.3935 7.85123 15.8202 9.37473 15.1395 9.54385C14.7967 9.5642 14.4527 9.55085 14.1124 9.50398C13.8945 9.52018 13.6791 9.56076 13.4703 9.62498C12.9856 9.81182 12.4873 9.96122 11.9798 10.0719C13.0083 7.82373 16.2148 6.00598 18.7173 5.29648C18.8548 5.25798 18.9758 5.35148 19.0899 5.47385C19.0748 5.86848 18.6829 5.86023 18.4189 5.9881ZM15.1395 11.0756C15.552 13.167 14.3682 15.5499 14.8755 17.7595C15.0474 18.5102 15.6455 19.6762 14.6913 19.7024C14.6567 19.2123 14.5004 18.7387 14.2365 18.3243C13.9726 17.91 13.6095 17.568 13.18 17.3295C12.7506 17.0909 12.2684 16.9633 11.7772 16.9582C11.286 16.9531 10.8012 17.0707 10.3669 17.3002C10.2641 17.3498 10.1641 17.4049 10.0672 17.4652C9.92967 15.8441 9.70142 13.5657 10.8069 12.3489C11.8783 11.1832 13.3633 10.4829 14.9443 10.3977C15.0302 10.619 15.0956 10.8478 15.1395 11.0811V11.0756ZM10.4742 24.475C9.5756 23.5007 9.07429 22.2254 9.06892 20.9C9.08088 20.521 9.16978 20.1483 9.33024 19.8048C9.49069 19.4612 9.71934 19.1538 10.0023 18.9014C10.2852 18.6489 10.6165 18.4566 10.9761 18.3362C11.3357 18.2158 11.716 18.1697 12.0939 18.2009C13.0344 18.304 13.4882 19.1276 13.7549 20.0406C13.8292 20.2977 13.8924 20.5617 13.9419 20.8189C14.6363 20.856 15.64 20.7886 15.9687 20.2469C15.9219 18.9241 15.3073 17.864 15.3499 16.6485C15.4428 15.5985 15.6212 14.5578 15.8834 13.5369C16.1954 12.3875 16.1362 11.169 15.7143 10.0554C16.7414 7.72473 19.7554 5.88635 21.9843 4.77398C24.7467 3.39898 29.1439 4.49898 31.7468 5.96473C31.9819 6.09925 32.207 6.25043 32.4205 6.4171C33.185 7.04629 33.8681 7.76822 34.4542 8.56623C34.7759 8.97873 35.0853 9.39123 35.3905 9.7886C34.0609 9.39398 32.9155 9.9701 32.8715 10.9794C32.8658 11.0926 32.8732 11.2061 32.8935 11.3176C34.131 10.1887 36.2307 11.3052 36.8535 12.5551C37.3706 14.0792 37.6037 15.6852 37.541 17.2934C37.847 21.458 36.8135 25.6115 34.5917 29.1472C34.105 30.0204 33.4699 30.8021 32.7148 31.4572C30.7554 32.8322 27.7772 34.0807 25.2265 33.2255C21.8564 32.0939 20.3247 29.8485 18.4712 27.2772C18.6986 28.6936 19.4147 29.9857 20.4952 30.9292C21.3069 31.948 22.327 32.7816 23.4872 33.374C22.5618 33.1567 21.1497 33.088 20.7578 33.924C20.0445 33.8855 19.3337 33.8112 18.6279 33.7012C18.037 33.6548 17.4618 33.4887 16.937 33.2131C16.4123 32.9375 15.949 32.5581 15.5754 32.098C14.6671 30.6734 13.996 29.1108 13.5885 27.4711C13.4895 27.0972 13.4319 26.7136 13.4167 26.3271C13.5377 25.6699 14.7078 25.3825 14.2417 24.464C13.3919 24.4557 13.2008 25.2367 12.4212 25.3137C12.0539 25.3336 11.6871 25.2682 11.3493 25.1227C11.0116 24.9771 10.712 24.7555 10.4742 24.475ZM28.0329 37.3725L27.9903 37.1924C27.9628 37.0782 27.9408 36.9737 27.9243 36.8651C27.8981 36.6774 27.8949 36.4871 27.9147 36.2986C28.1463 36.1258 28.426 36.0297 28.7149 36.0236C28.8543 36.0431 28.9877 36.0929 29.1058 36.1695C29.2238 36.2462 29.3236 36.3478 29.3982 36.4671C29.4727 36.5865 29.5201 36.7208 29.5371 36.8605C29.5542 37.0002 29.5403 37.142 29.4966 37.2758C29.4529 37.4095 29.3804 37.5321 29.2842 37.6348C29.188 37.7375 29.0704 37.8179 28.9397 37.8703C28.8091 37.9226 28.6686 37.9457 28.528 37.9378C28.3875 37.93 28.2504 37.8914 28.1264 37.8249C28.0975 37.6585 28.0673 37.521 28.0384 37.3986L28.0329 37.3725ZM17.3327 34.0464C18.3333 34.4074 19.3887 34.5935 20.4525 34.5964C20.45 34.8783 20.3979 35.1575 20.2985 35.4214C20.2629 35.556 20.2439 35.6946 20.2422 35.8339C19.187 35.7007 18.1884 35.2813 17.3547 34.6211C17.3142 34.5864 17.2813 34.5436 17.2582 34.4956C17.235 34.4476 17.2219 34.3953 17.2198 34.342C17.2178 34.2887 17.2267 34.2355 17.2462 34.1858C17.2656 34.1362 17.295 34.091 17.3327 34.0532V34.0464ZM27.4623 35.2C27.2352 35.1384 27.0161 35.0507 26.8092 34.9387C26.7019 34.881 26.5933 34.815 26.4819 34.7421C26.3705 34.6692 26.2592 34.5867 26.1423 34.496C26.1574 34.4369 26.2509 34.463 26.255 34.3915C26.3392 34.4287 26.4255 34.4609 26.5135 34.4877C26.6891 34.5411 26.8698 34.5761 27.0525 34.5922C27.1447 34.6005 27.2368 34.6046 27.3275 34.606C27.4183 34.6074 27.5159 34.606 27.6108 34.5977C28.6544 34.5345 29.764 34.1055 30.7073 34.0216C30.1119 34.4107 29.6073 34.8961 29.0325 35.3114C28.8744 35.3196 28.7245 35.3237 28.5829 35.3237C28.2058 35.3353 27.8289 35.296 27.4623 35.2069V35.2ZM24.8883 40.2957C24.1079 40.7176 23.2509 40.9789 22.3679 41.0644C22.1507 41.0135 22.0929 40.7894 22.02 40.535C22.0022 40.4717 21.9843 40.4085 21.9623 40.3439C21.9403 40.2792 21.921 40.227 21.8977 40.1679C21.5183 39.3396 21.2662 38.4589 21.1497 37.5554C21.1497 37.4344 21.1373 37.3051 21.1318 37.1704C21.0782 35.8724 21.0892 34.111 22.3555 34.353C23.511 34.5981 24.6258 35.0059 25.6665 35.5644C25.9333 35.7101 26.1437 35.8737 26.3884 36.0071C26.5169 36.0788 26.6524 36.1373 26.7927 36.1817C26.8726 36.2066 26.9538 36.2268 27.036 36.2422C27.127 36.2595 27.2188 36.2719 27.311 36.2794C27.311 36.3866 27.3028 36.4952 27.2987 36.6039C26.9043 36.7922 26.4847 36.9224 26.0529 36.9902C25.915 37.0254 25.781 37.0742 25.6528 37.136C25.8236 37.1434 25.9939 37.1599 26.1629 37.1855C26.6012 37.2508 27.0264 37.3854 27.4224 37.5842V37.6709C27.4133 37.9129 27.4036 38.1544 27.3935 38.3955C26.5938 39.0763 25.7574 39.7129 24.8883 40.3026V40.2957ZM30.7252 38.1837C30.5748 38.148 30.4273 38.1095 30.2824 38.0682C30.2769 37.6552 30.2929 37.2421 30.3305 36.8307C30.4147 36.7729 30.5075 36.7288 30.6055 36.7001C30.9476 36.6228 31.296 36.5768 31.6464 36.5626C31.539 36.5106 31.4272 36.4683 31.3123 36.4361C31.2532 36.4196 31.1913 36.4045 31.1294 36.3921C31.0045 36.3647 30.8776 36.3472 30.7499 36.3399C30.5619 36.3312 30.3735 36.3488 30.1903 36.3921C30.1552 36.1243 30.0737 35.8647 29.9497 35.6249L30.028 35.5932C30.8654 35.2247 32.6653 33.4909 33.6924 34.0904C33.9483 34.3268 34.1169 34.6427 34.1709 34.9869C34.3248 35.6078 34.4169 36.2425 34.4459 36.8816C34.4717 37.2831 34.4379 37.6862 34.3455 38.0779C34.3015 38.2662 34.2212 38.4442 34.109 38.6017C32.97 38.5801 31.8361 38.4419 30.7252 38.1892V38.1837Z" fill="#231F20"/>
<path d="M24.6039 25.9352C23.7569 25.5227 23.1519 25.7496 23.0419 25.8967C22.8329 26.1717 23.266 27.6925 23.266 27.6925L23.6785 27.7764C23.6001 26.103 24.6039 25.9352 24.6039 25.9352Z" fill="#F7E4CD"/>
<path d="M29.9154 39.8213C29.7973 39.8215 29.6839 39.8672 29.5986 39.9489C29.5134 40.0306 29.4628 40.142 29.4575 40.2599H30.3733C30.368 40.142 30.3174 40.0306 30.2322 39.9489C30.1469 39.8672 30.0335 39.8215 29.9154 39.8213Z" fill="#1D1919"/>
<path d="M22.0079 40.8993C22.0079 40.8435 21.9857 40.79 21.9463 40.7506C21.9068 40.7111 21.8533 40.689 21.7975 40.689H21.6064V40.9323C21.6064 40.9881 21.5842 41.0416 21.5448 41.0811C21.5053 41.1206 21.4518 41.1427 21.396 41.1427H7.1469C7.0911 41.1427 7.03759 41.1206 6.99814 41.0811C6.95869 41.0416 6.93652 40.9881 6.93652 40.9323V41.25H22.0079V40.8993Z" fill="#231F20"/>
<path d="M37.5123 41.1427H25.8248C25.769 41.1427 25.7155 41.1206 25.676 41.0811C25.6366 41.0416 25.6144 40.9881 25.6144 40.9323V40.689H24.5419C24.4861 40.689 24.4326 40.7111 24.3932 40.7506C24.3537 40.79 24.3315 40.8435 24.3315 40.8993V41.25H37.7199V40.9323C37.7199 40.9877 37.6981 41.0408 37.6593 41.0801C37.6204 41.1195 37.5676 41.142 37.5123 41.1427Z" fill="#231F20"/>
<path d="M7.1469 41.1427H21.4001C21.4559 41.1427 21.5095 41.1206 21.5489 41.0811C21.5884 41.0417 21.6105 40.9881 21.6105 40.9324V40.4717C21.6105 40.4159 21.5884 40.3624 21.5489 40.323C21.5095 40.2835 21.4559 40.2614 21.4001 40.2614H7.1469C7.0911 40.2614 7.03759 40.2835 6.99814 40.323C6.95869 40.3624 6.93652 40.4159 6.93652 40.4717V40.9324C6.93652 40.9881 6.95869 41.0417 6.99814 41.0811C7.03759 41.1206 7.0911 41.1427 7.1469 41.1427Z" fill="#231F20"/>
<path d="M25.6157 40.9324C25.6157 40.9881 25.6379 41.0417 25.6773 41.0811C25.7168 41.1206 25.7703 41.1427 25.8261 41.1427H37.5136C37.5694 41.1427 37.6229 41.1206 37.6624 41.0811C37.7018 41.0417 37.724 40.9881 37.724 40.9324V40.4717C37.7237 40.4366 37.7145 40.4021 37.6971 40.3716C37.6798 40.341 37.655 40.3154 37.625 40.2971C37.5921 40.2746 37.5534 40.2622 37.5136 40.2614H25.8261C25.7703 40.2614 25.7168 40.2835 25.6773 40.323C25.6379 40.3624 25.6157 40.4159 25.6157 40.4717V40.9324Z" fill="#231F20"/>
</svg>
