<svg width="45" height="44" viewBox="0 0 45 44" fill="none" xmlns="http://www.w3.org/2000/svg">
<g clip-path="url(#clip0_422_1729)">
<path d="M18.2313 3.91144C17.7467 3.42441 17.0706 3.12364 16.3189 3.12364C15.57 3.12364 14.8991 3.42441 14.4202 3.91144H14.4064C13.9232 4.39609 13.6224 5.07271 13.6224 5.82154C13.6224 6.57323 13.9232 7.24414 14.4064 7.72595L14.4202 7.73687C14.8991 8.22153 15.57 8.51945 16.3189 8.51945C17.0706 8.51945 17.7467 8.22153 18.2313 7.73687L18.2385 7.72595C18.7241 7.24414 19.022 6.57323 19.022 5.82154C19.022 5.07271 18.7241 4.39609 18.2385 3.91144H18.2313ZM16.3189 40.8416C17.0706 40.8416 17.7467 40.5356 18.2313 40.0566L18.2385 40.0424C18.7241 39.5644 19.022 38.8877 19.022 38.1441C19.022 37.3924 18.7241 36.7187 18.2385 36.2316H18.2313C17.7467 35.7389 17.0706 35.441 16.3189 35.441C15.57 35.441 14.8991 35.7389 14.4202 36.2316H14.4064C13.9232 36.7187 13.6224 37.3924 13.6224 38.1441C13.6224 38.8877 13.9232 39.5644 14.4064 40.0424L14.4202 40.0566C14.8991 40.5356 15.57 40.8416 16.3189 40.8416ZM31.0181 32.668C31.6867 32.4927 32.292 32.0636 32.6612 31.415L32.7111 31.3205C33.0394 30.7052 33.0993 29.9953 32.9239 29.3662C32.7472 28.6924 32.3129 28.0966 31.6658 27.7236L31.6282 27.6984C30.9977 27.353 30.2793 27.2779 29.6193 27.4561C28.9484 27.6233 28.3459 28.0714 27.9786 28.7148C27.6065 29.3519 27.5286 30.087 27.7068 30.7636C27.8907 31.4288 28.3207 32.0304 28.9636 32.4062H28.9678C29.6122 32.7764 30.342 32.8433 31.0181 32.668ZM19.0876 19.2179C18.3786 18.5109 17.4017 18.0681 16.3189 18.0681C15.2403 18.0681 14.2657 18.5109 13.5582 19.2179C12.8541 19.9226 12.4198 20.8971 12.4198 21.9771C12.4198 23.06 12.8541 24.0374 13.5582 24.7501C14.2657 25.4514 15.2403 25.8914 16.3189 25.8914C17.4017 25.8914 18.3786 25.4514 19.0876 24.7501C19.7932 24.0374 20.2275 23.06 20.2275 21.9771C20.2275 20.8971 19.7932 19.9226 19.0876 19.2179ZM17.531 14.6194C19.0999 14.8779 20.5116 15.6296 21.5888 16.7153H21.5973C21.7684 16.8878 21.9356 17.0745 22.09 17.2636L24.7837 15.7051C24.4216 14.6109 24.405 13.4667 24.6958 12.3948C25.0802 10.9579 26.0115 9.67169 27.4075 8.86441L27.4535 8.83685C28.8343 8.05427 30.4042 7.89272 31.8216 8.27712C33.2566 8.66104 34.5513 9.59661 35.3572 10.9917V10.9945C36.1592 12.381 36.3222 13.9732 35.9393 15.4044C35.5577 16.8403 34.6221 18.1351 33.2276 18.9366L32.8598 19.1543H32.8223C31.5322 19.7691 30.1134 19.8641 28.8106 19.5216C27.7405 19.2374 26.7589 18.6416 25.9906 17.7925L23.3012 19.3462C23.6101 20.1644 23.7816 21.0473 23.7816 21.9771C23.7816 22.9042 23.6101 23.7979 23.3012 24.6218L25.9906 26.1699C26.7589 25.3098 27.7405 24.7249 28.8106 24.4408C30.2455 24.0483 31.8368 24.2156 33.2276 25.0257L33.3164 25.0675V25.0732C34.6601 25.8857 35.562 27.1444 35.9393 28.5641C36.3222 29.9867 36.1592 31.5795 35.3572 32.9688L35.3087 33.0662L35.303 33.0576C34.4972 34.3971 33.2276 35.3046 31.8259 35.6885C30.3876 36.0672 28.7968 35.9057 27.4075 35.107V35.0956C26.0115 34.2883 25.0802 32.9992 24.6958 31.5657C24.405 30.4966 24.4216 29.3519 24.7837 28.2581L22.09 26.7044C21.9356 26.894 21.7684 27.0722 21.5973 27.2446L21.5888 27.2527C20.5116 28.3332 19.0999 29.0849 17.531 29.3353V32.448C18.649 32.6818 19.6511 33.2415 20.4365 34.0265L20.4403 34.035C21.4928 35.0818 22.1442 36.5405 22.1442 38.1441C22.1442 39.7425 21.4928 41.1922 20.4403 42.2447L20.4365 42.2613C19.3769 43.3138 17.9225 43.9652 16.3189 43.9652C14.7238 43.9652 13.2675 43.3138 12.2107 42.2613H12.2069V42.2447C11.153 41.1922 10.5002 39.7425 10.5002 38.1441C10.5002 36.5405 11.153 35.0818 12.2069 34.035V34.0265H12.2107C12.9947 33.2415 13.9982 32.6818 15.1134 32.448V29.3353C13.543 29.0849 12.1356 28.3332 11.0599 27.2527L11.0485 27.2446C9.70382 25.8943 8.86328 24.0374 8.86328 21.9771C8.86328 19.9226 9.70382 18.0657 11.0485 16.7153H11.0599C12.1356 15.6296 13.543 14.8779 15.1134 14.6194V11.5205C13.9982 11.2782 12.9947 10.7189 12.2107 9.9392H12.2069V9.93064C11.153 8.87296 10.5002 7.42518 10.5002 5.82154C10.5002 4.22599 11.153 2.76443 12.2069 1.71197L12.2107 1.70674C13.2675 0.651431 14.7238 0 16.3189 0C17.9225 0 19.3769 0.651431 20.4365 1.70674V1.71197H20.4403C21.4928 2.76443 22.1442 4.22599 22.1442 5.82154C22.1442 7.42518 21.4928 8.87296 20.4403 9.93064L20.4365 9.9392C19.6511 10.7189 18.649 11.2782 17.531 11.5205V14.6194ZM32.6612 12.5535L32.6389 12.5202C32.2668 11.8935 31.6738 11.4758 31.0181 11.2948C30.342 11.1166 29.6122 11.1922 28.9636 11.5623H28.9678C28.3207 11.9296 27.8878 12.5311 27.7068 13.2049C27.5286 13.873 27.6065 14.6109 27.9786 15.2538L27.9909 15.2709C28.3639 15.9052 28.9569 16.3309 29.6193 16.5034C30.285 16.6901 31.0267 16.6122 31.6658 16.2392L31.7004 16.2226C32.3295 15.8467 32.7486 15.2538 32.9239 14.6023C33.1021 13.9314 33.0313 13.1964 32.6612 12.5535Z" fill="#1A1919"/>
</g>
<defs>
<clipPath id="clip0_422_1729">
<rect width="44" height="44" fill="white" transform="translate(0.5)"/>
</clipPath>
</defs>
</svg>
