<svg width="45" height="44" viewBox="0 0 45 44" fill="none" xmlns="http://www.w3.org/2000/svg">
<g clip-path="url(#clip0_422_1695)">
<path d="M22.5 44C34.6503 44 44.5 34.1503 44.5 22C44.5 9.84974 34.6503 0 22.5 0C10.3497 0 0.5 9.84974 0.5 22C0.5 34.1503 10.3497 44 22.5 44Z" fill="#13AA52"/>
<path d="M28.3809 19.3119C26.9913 13.1789 23.7072 11.1624 23.3536 10.392C22.9668 9.84844 22.575 8.88164 22.575 8.88164C22.5685 8.86531 22.5582 8.83652 22.5462 8.80859C22.5062 9.35215 22.4856 9.56184 21.9717 10.1101C21.1759 10.7323 17.093 14.1582 16.7609 21.126C16.4511 27.6246 21.4552 31.497 22.132 31.9907L22.2089 32.0452V32.0405C22.2132 32.0732 22.4237 33.5874 22.5715 35.1918H23.1018C23.2262 34.0577 23.4127 32.9312 23.6604 31.8175L23.7033 31.7896C24.0061 31.5725 24.2947 31.3364 24.5674 31.0827L24.5984 31.0548C26.037 29.7258 28.6232 26.6518 28.5979 21.7508C28.5925 20.9332 28.52 20.1175 28.3809 19.3119ZM22.5152 28.3216C22.5152 28.3216 22.5152 19.207 22.816 19.2088C23.0506 19.2088 23.3544 30.9654 23.3544 30.9654C22.9368 30.9152 22.5152 29.0305 22.5152 28.3216Z" fill="white"/>
</g>
<defs>
<clipPath id="clip0_422_1695">
<rect width="44" height="44" fill="white" transform="translate(0.5)"/>
</clipPath>
</defs>
</svg>
