<svg width="45" height="44" viewBox="0 0 45 44" fill="none" xmlns="http://www.w3.org/2000/svg">
<path d="M24.1122 3.16074C23.1362 2.61186 21.8638 2.61432 20.887 3.16074C15.9947 5.86062 11.1024 8.56132 6.20922 11.26C5.25707 11.7609 4.61488 12.7833 4.62512 13.8446V30.1576C4.61825 31.2396 5.29355 32.2719 6.27025 32.766C7.67572 33.5137 9.04122 34.3373 10.4721 35.0353C12.1249 35.8475 14.1928 36.0271 15.8659 35.1801C17.224 34.4781 17.8272 32.9168 17.8254 31.482C17.8364 26.0983 17.8272 20.7145 17.8297 15.3307C17.862 15.0915 17.6823 14.8357 17.4213 14.8415C16.7961 14.8316 16.17 14.8357 15.5448 14.8398C15.3086 14.8176 15.078 15.0138 15.0959 15.2512C15.0875 20.6003 15.0975 25.9509 15.0908 31.3008C15.1044 32.0408 14.6045 32.752 13.8913 33.0019C12.2441 33.5793 7.54272 30.5267 7.54272 30.5267C7.37018 30.4468 7.26062 30.2596 7.27754 30.0737C7.27754 24.6917 7.27838 19.3095 7.27754 13.9283C7.25382 13.7114 7.38754 13.516 7.58677 13.4274C12.463 10.7434 17.3366 8.05274 22.2128 5.36712C22.3822 5.25408 22.6182 5.25443 22.7872 5.36795C27.6634 8.05274 32.5379 10.741 37.4149 13.4251C37.6148 13.5135 37.7428 13.7122 37.7225 13.9283C37.7217 19.3095 37.7241 24.6917 37.7208 30.073C37.7353 30.2635 37.6368 30.448 37.459 30.5316C32.6284 33.201 27.7427 35.7844 22.9558 38.5314C22.7469 38.6511 22.5103 38.7868 22.2763 38.6548C21.0175 37.9585 19.7739 37.2351 18.5192 36.5321C18.3828 36.447 18.2092 36.4104 18.0669 36.5057C17.5043 36.8022 16.9752 37.0422 16.3293 37.298C15.422 37.6571 15.567 37.804 16.3852 38.2807C17.8525 39.1111 19.3222 39.9381 20.7895 40.7693C21.7554 41.3721 23.0533 41.415 24.0503 40.858C28.9434 38.1615 33.8349 35.4618 38.729 32.7653C39.703 32.2685 40.3817 31.2403 40.3749 30.1575V13.8446C40.3843 12.8049 39.7667 11.8006 38.8432 11.2923C33.9339 8.57927 29.0223 5.87213 24.1122 3.16074Z" fill="#8CC84B"/>
<path d="M31.4949 15.4085C29.5745 14.3811 27.2898 14.3264 25.1556 14.4607C23.6138 14.613 21.9923 15.0385 20.8691 16.1437C19.717 17.2547 19.4662 19.0488 20.0134 20.4991C20.4056 21.5241 21.3927 22.1905 22.4135 22.5431C23.7284 23.0073 25.1094 23.1508 26.4909 23.2944C27.7509 23.4253 29.0114 23.5563 30.2225 23.9307C30.7172 24.0946 31.2934 24.3454 31.4449 24.8837C31.5849 25.5212 31.4314 26.2622 30.9139 26.7051C29.2699 28.0062 24.6969 27.8069 23.0726 26.7828C22.4159 26.3465 22.133 25.5741 22.0179 24.8381C22.0051 24.6087 21.8204 24.3984 21.5714 24.4158C20.9479 24.4084 20.3243 24.4101 19.7007 24.415C19.4832 24.3967 19.257 24.5515 19.2451 24.7736C19.1169 28.1447 22.213 29.6143 25.1177 29.9378C26.7772 30.096 28.4731 30.0869 30.1073 29.7308C31.3357 29.4511 32.5674 28.936 33.4131 27.9899C34.4559 26.84 34.6609 25.1279 34.1932 23.6956C33.8357 22.6268 32.814 21.9412 31.7695 21.5886C30.3491 21.1015 28.6659 20.8397 27.3794 20.7172C25.5096 20.5392 23.2876 20.6119 22.7583 19.3832C22.5473 18.7398 22.7268 17.941 23.3181 17.5452C24.8824 16.4841 28.0662 16.6251 29.6863 17.4178C30.4301 17.7903 30.8612 18.5553 31.0391 19.3276C31.0721 19.5545 31.2247 19.7913 31.4874 19.7814C32.1067 19.7938 32.726 19.7847 33.3451 19.7855C33.5578 19.8004 33.7908 19.6803 33.8323 19.4625C33.806 17.8483 32.9817 16.1958 31.4949 15.4085Z" fill="#8CC84B"/>
</svg>
