<svg width="37" height="36" viewBox="0 0 37 36" fill="none" xmlns="http://www.w3.org/2000/svg">
<g clip-path="url(#clip0_422_1737)">
<path d="M34.9917 14.3492H23.5177C23.1357 14.3516 22.7687 14.2009 22.4985 13.9308C22.2284 13.6607 22.0777 13.2936 22.0801 12.9116V1.43767C22.0801 1.05721 21.9284 0.692465 21.6585 0.424286C21.3887 0.156107 21.023 0.00664854 20.6425 0.00904136H16.3477C15.9672 0.00664854 15.6015 0.156107 15.3317 0.424286C15.0618 0.692465 14.91 1.05721 14.9101 1.43767V12.9116C14.9125 13.2936 14.7618 13.6607 14.4916 13.9308C14.2215 14.2009 13.8545 14.3516 13.4724 14.3492H9.17758C8.79556 14.3516 8.4285 14.2009 8.15837 13.9308C7.88824 13.6607 7.73756 13.2936 7.73997 12.9116V1.43767C7.74238 1.05566 7.59169 0.688591 7.32156 0.418463C7.05143 0.148334 6.68437 -0.00235396 6.30235 2.78111e-05H1.99851C1.61805 2.78111e-05 1.2533 0.151797 0.985125 0.421663C0.716946 0.691529 0.567488 1.05722 0.569852 1.43767V34.4308C0.56747 34.8129 0.718158 35.1799 0.988287 35.4501C1.25842 35.7202 1.62548 35.8709 2.00749 35.8685H34.9917C35.3737 35.8709 35.7408 35.7202 36.0109 35.4501C36.281 35.1799 36.4317 34.8129 36.4293 34.4308V15.8138C36.439 15.4271 36.2916 15.0531 36.0206 14.777C35.7497 14.501 35.3784 14.3467 34.9917 14.3492ZM29.2233 26.533C29.2257 27.1041 29.0005 27.6526 28.5975 28.0572C28.1945 28.4619 27.6469 28.6894 27.0758 28.6894H24.2006C23.6295 28.6894 23.0819 28.4619 22.679 28.0572C22.276 27.6526 22.0508 27.1041 22.0532 26.533V23.6667C22.0508 23.0956 22.276 22.5471 22.679 22.1425C23.0819 21.7378 23.6295 21.5103 24.2006 21.5103H27.0758C27.6469 21.5103 28.1945 21.7378 28.5975 22.1425C29.0005 22.5471 29.2257 23.0956 29.2233 23.6667V26.533Z" fill="#FF6600"/>
</g>
<defs>
<clipPath id="clip0_422_1737">
<rect width="36" height="36" fill="white" transform="translate(0.5)"/>
</clipPath>
</defs>
</svg>
