<svg width="45" height="44" viewBox="0 0 45 44" fill="none" xmlns="http://www.w3.org/2000/svg">
<path d="M26.1834 21.9668C26.1834 19.9945 24.5343 18.3954 22.4999 18.3954C20.4657 18.3954 18.8164 19.9945 18.8164 21.9668C18.8164 23.9394 20.4657 25.5384 22.4999 25.5384C24.5343 25.5384 26.1834 23.9394 26.1834 21.9668Z" fill="#53C1DE"/>
<path fill-rule="evenodd" clip-rule="evenodd" d="M34.4631 15.3363C35.2409 12.2716 36.2187 6.58828 32.7718 4.66147C29.341 2.74305 24.8766 6.41909 22.5191 8.62562C20.1686 6.44108 15.5787 2.78076 12.1347 4.71369C8.70533 6.63854 9.76288 12.2276 10.558 15.3116C7.35893 16.1925 1.875 18.09 1.875 21.9669C1.875 25.8327 7.35322 27.8971 10.5333 28.7772C9.7353 31.8783 8.73069 37.3875 12.1645 39.3081C15.6213 41.2406 20.1969 37.6674 22.5762 35.4368C24.9487 37.6563 29.3703 41.2529 32.8018 39.3269C36.2439 37.3949 35.3475 31.7878 34.5523 28.6859C37.635 27.8039 43.125 25.7844 43.125 21.9669C43.125 18.1273 37.6117 16.2144 34.4631 15.3363ZM34.0723 27.0421C33.5502 25.4397 32.8455 23.7357 31.9835 21.9754C32.8063 20.2566 33.4836 18.5746 33.9911 16.9825C36.2994 17.6313 41.3629 19.1143 41.3629 21.9669C41.3629 24.8462 36.5038 26.3432 34.0723 27.0421ZM31.9188 37.8482C29.3585 39.2851 25.5554 35.8457 23.8032 34.2112C24.9656 32.9785 26.1272 31.5455 27.2609 29.9542C29.2552 29.7828 31.1391 29.5023 32.8477 29.1193C33.4073 31.3134 34.4903 36.4049 31.9188 37.8482ZM13.045 37.8278C10.4845 36.3962 11.6548 31.4801 12.2419 29.1958C13.9315 29.5582 15.8018 29.8189 17.8008 29.9761C18.9419 31.5331 20.1372 32.9644 21.3417 34.2178C19.8535 35.6136 15.6174 39.2659 13.045 37.8278ZM3.63705 21.9669C3.63705 19.0767 8.67035 17.6045 11.0312 16.9573C11.5475 18.5852 12.2246 20.2873 13.0417 22.0085C12.214 23.7553 11.5272 25.4844 11.0062 27.1315C8.75507 26.5067 3.63705 24.8588 3.63705 21.9669ZM13.0176 6.19237C15.5886 4.74947 19.5777 8.26351 21.2844 9.84518C20.0861 11.0929 18.9018 12.5133 17.7704 14.0614C15.8304 14.2358 13.9733 14.5157 12.266 14.8908C11.6255 12.4035 10.4494 7.63371 13.0176 6.19237ZM28.5215 15.9185C29.8377 16.0795 31.0987 16.2937 32.2827 16.5558C31.9273 17.6605 31.4842 18.8156 30.9624 19.9998C30.206 18.6083 29.3941 17.2447 28.5215 15.9185ZM22.5197 11.0661C23.3324 11.9198 24.1464 12.8732 24.9472 13.9074C23.3229 13.8329 21.696 13.8326 20.0718 13.9063C20.8732 12.8817 21.6942 11.9297 22.5197 11.0661ZM14.0527 19.9985C13.5395 18.8185 13.1005 17.6583 12.7419 16.5378C13.9189 16.2825 15.174 16.0737 16.4816 15.9153C15.6066 17.2386 14.796 18.6017 14.0527 19.9985ZM16.5192 28.1403C15.1684 27.9942 13.8942 27.796 12.7176 27.5477C13.0819 26.4076 13.5306 25.2223 14.0547 24.0168C14.8082 25.4283 15.6312 26.8045 16.5192 28.1403ZM22.5685 32.9883C21.7333 32.1145 20.9002 31.148 20.0866 30.1085C21.7201 30.1707 23.3568 30.1708 24.9901 30.1001C24.1869 31.1586 23.3757 32.1265 22.5685 32.9883ZM30.9792 23.9555C31.5306 25.174 31.9953 26.3528 32.3645 27.4737C31.1684 27.7384 29.8771 27.9515 28.5166 28.1098C29.3956 26.7585 30.2205 25.3737 30.9792 23.9555ZM26.2775 28.3169C23.7789 28.49 21.2647 28.4881 18.7652 28.331C17.345 26.3196 16.0807 24.2041 14.9893 22.008C16.0754 19.8164 17.3306 17.705 18.7441 15.6967C21.2453 15.5134 23.762 15.5129 26.2632 15.6978C27.6646 17.706 28.9178 19.8118 30.0291 21.9836C28.931 24.1741 27.6693 26.2897 26.2775 28.3169ZM31.8917 6.14157C34.4633 7.57974 33.3186 12.6875 32.7568 14.9086C31.0455 14.5256 29.187 14.2407 27.2414 14.0636C26.1079 12.4988 24.9335 11.0759 23.7545 9.8443C25.4831 8.22856 29.3449 4.71747 31.8917 6.14157Z" fill="#53C1DE"/>
</svg>
