<svg width="45" height="44" viewBox="0 0 45 44" fill="none" xmlns="http://www.w3.org/2000/svg">
<g clip-path="url(#clip0_422_1601)">
<path d="M42.7761 32.1309C40.4279 33.3548 28.264 38.3562 25.6744 39.7062C23.0847 41.0565 21.6461 41.0434 19.6003 40.0655C17.5546 39.0875 4.61005 33.8587 2.27822 32.7441C1.11291 32.1872 0.5 31.717 0.5 31.2729V26.8254C0.5 26.8254 17.3523 23.1568 20.073 22.1807C22.7934 21.2046 23.7373 21.1694 26.0525 22.0174C28.368 22.8658 42.2118 25.3635 44.5 26.2015L44.499 30.586C44.4993 31.0257 43.9713 31.508 42.7761 32.1309Z" fill="#912626"/>
<path d="M42.7752 27.7097C40.4272 28.9331 28.2636 33.9346 25.674 35.2845C23.0845 36.635 21.6459 36.6217 19.6003 35.6438C17.5544 34.6665 4.61035 29.4368 2.2787 28.3229C-0.0529605 27.2083 -0.101773 26.4412 2.18863 25.5444C4.47904 24.6472 17.3521 19.5966 20.0731 18.6206C22.7935 17.6448 23.7373 17.6093 26.0524 18.4576C28.3678 19.3057 40.4588 24.1183 42.7467 24.9562C45.0354 25.7951 45.1232 26.4859 42.7752 27.7097Z" fill="#C6302B"/>
<path d="M42.7761 24.9346C40.4279 26.1587 28.264 31.1599 25.6744 32.5105C23.0847 33.8602 21.6461 33.8472 19.6003 32.8692C17.5545 31.8917 4.61005 26.6624 2.27822 25.5478C1.11291 24.991 0.5 24.5214 0.5 24.0771V19.6292C0.5 19.6292 17.3523 15.9607 20.073 14.9846C22.7934 14.0085 23.7373 13.9731 26.0525 14.8213C28.3682 15.6695 42.212 18.1667 44.5 19.0049L44.499 23.3899C44.4993 23.8294 43.9713 24.3117 42.7761 24.9346Z" fill="#912626"/>
<path d="M42.7752 20.5135C40.4272 21.7373 28.2636 26.7385 25.674 28.0889C23.0845 29.4388 21.6459 29.4256 19.6003 28.4476C17.5544 27.4703 4.61035 22.2409 2.2787 21.1268C-0.0529605 20.0125 -0.101773 19.2453 2.18863 18.3481C4.47904 17.4514 17.3523 12.4005 20.0731 11.4246C22.7935 10.4487 23.7373 10.4133 26.0524 11.2615C28.3678 12.1095 40.4588 16.9219 42.7467 17.7601C45.0354 18.5988 45.1232 19.2898 42.7752 20.5135Z" fill="#C6302B"/>
<path d="M42.7761 17.4716C40.4279 18.6953 28.264 23.6969 25.6744 25.0475C23.0847 26.3974 21.6461 26.3842 19.6003 25.4062C17.5545 24.4287 4.61005 19.1993 2.27822 18.0852C1.11291 17.5278 0.5 17.0581 0.5 16.6143V12.1662C0.5 12.1662 17.3523 8.49783 20.073 7.52192C22.7934 6.54567 23.7373 6.51061 26.0525 7.35864C28.3682 8.20684 42.212 10.704 44.5 11.5422L44.499 15.9271C44.4993 16.3663 43.9713 16.8485 42.7761 17.4716Z" fill="#912626"/>
<path d="M42.7751 13.0504C40.4271 14.2742 28.2635 19.2757 25.6739 20.6256C23.0844 21.9756 21.6458 21.9623 19.6002 20.9849C17.5545 20.0069 4.61027 14.7778 2.27878 13.6635C-0.0530463 12.5494 -0.101687 11.782 2.18855 10.885C4.47895 9.98813 17.3522 4.93793 20.073 3.96168C22.7934 2.9856 23.7372 2.95054 26.0524 3.79874C28.3677 4.64695 40.4588 9.45927 42.7466 10.2975C45.0353 11.1356 45.1231 11.8267 42.7751 13.0504Z" fill="#C6302B"/>
<path d="M27.8768 8.72384L24.0938 9.11657L23.247 11.1543L21.8792 8.88042L17.511 8.48785L20.7704 7.3124L19.7925 5.50806L22.8441 6.70156L25.721 5.75968L24.9434 7.62538L27.8768 8.72384ZM23.0212 18.6097L15.961 15.6815L26.0776 14.1286L23.0212 18.6097ZM13.2329 9.85649C16.2192 9.85649 18.6401 10.7949 18.6401 11.9523C18.6401 13.1101 16.2192 14.0484 13.2329 14.0484C10.2465 14.0484 7.82568 13.1099 7.82568 11.9523C7.82568 10.7949 10.2465 9.85649 13.2329 9.85649Z" fill="white"/>
<path d="M32.3477 9.28093L38.3351 11.647L32.3528 14.0108L32.3477 9.28093Z" fill="#621B1C"/>
<path d="M25.7236 11.9011L32.3477 9.28088L32.3528 14.0107L31.7033 14.2647L25.7236 11.9011Z" fill="#9A2928"/>
</g>
<defs>
<clipPath id="clip0_422_1601">
<rect width="44" height="44" fill="white" transform="translate(0.5)"/>
</clipPath>
</defs>
</svg>
