<svg width="45" height="44" viewBox="0 0 45 44" fill="none" xmlns="http://www.w3.org/2000/svg">
<g clip-path="url(#clip0_422_1685)">
<path d="M29.3774 4.28559C29.3774 3.07702 28.0243 3.077 27.4229 3.22807C28.2648 2.56336 29.2522 2.72452 29.6029 2.92594L37.7338 6.91277C38.5085 7.29266 38.9999 8.08308 38.9999 8.94928V35.1768C38.9999 36.0546 38.4955 36.8534 37.705 37.2272L30.0541 40.8449C29.5277 41.0714 28.3851 41.6305 27.4229 40.8448C28.6257 41.0715 29.2772 40.2155 29.3774 39.6363V4.28559Z" fill="url(#paint0_linear_422_1685)"/>
<path d="M27.5204 3.20636C28.1587 3.08023 29.3775 3.13873 29.3775 4.28567V13.3135L4.72619 31.9623C4.2953 32.2883 3.6889 32.2341 3.3219 31.837L0.781232 29.0879C0.383213 28.6572 0.411062 27.983 0.843233 27.587L27.4228 3.22816L27.5204 3.20636Z" fill="url(#paint1_linear_422_1685)"/>
<path d="M29.3775 30.7598L4.72619 12.111C4.2953 11.785 3.6889 11.8391 3.3219 12.2363L0.781232 14.9854C0.383213 15.4161 0.411062 16.0903 0.843233 16.4864L27.4228 40.8452C28.6256 41.0718 29.2772 40.2157 29.3775 39.6366V30.7598Z" fill="url(#paint2_linear_422_1685)"/>
</g>
<defs>
<linearGradient id="paint0_linear_422_1685" x1="33.2115" y1="2.75" x2="33.2115" y2="41.25" gradientUnits="userSpaceOnUse">
<stop stop-color="#32B5F1"/>
<stop offset="1" stop-color="#2B9FED"/>
</linearGradient>
<linearGradient id="paint1_linear_422_1685" x1="29.3775" y1="7.60922" x2="1.90484" y2="30.6695" gradientUnits="userSpaceOnUse">
<stop stop-color="#0F6FB3"/>
<stop offset="0.270551" stop-color="#1279B7"/>
<stop offset="0.421376" stop-color="#1176B5"/>
<stop offset="0.618197" stop-color="#0E69AC"/>
<stop offset="0.855344" stop-color="#0F70AF"/>
<stop offset="1" stop-color="#0F6DAD"/>
</linearGradient>
<linearGradient id="paint2_linear_422_1685" x1="2.08843" y1="13.7278" x2="29.4838" y2="36.4111" gradientUnits="userSpaceOnUse">
<stop stop-color="#1791D2"/>
<stop offset="1" stop-color="#1173C5"/>
</linearGradient>
<clipPath id="clip0_422_1685">
<rect width="44" height="44" fill="white" transform="translate(0.5)"/>
</clipPath>
</defs>
</svg>
